<svg id="Layer_1" enable-background="new 0 0 128 128" height="512" viewBox="0 0 128 128" width="512" xmlns="http://www.w3.org/2000/svg"><path id="Down_Arrow_4_" d="m64 88c-1.023 0-2.047-.391-2.828-1.172l-32-32c-1.563-1.563-1.563-4.094 0-5.656s4.094-1.563 5.656 0l29.172 29.172 29.172-29.172c1.563-1.563 4.094-1.563 5.656 0s1.563 4.094 0 5.656l-32 32c-.781.781-1.805 1.172-2.828 1.172zm64-24c0-35.289-28.711-64-64-64s-64 28.711-64 64 28.711 64 64 64 64-28.711 64-64zm-8 0c0 30.879-25.121 56-56 56s-56-25.121-56-56 25.121-56 56-56 56 25.121 56 56z"/></svg>