<?xml version="1.0"?>
<svg xmlns="http://www.w3.org/2000/svg" id="Icons" viewBox="0 0 60 60" width="512" height="512"><path d="M32.66,44.619c-.007.007-.017.009-.024.017s-.01.017-.017.024a8.983,8.983,0,0,0,0,12.68c.007.007.009.017.017.024s.017.01.024.017a8.983,8.983,0,0,0,12.68,0c.007-.007.017-.009.024-.017s.01-.017.017-.024a8.983,8.983,0,0,0,0-12.68c-.007-.007-.009-.017-.017-.024s-.017-.01-.024-.017A8.975,8.975,0,0,0,40,42.059V40h1a1,1,0,0,0,0-2H37a1,1,0,0,0,0,2h1v2.059A8.975,8.975,0,0,0,32.66,44.619Zm9.875,2.846a1,1,0,0,0,1.414,0l.649-.649A6.947,6.947,0,0,1,45.92,50H45a1,1,0,0,0,0,2h.92A6.947,6.947,0,0,1,44.6,55.184l-.649-.649a1,1,0,0,0-1.414,1.414l.649.649A6.947,6.947,0,0,1,40,57.92V57a1,1,0,0,0-2,0v.92A6.947,6.947,0,0,1,34.816,56.6l.649-.649a1,1,0,0,0-1.414-1.414l-.649.649A6.947,6.947,0,0,1,32.08,52H33a1,1,0,0,0,0-2h-.92A6.947,6.947,0,0,1,33.4,46.816l.649.649a1,1,0,0,0,1.414-1.414l-.649-.649A6.947,6.947,0,0,1,38,44.08V45a1,1,0,0,0,2,0v-.92A6.947,6.947,0,0,1,43.184,45.4l-.649.649A1,1,0,0,0,42.535,47.465Z"/><path d="M40.217,50.8l.678-1.356a1,1,0,0,0-1.79-.894l-1,2a1,1,0,0,0,.188,1.154l1,1a1,1,0,0,0,1.414-1.414Z"/><path d="M51.977,10.438a1,1,0,0,0-1.415-1.415l-.083.084A29.879,29.879,0,0,0,31,1.025V1a1,1,0,0,0-2,0v.025A29.879,29.879,0,0,0,9.521,9.107l-.083-.084a1,1,0,1,0-1.415,1.415l.084.083A29.878,29.878,0,0,0,0,31v1a2,2,0,0,0,2,2H6a2,2,0,0,0,2-2V31a21.913,21.913,0,0,1,5.761-14.825l.032.032a1,1,0,0,0,1.414-1.414l-.032-.032a21.914,21.914,0,0,1,13.83-5.736.994.994,0,0,0,1.987.014,21.992,21.992,0,0,1,13.823,5.732l-.022.022a1,1,0,1,0,1.414,1.414l.028-.028a21.918,21.918,0,0,1,3.986,6.2c-1.258.1-2.675.224-4.225.4A17.99,17.99,0,0,0,12,31a1,1,0,0,0,2,0,15.993,15.993,0,0,1,29.867-7.963A101.829,101.829,0,0,0,28.589,26.2l.006.023A4.986,4.986,0,0,0,30,36a4.917,4.917,0,0,0,1.405-.226l.006.022a101.831,101.831,0,0,0,14.561-5.613c.013.266.028.531.028.817a1,1,0,0,0,2,0,16.639,16.639,0,0,0-.1-1.75c1.4-.7,2.667-1.356,3.778-1.959A21.639,21.639,0,0,1,52,31v1a2,2,0,0,0,2,2h4a2,2,0,0,0,2-2V31a29.878,29.878,0,0,0-8.107-20.479ZM6,31v1H2V31A27.889,27.889,0,0,1,9.52,11.934l2.827,2.827A23.908,23.908,0,0,0,6,31Zm4.934-20.48A27.9,27.9,0,0,1,29,3.025v4a23.91,23.91,0,0,0-15.239,6.322ZM31,7.039V3.025A27.9,27.9,0,0,1,49.066,10.52L46.23,13.356A24,24,0,0,0,31,7.039Zm3.7,25.6a4.865,4.865,0,0,0-1.641-5.567,104.38,104.38,0,0,1,19.947-2.814A109.84,109.84,0,0,1,34.7,32.642ZM27,31a3,3,0,1,1,3,3A3,3,0,0,1,27,31Zm31,0v1H54V31a23.692,23.692,0,0,0-.485-4.726L54,26a2.03,2.03,0,0,0-1.113-3.789l-.572.031a23.889,23.889,0,0,0-4.671-7.471l2.832-2.832A27.889,27.889,0,0,1,58,31Z"/><path d="M28,42H18a1,1,0,0,0,0,2H28a1,1,0,0,0,0-2Z"/><path d="M14,42H13a1,1,0,0,0,0,2h1a1,1,0,0,0,0-2Z"/><path d="M15,48a1,1,0,0,0,1,1H26a1,1,0,0,0,0-2H16A1,1,0,0,0,15,48Z"/><path d="M11,47a1,1,0,0,0,0,2h1a1,1,0,0,0,0-2Z"/><path d="M22,59h6a1,1,0,0,0,0-2H22a1,1,0,0,0,0,2Z"/><path d="M17,57a1,1,0,0,0,0,2h1a1,1,0,0,0,0-2Z"/><path d="M27,53a1,1,0,0,0-1-1H18a1,1,0,0,0,0,2h8A1,1,0,0,0,27,53Z"/><path d="M14,52H13a1,1,0,0,0,0,2h1a1,1,0,0,0,0-2Z"/></svg>
