<?xml version="1.0" encoding="UTF-8"?>
<svg xmlns="http://www.w3.org/2000/svg" width="512" height="512" viewBox="0 0 128 128"><g><path d="M106.312,8H91.625V6.747A6.758,6.758,0,0,0,84.875,0H43.125a6.758,6.758,0,0,0-6.75,6.75V8H21.687a6.757,6.757,0,0,0-6.75,6.749v106.5a6.758,6.758,0,0,0,6.75,6.75h84.625a6.758,6.758,0,0,0,6.75-6.75V14.748A6.757,6.757,0,0,0,106.312,8Zm-4.75,14.5v94H26.437V22.5ZM80.125,19H47.875V11.5h32.25ZM39.875,6.747a3.254,3.254,0,0,1,3.25-3.25h41.75a3.254,3.254,0,0,1,3.25,3.25V19h-4.5V9.747A1.75,1.75,0,0,0,81.875,8H46.125a1.75,1.75,0,0,0-1.75,1.75V19h-4.5V6.747Zm69.687,114.5a3.254,3.254,0,0,1-3.25,3.25H21.687a3.254,3.254,0,0,1-3.25-3.25V14.748a3.254,3.254,0,0,1,3.25-3.25H36.375V19H24.687a1.751,1.751,0,0,0-1.75,1.75v97.5a1.751,1.751,0,0,0,1.75,1.75h78.625a1.75,1.75,0,0,0,1.75-1.75V20.752a1.75,1.75,0,0,0-1.75-1.75H91.625V11.5h14.687a3.254,3.254,0,0,1,3.25,3.25Z"/><path d="M32.687,93.44H42.6a1.751,1.751,0,0,0,1.75-1.75V81.4a1.751,1.751,0,0,0-1.75-1.75H32.687a1.751,1.751,0,0,0-1.75,1.75V91.69A1.751,1.751,0,0,0,32.687,93.44Zm1.75-10.291h6.412V89.94H34.437Z"/><path d="M32.687,112H42.6a1.751,1.751,0,0,0,1.75-1.75V99.957a1.75,1.75,0,0,0-1.75-1.75H32.687a1.75,1.75,0,0,0-1.75,1.75v10.29A1.751,1.751,0,0,0,32.687,112Zm1.75-10.29h6.412v6.79H34.437Z"/><path d="M50.432,44.44h8a1.751,1.751,0,0,0,1.75-1.75A3.818,3.818,0,1,1,64,46.508H60a1.75,1.75,0,0,0-1.75,1.75V58.819A1.749,1.749,0,0,0,60,60.569h8a1.749,1.749,0,0,0,1.75-1.75V56.891a15.319,15.319,0,1,0-21.068-14.2A1.75,1.75,0,0,0,50.432,44.44ZM64,30.872a11.819,11.819,0,0,1,3.483,23.113,1.749,1.749,0,0,0-1.233,1.672v1.412h-4.5V50.008H64a7.318,7.318,0,1,0-7.106-9.068H52.31A11.839,11.839,0,0,1,64,30.872Z"/><path d="M68,74.664a1.75,1.75,0,0,0,1.75-1.75V65.63A1.75,1.75,0,0,0,68,63.88H60a1.75,1.75,0,0,0-1.75,1.75v7.284A1.75,1.75,0,0,0,60,74.664ZM61.75,67.38h4.5v3.784h-4.5Z"/><path d="M49.25,82.625A1.75,1.75,0,0,0,51,84.375H95.312a1.75,1.75,0,1,0,0-3.5H51A1.75,1.75,0,0,0,49.25,82.625Z"/><path d="M51,92.214H86.375a1.75,1.75,0,0,0,0-3.5H51a1.75,1.75,0,0,0,0,3.5Z"/><path d="M95.312,99.432H51a1.75,1.75,0,0,0,0,3.5H95.312a1.75,1.75,0,0,0,0-3.5Z"/><path d="M86.375,107.271H51a1.75,1.75,0,0,0,0,3.5H86.375a1.75,1.75,0,0,0,0-3.5Z"/></g></svg>
