<?xml version="1.0" encoding="iso-8859-1"?>
<!-- Generator: Adobe Illustrator 19.0.0, SVG Export Plug-In . SVG Version: 6.00 Build 0)  -->
<svg xmlns="http://www.w3.org/2000/svg" xmlns:xlink="http://www.w3.org/1999/xlink" version="1.1" id="Layer_1" x="0px" y="0px" viewBox="0 0 512 512" style="enable-background:new 0 0 512 512;" xml:space="preserve" width="512" height="512">
<g id="XMLID_989_">
	<g id="XMLID_1276_">
		<path id="XMLID_1277_" d="M256,492c-2.63,0-5.21,1.069-7.07,2.93S246,499.37,246,502s1.069,5.21,2.93,7.069    c1.86,1.86,4.44,2.931,7.07,2.931s5.21-1.07,7.069-2.931C264.93,507.21,266,504.63,266,502s-1.07-5.21-2.931-7.07    C261.21,493.069,258.63,492,256,492z"/>
		<path id="XMLID_1351_" d="M302.394,367.548c10.97-11.511,17.726-27.072,17.726-44.191v-36.015c0-35.355-28.764-64.12-64.12-64.12    s-64.12,28.765-64.12,64.12v36.015c0,17.118,6.756,32.679,17.726,44.191C161.547,369.339,123,408.988,123,457.477V502    c0,5.522,4.478,10,10,10h83c5.522,0,10-4.478,10-10s-4.478-10-10-10h-73v-34.522c0-38.599,31.402-70,70-70h86    c38.598,0,70,31.401,70,70V492h-73c-5.522,0-10,4.478-10,10s4.478,10,10,10h83c5.522,0,10-4.478,10-10v-44.522    C389,408.988,350.453,369.339,302.394,367.548z M211.88,287.343c0-24.328,19.792-44.12,44.12-44.12s44.12,19.792,44.12,44.12    v36.015c0,24.328-19.792,44.12-44.12,44.12s-44.12-19.792-44.12-44.12V287.343z"/>
		<path id="XMLID_1370_" d="M509.072,152.629l-54.57-54.57c-2.86-2.86-7.161-3.713-10.898-2.168    c-3.736,1.548-6.173,5.194-6.173,9.239v20.929h-85.496c-5.522,0-10,4.478-10,10v112.274c0,5.522,4.478,10,10,10h47.748    c5.522,0,10-4.478,10-10v-54.526h27.748v20.463c0,4.045,2.437,7.691,6.173,9.239c3.737,1.546,8.038,0.692,10.898-2.168    l54.57-54.569c1.875-1.876,2.929-4.419,2.929-7.071S510.947,154.505,509.072,152.629z M457.43,190.128v-6.321    c0-5.522-4.478-10-10-10h-47.748c-5.522,0-10,4.478-10,10v54.526h-27.748v-92.274h85.496c5.522,0,10-4.478,10-10v-6.786    l30.428,30.428L457.43,190.128z"/>
		<path id="XMLID_1390_" d="M170.067,248.333V136.058c0-5.522-4.478-10-10-10H74.57V105.13c0-4.045-2.437-7.691-6.173-9.239    c-3.737-1.545-8.039-0.692-10.898,2.168l-54.569,54.57c-3.905,3.905-3.905,10.237,0,14.143l54.569,54.569    c2.859,2.86,7.161,3.714,10.898,2.168c3.736-1.548,6.173-5.194,6.173-9.239v-20.463h27.749v54.526c0,5.522,4.478,10,10,10h47.748    C165.589,258.333,170.067,253.855,170.067,248.333z M150.067,238.333h-27.748v-54.526c0-5.522-4.478-10-10-10H64.57    c-5.522,0-10,4.478-10,10v6.32L24.142,159.7l30.428-30.428v6.786c0,5.522,4.478,10,10,10h85.497V238.333z"/>
		<path id="XMLID_1391_" d="M279.87,118c-2.63,0-5.21,1.069-7.07,2.93s-2.92,4.44-2.92,7.07s1.06,5.21,2.92,7.069    c1.86,1.86,4.44,2.931,7.07,2.931c2.64,0,5.21-1.07,7.069-2.931c1.87-1.859,2.931-4.439,2.931-7.069s-1.061-5.21-2.931-7.07    C285.08,119.069,282.51,118,279.87,118z"/>
		<path id="XMLID_1395_" d="M201.311,74.689h20.815V183c0,5.522,4.478,10,10,10h47.748c5.522,0,10-4.478,10-10v-15    c0-5.522-4.478-10-10-10s-10,4.478-10,10v5h-27.748V64.689c0-5.522-4.478-10-10-10h-6.673L256,24.142l30.547,30.547h-6.673    c-5.522,0-10,4.478-10,10V88c0,5.522,4.478,10,10,10s10-4.478,10-10V74.689h20.815c4.045,0,7.691-2.437,9.239-6.173    c1.547-3.737,0.691-8.038-2.168-10.898L263.072,2.929c-3.906-3.904-10.236-3.904-14.143,0L194.24,57.618    c-2.859,2.86-3.715,7.161-2.168,10.898C193.619,72.253,197.266,74.689,201.311,74.689z"/>
	</g>
</g>















</svg>
