<svg id="Capa_1" enable-background="new 0 0 512.038 512.038" height="512" viewBox="0 0 512.038 512.038" width="512" xmlns="http://www.w3.org/2000/svg"><g><path d="m287.29 167.253c.021-4.143-3.321-7.517-7.463-7.537-.013 0-.025 0-.038 0-4.125 0-7.478 3.334-7.499 7.463l-.019 3.778c-5.307-4.085-11.769-6.398-18.961-6.398-17.689 0-35.987 15.304-35.987 40.913 0 23.357 15.819 42.36 35.263 42.36 8.453 0 16.106-3.563 22.048-9.562 1.18 2.389 2.728 4.589 4.612 6.483 4.182 4.203 9.57 6.518 15.173 6.518 16.214 0 26.481-11.288 30.685-21.852 6.524-16.404 7.697-30.226 3.803-44.814-.021-.077-.043-.155-.066-.232-5.895-19.532-19.084-35.525-37.137-45.033-18.051-9.507-38.705-11.331-58.16-5.137-18.435 5.868-33.772 18.52-43.186 35.624-9.417 17.109-11.893 36.834-6.973 55.541 4.262 16.204 13.463 30.184 26.61 40.426 12.658 9.862 28.425 15.537 44.396 15.979.071.002.141.003.211.003 4.045 0 7.38-3.223 7.494-7.293.114-4.141-3.149-7.59-7.29-7.704-26.702-.738-50.105-19.336-56.914-45.225-3.937-14.97-1.945-30.771 5.607-44.494 7.553-13.723 19.838-23.866 34.595-28.563 15.597-4.965 32.153-3.503 46.62 4.115 14.428 7.599 24.98 20.366 29.725 35.96 3.18 12.009 1.262 23.901-3.272 35.304-1.483 3.727-6.083 12.396-16.747 12.396-2.134 0-3.761-1.314-4.54-2.098-1.819-1.829-2.898-4.521-2.885-7.201zm-34.704 65.579c-9.745 0-20.263-10.461-20.263-27.36 0-16.221 10.67-25.913 20.987-25.913 10.785 0 18.401 10.019 18.797 24.512l-.013 2.742c-.572 14.483-9.102 26.019-19.508 26.019z"/><path d="m483.434 479.884c0-.003 0-.006 0-.009v-255.87c0-8.632-3.52-17.049-9.657-23.115-.008-.008-.015-.018-.023-.026-.004-.004-.009-.008-.014-.013-.014-.013-.026-.028-.04-.041l-29.478-28.931v-16.916c0-4.143-3.357-7.5-7.5-7.5s-7.5 3.357-7.5 7.5v79.758l-136.279 136.037-21.434-11.777c-9.697-5.331-21.28-5.332-30.98-.001l-21.434 11.778-136.279-136.037v-129.472c0-9.649 7.851-17.5 17.5-17.5h311.406c9.649 0 17.5 7.851 17.5 17.5v17.789c0 4.143 3.357 7.5 7.5 7.5s7.5-3.357 7.5-7.5v-17.789c0-17.921-14.579-32.5-32.5-32.5h-68.501l-65.387-64.176c-.071-.07-.144-.139-.218-.205-12.312-11.157-30.882-11.158-43.195 0-.074.066-.146.135-.217.205l-65.388 64.176h-68.501c-17.92 0-32.5 14.579-32.5 32.5v66.631l-29.478 28.931c-.012.012-.024.025-.036.038-.006.006-.012.01-.018.016-.011.011-.02.023-.03.033-6.132 6.066-9.65 14.48-9.65 23.107v85.586c0 4.143 3.358 7.5 7.5 7.5s7.5-3.357 7.5-7.5v-85.586c0-2.096.404-4.161 1.13-6.104l25.283 25.238 135.384 135.144-161.796 88.913v-124.919c0-4.143-3.358-7.5-7.5-7.5s-7.5 3.357-7.5 7.5v137.598.008c0 .04.002.079.003.119.069 17.676 14.467 32.036 32.16 32.036h276.896c4.143 0 7.5-3.357 7.5-7.5s-3.357-7.5-7.5-7.5h-276.896c-8.032 0-14.773-5.553-16.635-13.017l177.257-97.408 26.364-14.488c5.176-2.844 11.355-2.845 16.531.001l26.363 14.487 177.258 97.409c-1.862 7.463-8.604 13.016-16.635 13.016h-80.92c-4.143 0-7.5 3.357-7.5 7.5s3.357 7.5 7.5 7.5h80.921c17.692 0 32.091-14.36 32.16-32.036.001-.04.003-.079.003-.118zm-238.839-460.491c6.538-5.832 16.312-5.833 22.848 0l54.364 53.356h-131.576zm-176.779 200.354-13.563-13.539 13.563-13.311zm374.205 23.392 25.283-25.239c.726 1.943 1.13 4.009 1.13 6.105v243.19l-161.798-88.912zm15.764-36.931-13.563 13.539v-26.85z"/></g></svg>