<svg id="Capa_1" enable-background="new 0 0 512 512" height="512" viewBox="0 0 512 512" width="512" xmlns="http://www.w3.org/2000/svg"><g><path d="m88.743 184.371c-4.142 0-7.5 3.357-7.5 7.5v128.15c0 3.653 2.632 6.774 6.232 7.392.521.089 1.277.219 15.188.219 6.752 0 16.605-.03 31.034-.111 4.142-.023 7.481-3.4 7.458-7.542-.023-4.128-3.376-7.458-7.499-7.458-.014 0-.029 0-.043 0-11.374.064-28.026.125-37.37.103v-120.753c0-4.142-3.358-7.5-7.5-7.5z"/><path d="m173.431 191.871v128.258c0 4.143 3.358 7.5 7.5 7.5s7.5-3.357 7.5-7.5v-128.258c0-4.143-3.358-7.5-7.5-7.5s-7.5 3.358-7.5 7.5z"/><path d="m425.261 199.957c4.142 0 7.5-3.358 7.5-7.5s-3.358-7.5-7.5-7.5h-53.549c-4.142 0-7.5 3.358-7.5 7.5v127.087c0 4.142 3.358 7.5 7.5 7.5h53.549c4.142 0 7.5-3.358 7.5-7.5s-3.358-7.5-7.5-7.5h-46.049v-48.544h42.101c4.142 0 7.5-3.358 7.5-7.5s-3.358-7.5-7.5-7.5h-42.101v-48.543z"/><path d="m313.472 189.742-37.596 113.172-39.398-113.503c-1.358-3.913-5.633-5.984-9.545-4.625-3.913 1.358-5.984 5.631-4.626 9.544l43.87 126.383c1.472 4.145 5.402 6.916 9.795 6.916h.071c4.421-.03 8.348-2.863 9.788-7.099l41.878-126.059c1.306-3.931-.822-8.176-4.753-9.482-3.934-1.306-8.178.823-9.484 4.753z"/><path d="m481.215 128.258h-24.812c-4.142 0-7.5 3.358-7.5 7.5 0 4.143 3.358 7.5 7.5 7.5h24.812c8.704 0 15.785 7.081 15.785 15.785v193.914c0 8.704-7.081 15.785-15.785 15.785h-393.554c-4.142 0-7.5 3.357-7.5 7.5 0 4.142 3.358 7.5 7.5 7.5h393.555c16.975 0 30.785-13.811 30.785-30.785v-193.914c-.001-16.975-13.811-30.785-30.786-30.785z"/><path d="m55.597 368.742h-24.812c-8.704 0-15.785-7.081-15.785-15.785v-193.914c0-8.704 7.081-15.785 15.785-15.785h393.555c4.142 0 7.5-3.357 7.5-7.5 0-4.142-3.358-7.5-7.5-7.5h-393.555c-16.975 0-30.785 13.81-30.785 30.785v193.914c0 16.975 13.81 30.785 30.785 30.785h24.812c4.142 0 7.5-3.358 7.5-7.5s-3.358-7.5-7.5-7.5z"/><path d="m151.8 67.289c3.445 2.3 8.102 1.374 10.402-2.07 21.006-31.446 56.07-50.219 93.798-50.219s72.792 18.773 93.797 50.219c1.446 2.164 3.822 3.334 6.243 3.334 1.432 0 2.879-.409 4.159-1.264 3.444-2.301 4.372-6.958 2.07-10.402-23.793-35.621-63.52-56.887-106.269-56.887s-82.476 21.266-106.27 56.887c-2.301 3.444-1.374 8.101 2.07 10.402z"/><path d="m316.453 87.448c1.446 2.165 3.822 3.335 6.243 3.335 1.432 0 2.879-.409 4.159-1.264 3.444-2.301 4.372-6.958 2.07-10.403-16.327-24.443-43.589-39.035-72.925-39.035s-56.598 14.593-72.926 39.036c-2.301 3.444-1.374 8.102 2.07 10.403 3.444 2.3 8.102 1.374 10.402-2.071 13.54-20.268 36.139-32.368 60.454-32.368s46.914 12.1 60.453 32.367z"/><path d="m256 80.161c-15.916 0-30.71 7.922-39.573 21.191-2.301 3.444-1.374 8.102 2.071 10.402s8.102 1.373 10.402-2.071c6.074-9.093 16.204-14.522 27.099-14.522s21.025 5.429 27.099 14.522c1.446 2.165 3.822 3.335 6.244 3.335 1.432 0 2.879-.409 4.159-1.264 3.445-2.301 4.372-6.958 2.071-10.402-8.862-13.269-23.656-21.191-39.572-21.191z"/><path d="m360.2 444.711c-3.444-2.3-8.102-1.374-10.402 2.07-21.006 31.446-56.07 50.219-93.798 50.219s-72.792-18.773-93.797-50.219c-2.3-3.444-6.958-4.371-10.402-2.07s-4.372 6.958-2.07 10.402c23.793 35.621 63.52 56.887 106.269 56.887s82.476-21.266 106.27-56.887c2.301-3.444 1.374-8.101-2.07-10.402z"/><path d="m195.547 424.552c-2.301-3.444-6.958-4.372-10.402-2.071s-4.372 6.958-2.07 10.403c16.328 24.443 43.589 39.036 72.926 39.036s56.598-14.593 72.926-39.036c2.301-3.444 1.374-8.102-2.07-10.403-3.444-2.3-8.102-1.374-10.402 2.071-13.539 20.268-36.138 32.368-60.453 32.368s-46.916-12.101-60.455-32.368z"/><path d="m256 431.839c15.916 0 30.71-7.922 39.573-21.191 2.301-3.444 1.374-8.102-2.071-10.402-3.444-2.301-8.102-1.373-10.402 2.071-6.074 9.093-16.204 14.522-27.099 14.522s-21.025-5.429-27.099-14.522c-2.301-3.445-6.959-4.372-10.402-2.071-3.445 2.301-4.372 6.958-2.071 10.402 8.861 13.269 23.655 21.191 39.571 21.191z"/></g></svg>