<svg id="Layer_5" enable-background="new 0 0 64 64" height="512" viewBox="0 0 64 64" width="512" xmlns="http://www.w3.org/2000/svg"><path d="m39 59c2.392 0 4.639-1.058 6.165-2.902l.438-.529-.338-.599c-.175-.314-.265-.64-.265-.97 0-.834.534-1.587 1.328-1.872l.617-.301.047-.649c.005-.059.008-.118.008-.178 0-4.411-3.589-8-8-8s-8 3.589-8 8 3.589 8 8 8zm5.979-8.439c-1.208.708-1.979 2.013-1.979 3.439 0 .434.072.858.215 1.27-1.119 1.106-2.625 1.73-4.215 1.73-3.309 0-6-2.691-6-6 0-.787.156-1.537.433-2.227.656 1.314 2.001 2.227 3.567 2.227 2.206 0 4-1.794 4-4 0-.637-.159-1.244-.435-1.788 2.405.653 4.217 2.765 4.414 5.349zm-5.979-3.561c0 1.103-.897 2-2 2s-2-.897-2-2c0-.179.036-.36.088-.54.737-.636 1.629-1.096 2.612-1.315.772.291 1.3 1.024 1.3 1.855z"/><path d="m62.156 48.595-.186-.192c-.944-.928-1.939-1.784-2.971-2.582v-26.821h-6v23.129c-.656-.311-1.324-.595-2-.861v-18.268h-6v16.553c-.661-.122-1.329-.221-2-.303v-12.25h-6v12.067c-5.76.346-11.247 2.174-16 5.31v-5.377c0-2.757-2.243-5-5-5h-2v-11h5.941c1.549 0 3.075-.523 4.298-1.474l6.338-4.93c.752-.585 1.217-1.423 1.359-2.346l5.065.633v2.117h8c0 1.103.897 2 2 2h2c1.103 0 2-.897 2-2v-14c0-1.103-.897-2-2-2h-2c-1.103 0-2 .897-2 2h-8v2.117l-16 2v5.766l1.563.195-3.63 2.723c-.171.128-.384.199-.6.199h-2.444c1.301-1.272 2.111-3.042 2.111-5 0-3.86-3.141-7-7-7s-7 3.14-7 7c0 2.069.907 3.925 2.339 5.208-3.059.748-5.339 3.505-5.339 6.792v14 22c0 2.206 1.794 4 4 4s4-1.794 4-4v-17h4l-.001 5.998c-.001 1.454.81 2.775 2.041 3.475.088.702.359 1.376.803 1.932l.186.192c6.165 6.064 14.324 9.403 22.971 9.403s16.806-3.339 22.97-9.401l.187-.193c.543-.681.843-1.536.843-2.406s-.3-1.725-.844-2.405zm-15.156-45.595h2l.001 14h-2.001zm8 18h2v23.378c-.652-.43-1.322-.827-2-1.208zm-8 4h2v15.558c-.66-.211-1.326-.408-2-.576zm2 26c0 5.514-4.486 10-10 10s-10-4.486-10-10 4.486-10 10-10 10 4.486 10 10zm-10-22h2v10.067c-.664-.04-1.33-.067-2-.067zm0-24h6v10h-6zm-16 6.117v-2.234l14-1.75v5.735l-5.317-.665c-.573-1.295-1.865-2.203-3.37-2.203h-.418c-.792 0-1.577.262-2.212.737l-.818.613zm-17-.117c0-2.757 2.243-5 5-5s5 2.243 5 5-2.243 5-5 5-5-2.243-5-5zm1 48c0 1.103-.897 2-2 2s-2-.897-2-2v-18.026c.838.635 1.87 1.026 3 1.026h1zm6-19h-7c-1.654 0-3-1.346-3-3v-14c0-2.757 2.243-5 5-5h10.333c.646 0 1.285-.213 1.8-.6l6.75-5.062c.291-.218.65-.338 1.013-.338h.418c.929 0 1.686.756 1.686 1.686 0 .524-.237 1.009-.651 1.331l-6.338 4.93c-.873.679-1.963 1.053-3.07 1.053h-7.941v15h4c1.654 0 3 1.346 3 3v6.82c-1.031.798-2.026 1.654-2.97 2.582l-.187.193c-.159.199-.29.415-.406.639-.273-.346-.44-.775-.439-1.235l.002-5.999c0-1.103-.897-2-2-2zm4.431 12.171-.058-.057c-.241-.32-.373-.714-.373-1.114s.132-.794.373-1.114l.059-.058c3.847-3.783 8.523-6.429 13.608-7.783-2.472 2.199-4.04 5.394-4.04 8.955s1.568 6.755 4.04 8.955c-5.086-1.355-9.762-4.001-13.609-7.784zm43.196-.057-.059.058c-3.847 3.783-8.523 6.429-13.608 7.783 2.472-2.199 4.04-5.394 4.04-8.955s-1.568-6.756-4.04-8.955c5.085 1.355 9.761 4.001 13.609 7.784l.058.057c.241.32.373.714.373 1.114s-.132.794-.373 1.114z"/></svg>