<svg height="512pt" viewBox="0 0 512 512" width="512pt" xmlns="http://www.w3.org/2000/svg"><path d="m503.835938 246.179688c-1.109376-1.28125-27.6875-31.738282-71.238282-62.441407-58.222656-41.042969-119.289062-62.738281-176.597656-62.738281s-118.375 21.695312-176.597656 62.738281c-43.550782 30.703125-70.128906 61.160157-71.238282 62.441407l-8.164062 9.820312 8.164062 9.820312c1.109376 1.28125 27.6875 31.738282 71.238282 62.441407 58.222656 41.042969 119.289062 62.738281 176.597656 62.738281s118.375-21.695312 176.597656-62.738281c43.550782-30.703125 70.128906-61.160157 71.238282-62.441407l8.164062-9.820312zm-142.835938 9.820312c0 56.90625-45.507812 103.382812-102.039062 104.957031-.988282.011719-1.972657.042969-2.960938.042969s-1.972656-.03125-2.960938-.042969c-56.53125-1.574219-102.039062-48.050781-102.039062-104.957031 0-57.890625 47.101562-105 105-105 57.851562 0 105 47.0625 105 105zm-320.871094 0c10.890625-10.992188 30.847656-29.6875 57.179688-48.175781 13.378906-9.394531 29.46875-19.4375 47.597656-28.433594-15.066406 21.78125-23.90625 48.179687-23.90625 76.609375s8.839844 54.828125 23.90625 76.605469c-18.128906-8.992188-34.21875-19.035157-47.597656-28.429688-26.335938-18.492187-46.289063-37.1875-57.179688-48.175781zm374.5625 48.175781c-13.378906 9.394531-29.46875 19.4375-47.597656 28.429688 15.066406-21.777344 23.90625-48.175781 23.90625-76.605469s-8.839844-54.828125-23.90625-76.605469c18.128906 8.992188 34.21875 19.035157 47.597656 28.429688 26.332032 18.488281 46.289063 37.183593 57.179688 48.175781-10.890625 10.992188-30.847656 29.6875-57.179688 48.175781zm0 0"/><path d="m181 256c0 41.355469 33.644531 75 75 75s75-33.644531 75-75-33.644531-75-75-75-75 33.644531-75 75zm120 0c0 24.8125-20.1875 45-45 45s-45-20.1875-45-45 20.1875-45 45-45 45 20.1875 45 45zm0 0"/><path d="m256.007812 277.214844-21.210937-21.210938 21.210937-21.214844 21.214844 21.214844zm0 0"/><path d="m241 0h30v60h-30zm0 0"/><path d="m241 452h30v60h-30zm0 0"/><path d="m86.292969 65.082031 42.429687 42.425781-21.214844 21.210938-42.425781-42.425781zm0 0"/><path d="m425.703125 446.925781-42.425781-42.425781 21.214844-21.214844 42.425781 42.425782zm0 0"/><path d="m425.707031 65.078125 21.210938 21.210937-42.425781 42.425782-21.210938-21.210938zm0 0"/><path d="m86.289062 446.921875-21.210937-21.214844 42.425781-42.425781 21.210938 21.214844zm0 0"/></svg>