<svg viewBox="0 0 512 512" xmlns="http://www.w3.org/2000/svg"><path d="m50.097656 120.628906v391.371094h355.695313v-455.890625h-291.175781zm60.117188-38.863281v34.460937h-34.460938zm280.546875 415.203125h-325.632813v-365.710938h60.117188v-60.117187h265.515625zm0 0"/><path d="m15.03125 75.148438h60.117188v-60.117188h265.515624v23.542969h15.03125v-38.574219h-291.175781l-64.519531 64.519531v391.371094h32.5625v-15.03125h-17.53125zm10.625-15.03125 34.460938-34.460938v34.460938zm0 0"/><path d="m456.890625 110.214844v40.078125h-30.058594v107.710937h15.03125v-92.679687h15.027344v204.890625l27.554687 48.21875 27.554688-48.21875v-260zm15.03125 15.03125h25.046875v25.046875h-25.046875zm12.523437 262.894531-12.523437-21.917969v-200.898437h25.046875v200.898437zm0 0"/><path d="m220.429688 161.316406v25.046875h-100.195313v40.078125h-30.058594v55.109375h15.03125v140.273438h35.066407v20.039062h55.109374v-55.109375h-55.109374v20.039063h-20.039063v-65.125h20.039063v20.039062h55.109374v-55.109375h-55.109374v20.039063h-20.039063v-45.085938h45.089844v-55.109375h-30.058594v-25.046875h85.164063v25.046875h-30.058594v55.109375h25.050781v60.117188h36.117187c2.601563 9.160156 9.828126 16.386719 18.988282 18.988281v26.097656h-45.085938v55.109375h105.203125v-55.109375h-45.085937v-26.097656c9.160156-2.601562 16.386718-9.828125 18.988281-18.988281h36.117187v-60.117188h25.050782v-55.109375h-30.058594v-40.078125h-100.195312v-25.046875h45.085937v-55.109375h-105.203125v55.109375zm-65.125 240.46875h25.046874v25.046875h-25.046874zm0-80.15625h25.046874v25.046875h-25.046874zm-5.011719-55.109375h-45.085938v-25.046875h45.085938zm165.324219 160.3125h-75.148438v-25.046875h75.148438zm-110.214844-185.359375h45.085937v25.046875h-45.085937zm72.640625 105.203125c-6.90625 0-12.523438-5.617187-12.523438-12.523437s5.617188-12.523438 12.523438-12.523438 12.523437 5.617188 12.523437 12.523438-5.617187 12.523437-12.523437 12.523437zm72.640625-80.15625h-45.085938v-25.046875h45.085938zm-30.058594-65.125v25.046875h-30.058594v55.109375h35.070313v45.085938h-21.089844c-3.28125-11.550781-13.917969-20.039063-26.503906-20.039063-12.585938 0-23.222657 8.488282-26.503907 20.039063h-21.089843v-45.085938h35.070312v-55.109375h-30.058593v-25.046875zm-130.253906-80.15625h75.148437v25.046875h-75.148437zm0 0"/><path d="m288.0625 466.910156h15.03125v15.03125h-15.03125zm0 0"/><path d="m182.855469 466.910156h90.179687v15.03125h-90.179687zm0 0"/><path d="m318.121094 466.910156h15.03125v15.03125h-15.03125zm0 0"/><path d="m152.796875 466.910156h15.03125v15.03125h-15.03125zm0 0"/><path d="m122.738281 466.910156h15.03125v15.03125h-15.03125zm0 0"/><path d="m360.703125 123.742188h15.03125v-37.574219h-37.574219v15.03125h22.542969zm0 0"/></svg>