<?xml version="1.0" standalone="no"?>
<!DOCTYPE svg PUBLIC "-//W3C//DTD SVG 20010904//EN"
 "http://www.w3.org/TR/2001/REC-SVG-20010904/DTD/svg10.dtd">
<svg version="1.0" xmlns="http://www.w3.org/2000/svg"
 width="683.000000pt" height="469.000000pt" viewBox="0 0 683.000000 469.000000"
 preserveAspectRatio="xMidYMid meet">

<g transform="translate(0.000000,469.000000) scale(0.100000,-0.100000)"
fill="#000000" stroke="none">
<path d="M1170 4641 c0 -6 4 -13 10 -16 6 -3 7 1 4 9 -7 18 -14 21 -14 7z"/>
<path d="M2410 4646 c0 -2 11 -6 25 -8 13 -3 22 -1 19 3 -5 9 -44 13 -44 5z"/>
<path d="M3676 4641 c-4 -5 3 -7 14 -4 23 6 26 13 6 13 -8 0 -17 -4 -20 -9z"/>
<path d="M4938 4643 c7 -3 16 -2 19 1 4 3 -2 6 -13 5 -11 0 -14 -3 -6 -6z"/>
<path d="M6190 4605 c0 -43 1 -45 28 -44 23 2 24 2 5 6 -13 2 -23 11 -23 18 0
7 10 16 23 18 l22 4 -22 2 c-13 0 -23 7 -23 15 0 8 10 17 23 19 19 4 18 4 -5
6 -27 1 -28 -1 -28 -44z"/>
<path d="M2430 4610 c-23 -7 -23 -8 -3 -9 12 -1 25 4 28 9 3 6 5 10 3 9 -2 -1
-14 -5 -28 -9z"/>
<path d="M4981 4604 c0 -11 3 -14 6 -6 3 7 2 16 -1 19 -3 4 -6 -2 -5 -13z"/>
<path d="M1150 4589 c0 -4 13 -9 29 -11 18 -3 27 0 25 6 -4 12 -54 16 -54 5z"/>
<path d="M3678 4568 c5 -5 16 -8 23 -6 8 3 3 7 -10 11 -17 4 -21 3 -13 -5z"/>
<path d="M2418 4563 c6 -2 18 -2 25 0 6 3 1 5 -13 5 -14 0 -19 -2 -12 -5z"/>
<path d="M4938 4563 c7 -3 16 -2 19 1 4 3 -2 6 -13 5 -11 0 -14 -3 -6 -6z"/>
<path d="M1802 4333 l-2 -123 -627 -3 -628 -2 628 -3 627 -2 0 -120 0 -120
-627 -3 -628 -2 628 -3 627 -2 0 -120 0 -120 -627 -3 -628 -2 628 -3 627 -2 0
-120 0 -120 -627 -3 -628 -2 628 -3 627 -2 0 -120 0 -120 -627 -3 -628 -2 628
-3 627 -2 0 -120 0 -120 -627 -3 -628 -2 628 -3 627 -2 0 -120 0 -120 -627 -3
-628 -2 628 -3 627 -2 0 -120 0 -120 -627 -3 -628 -2 628 -3 627 -2 0 -120 0
-120 -627 -3 -628 -2 628 -3 627 -2 0 -120 0 -120 -627 -3 -628 -2 628 -3 627
-2 0 -120 0 -120 -627 -3 -628 -2 628 -3 627 -2 0 -120 0 -120 -627 -3 -628
-2 628 -3 627 -2 0 -120 0 -120 -627 -3 -628 -2 628 -3 627 -2 0 -120 0 -120
-627 -3 -628 -2 628 -3 627 -2 0 -120 0 -120 -627 -3 -628 -2 628 -3 627 -2 0
-120 0 -120 -627 -3 -628 -2 628 -3 627 -2 0 -120 0 -120 -627 -3 -628 -2 627
-3 627 -2 4 -102 3 -103 2 103 2 102 625 0 624 0 4 -102 3 -103 2 103 2 102
625 0 624 0 4 -102 3 -103 2 103 2 102 625 0 624 0 4 -102 3 -103 2 102 2 103
623 3 622 2 -622 3 -623 2 0 120 0 120 623 3 622 2 -622 3 -623 2 0 120 0 120
623 3 622 2 -622 3 -623 2 0 120 0 120 623 3 622 2 -622 3 -623 2 0 120 0 120
623 3 622 2 -622 3 -623 2 0 120 0 120 623 3 622 2 -622 3 -623 2 0 120 0 120
623 3 622 2 -622 3 -623 2 0 120 0 120 623 3 622 2 -622 3 -623 2 0 120 0 120
623 3 622 2 -622 3 -623 2 0 120 0 120 623 3 622 2 -622 3 -623 2 0 120 0 120
623 3 622 2 -622 3 -623 2 0 120 0 120 623 3 622 2 -622 3 -623 2 0 120 0 120
623 3 622 2 -622 3 -623 2 0 120 0 120 623 3 622 2 -622 3 -623 2 0 120 0 120
623 3 622 2 -622 3 -623 2 0 120 0 120 595 0 c390 0 595 3 595 10 0 7 -205 10
-595 10 l-595 0 0 115 0 115 620 0 c407 0 620 3 620 10 0 7 -213 10 -620 10
l-620 0 -2 118 -2 117 -6 -120 -5 -120 -622 -3 -622 -2 -4 122 -3 123 -2 -122
-2 -123 -625 0 -624 0 -4 123 -3 122 -2 -122 -2 -123 -625 0 -624 0 -4 123 -3
122 -2 -122z m1258 -253 l0 -120 -625 0 -625 0 0 120 0 120 625 0 625 0 0
-120z m1260 0 l0 -120 -625 0 -625 0 0 120 0 120 625 0 625 0 0 -120z m1250 0
l0 -120 -620 0 -620 0 0 120 0 120 620 0 620 0 0 -120z m-2510 -250 l0 -120
-625 0 -625 0 0 120 0 120 625 0 625 0 0 -120z m1260 0 l0 -120 -625 0 -625 0
0 120 0 120 625 0 625 0 0 -120z m1260 0 l0 -120 -625 0 -625 0 0 120 0 120
625 0 625 0 0 -120z m-2520 -250 l0 -120 -625 0 -625 0 0 120 0 120 625 0 625
0 0 -120z m1260 0 l0 -120 -625 0 -625 0 0 120 0 120 625 0 625 0 0 -120z
m1260 0 l0 -120 -625 0 -625 0 0 120 0 120 625 0 625 0 0 -120z m-2520 -250
l0 -120 -625 0 -625 0 0 120 0 120 625 0 625 0 0 -120z m1260 0 l0 -120 -625
0 -625 0 0 120 0 120 625 0 625 0 0 -120z m1260 0 l0 -120 -625 0 -625 0 0
120 0 120 625 0 625 0 0 -120z m-2520 -250 l0 -120 -625 0 -625 0 0 120 0 120
625 0 625 0 0 -120z m1260 0 l0 -120 -625 0 -625 0 0 120 0 120 625 0 625 0 0
-120z m1260 0 l0 -120 -625 0 -625 0 0 120 0 120 625 0 625 0 0 -120z m-2520
-250 l0 -120 -625 0 -625 0 0 120 0 120 625 0 625 0 0 -120z m1260 0 l0 -120
-625 0 -625 0 0 120 0 120 625 0 625 0 0 -120z m1260 0 l0 -120 -625 0 -625 0
0 120 0 120 625 0 625 0 0 -120z m-2520 -250 l0 -120 -625 0 -625 0 0 120 0
120 625 0 625 0 0 -120z m1260 0 l0 -120 -625 0 -625 0 0 120 0 120 625 0 625
0 0 -120z m1260 0 l0 -120 -625 0 -625 0 0 120 0 120 625 0 625 0 0 -120z
m-2520 -250 l0 -120 -625 0 -625 0 0 120 0 120 625 0 625 0 0 -120z m1260 0
l0 -120 -625 0 -625 0 0 120 0 120 625 0 625 0 0 -120z m1260 0 l0 -120 -625
0 -625 0 0 120 0 120 625 0 625 0 0 -120z m-2520 -250 l0 -120 -625 0 -625 0
0 120 0 120 625 0 625 0 0 -120z m1260 0 l0 -120 -625 0 -625 0 0 120 0 120
625 0 625 0 0 -120z m1260 0 l0 -120 -625 0 -625 0 0 120 0 120 625 0 625 0 0
-120z m-2520 -250 l0 -120 -625 0 -625 0 0 120 0 120 625 0 625 0 0 -120z
m1260 0 l0 -120 -625 0 -625 0 0 120 0 120 625 0 625 0 0 -120z m1260 0 l0
-120 -625 0 -625 0 0 120 0 120 625 0 625 0 0 -120z m-2520 -250 l0 -120 -625
0 -625 0 0 120 0 120 625 0 625 0 0 -120z m1260 0 l0 -120 -625 0 -625 0 0
120 0 120 625 0 625 0 0 -120z m1260 0 l0 -120 -625 0 -625 0 0 120 0 120 625
0 625 0 0 -120z m-2520 -250 l0 -120 -625 0 -625 0 0 120 0 120 625 0 625 0 0
-120z m1260 0 l0 -120 -625 0 -625 0 0 120 0 120 625 0 625 0 0 -120z m1260 0
l0 -120 -625 0 -625 0 0 120 0 120 625 0 625 0 0 -120z m-2520 -250 l0 -120
-625 0 -625 0 0 120 0 120 625 0 625 0 0 -120z m1260 0 l0 -120 -625 0 -625 0
0 120 0 120 625 0 625 0 0 -120z m1260 0 l0 -120 -625 0 -625 0 0 120 0 120
625 0 625 0 0 -120z m-2520 -250 l0 -120 -625 0 -625 0 0 120 0 120 625 0 625
0 0 -120z m1260 0 l0 -120 -625 0 -625 0 0 120 0 120 625 0 625 0 0 -120z
m1260 0 l0 -120 -625 0 -625 0 0 120 0 120 625 0 625 0 0 -120z m-2520 -250
l0 -120 -625 0 -625 0 0 120 0 120 625 0 625 0 0 -120z m1260 0 l0 -120 -625
0 -625 0 0 120 0 120 625 0 625 0 0 -120z m1260 0 l0 -120 -625 0 -625 0 0
120 0 120 625 0 625 0 0 -120z m-2520 -250 l0 -120 -625 0 -625 0 0 120 0 120
625 0 625 0 0 -120z m1260 0 l0 -120 -625 0 -625 0 0 120 0 120 625 0 625 0 0
-120z m1260 0 l0 -120 -625 0 -625 0 0 120 0 120 625 0 625 0 0 -120z"/>
<path d="M2273 4133 c-7 -2 -13 -9 -13 -15 0 -6 6 -6 15 2 17 14 45 7 45 -13
0 -7 -13 -26 -30 -42 -39 -38 -38 -45 8 -44 30 2 32 3 9 6 l-28 4 26 30 c29
35 32 64 9 73 -18 7 -23 7 -41 -1z"/>
<path d="M2359 4116 c-18 -39 0 -91 31 -91 18 0 27 8 34 28 22 62 -39 121 -65
63z m52 7 c0 -5 2 -17 5 -28 11 -54 -23 -87 -46 -44 -16 29 -3 79 21 79 10 0
19 -3 20 -7z"/>
<path d="M2468 4097 l-27 -42 24 -3 c15 -2 25 -10 26 -20 0 -14 2 -14 6 -2 3
8 11 18 17 22 8 6 8 8 0 8 -7 0 -12 16 -12 36 0 19 -2 37 -4 39 -2 2 -16 -15
-30 -38z m22 -12 c0 -16 -6 -25 -15 -25 -18 0 -19 4 -3 30 16 26 18 25 18 -5z"/>
<path d="M2552 4128 c-7 -7 -12 -29 -12 -49 0 -73 62 -78 68 -5 5 54 -26 84
-56 54z m43 -48 c0 -38 -3 -45 -20 -45 -15 0 -21 8 -23 33 -4 45 4 64 25 60
14 -3 18 -13 18 -48z"/>
<path d="M3575 4129 c-4 -6 -4 -13 -1 -16 3 -4 6 -1 6 5 0 7 9 12 20 12 28 0
26 -43 -3 -67 -43 -34 -42 -43 5 -41 37 1 39 2 10 5 l-33 4 31 35 c25 29 28
39 20 54 -11 21 -45 27 -55 9z"/>
<path d="M3672 4128 c-7 -7 -12 -29 -12 -49 0 -73 62 -78 68 -5 5 54 -26 84
-56 54z m43 -48 c0 -38 -3 -45 -20 -45 -15 0 -21 8 -23 33 -4 45 4 64 25 60
14 -3 18 -13 18 -48z"/>
<path d="M3777 4133 c32 -4 33 -5 19 -31 -7 -15 -16 -40 -19 -57 -7 -34 -11
-40 34 58 l17 37 -41 -2 c-37 -1 -38 -2 -10 -5z"/>
<path d="M4855 4120 c-16 -18 -16 -20 -3 -15 14 6 17 -2 21 -42 3 -44 4 -43 5
15 1 34 0 62 -1 62 -2 0 -12 -9 -22 -20z"/>
<path d="M4932 4128 c-26 -26 0 -77 33 -64 9 3 15 0 15 -10 0 -20 -27 -29 -45
-14 -13 11 -14 10 -9 -4 7 -19 35 -21 52 -4 27 27 9 108 -23 108 -6 0 -16 -5
-23 -12z m43 -28 c0 -29 -32 -41 -41 -16 -9 24 4 48 23 44 12 -2 18 -12 18
-28z"/>
<path d="M5027 4134 c-17 -17 -5 -43 24 -53 36 -12 37 -44 1 -49 -21 -3 -27 6
-22 38 1 12 -1 13 -11 2 -10 -9 -11 -17 -3 -30 24 -38 86 -15 69 25 -4 10 -8
29 -9 43 -1 25 -33 40 -49 24z m43 -25 c0 -25 -33 -22 -38 4 -2 12 3 17 17 17
15 0 21 -6 21 -21z"/>
<path d="M2273 3883 c-7 -2 -13 -9 -13 -15 0 -6 6 -6 15 2 17 14 45 7 45 -13
0 -7 -13 -26 -30 -42 -39 -38 -38 -45 8 -44 30 2 32 3 9 6 l-28 4 26 30 c29
35 32 64 9 73 -18 7 -23 7 -41 -1z"/>
<path d="M2462 3878 c-7 -7 -12 -31 -12 -54 0 -35 4 -44 22 -50 39 -12 63 49
38 97 -12 22 -30 25 -48 7z m44 -23 c9 -38 -3 -77 -24 -73 -17 3 -29 56 -18
84 9 23 35 16 42 -11z"/>
<path d="M2550 3873 c0 -12 3 -14 8 -7 4 7 18 14 32 17 21 4 20 4 -7 6 -25 1
-33 -3 -33 -16z"/>
<path d="M2374 3864 c-16 -13 -16 -15 -1 -10 14 5 17 -1 17 -41 0 -62 13 -47
14 17 1 55 -1 57 -30 34z"/>
<path d="M2540 3841 c0 -6 12 -9 27 -8 22 2 29 -3 31 -21 4 -27 -22 -40 -43
-22 -9 8 -15 8 -15 2 0 -14 33 -24 54 -16 21 8 21 60 0 68 -24 9 -54 7 -54 -3z"/>
<path d="M3575 3879 c-4 -6 -4 -13 -1 -16 3 -4 6 -1 6 5 0 7 9 12 20 12 31 0
25 -39 -12 -77 l-32 -33 45 2 c37 1 39 2 11 5 l-33 4 31 35 c25 29 28 39 20
54 -11 21 -45 27 -55 9z"/>
<path d="M3685 3870 c-16 -18 -16 -20 -3 -15 14 6 17 -2 21 -42 3 -44 4 -43 5
15 1 34 0 62 -1 62 -2 0 -12 -9 -22 -20z"/>
<path d="M3765 3880 c-4 -6 -4 -14 -1 -17 3 -4 6 -1 6 5 0 15 27 15 36 0 4 -6
-1 -17 -11 -25 -16 -11 -17 -13 -3 -13 21 0 30 -14 22 -34 -7 -19 -35 -21 -54
-3 -12 10 -12 9 -1 -5 26 -35 82 -9 66 29 -4 10 -8 29 -9 43 -1 18 -7 26 -23
28 -11 2 -24 -2 -28 -8z"/>
<path d="M4854 3869 c-13 -14 -14 -19 -4 -17 10 2 15 -9 17 -36 6 -63 13 -55
13 12 0 34 -2 62 -3 62 -2 0 -12 -9 -23 -21z"/>
<path d="M4932 3878 c-26 -26 0 -77 33 -64 9 3 15 0 15 -10 0 -20 -27 -29 -45
-14 -13 11 -14 10 -9 -4 7 -19 35 -21 52 -4 27 27 9 108 -23 108 -6 0 -16 -5
-23 -12z m43 -28 c0 -29 -32 -41 -41 -16 -9 24 4 48 23 44 12 -2 18 -12 18
-28z"/>
<path d="M5037 3883 c32 -4 33 -5 19 -31 -7 -15 -16 -40 -19 -57 -7 -34 -11
-40 34 58 l17 37 -41 -2 c-37 -1 -38 -2 -10 -5z"/>
<path d="M2285 3620 c-16 -18 -16 -20 -3 -15 14 6 17 -2 21 -42 3 -44 4 -43 5
15 1 34 0 62 -1 62 -2 0 -12 -9 -22 -20z"/>
<path d="M2360 3620 c-13 -25 3 -60 28 -59 14 0 14 2 2 6 -8 3 -18 10 -21 16
-11 16 3 47 21 47 20 0 32 -23 24 -44 -3 -8 -1 -17 5 -21 14 -8 14 30 1 56
-14 25 -46 24 -60 -1z"/>
<path d="M2463 3633 c-18 -7 -27 -67 -13 -93 13 -25 47 -24 64 3 16 25 -5 52
-38 50 -23 -2 -25 1 -16 18 12 22 30 24 50 7 12 -11 12 -10 1 5 -13 17 -25 20
-48 10z m42 -73 c0 -16 -6 -26 -18 -28 -19 -4 -32 20 -23 44 9 25 41 13 41
-16z"/>
<path d="M2552 3628 c-26 -26 0 -77 33 -64 9 3 15 0 15 -10 0 -21 -27 -29 -48
-13 -16 12 -15 11 1 -6 25 -28 51 -9 55 39 5 54 -26 84 -56 54z m43 -28 c0
-29 -32 -41 -41 -16 -9 24 4 48 23 44 12 -2 18 -12 18 -28z"/>
<path d="M2362 3534 c16 -17 58 -12 58 7 0 5 -10 4 -21 -3 -17 -10 -23 -10
-26 0 -3 6 -10 12 -16 12 -6 0 -4 -7 5 -16z"/>
<path d="M3595 3620 c-14 -15 -15 -19 -4 -15 12 4 16 -4 18 -37 3 -65 11 -59
11 10 0 34 -2 62 -3 62 -2 0 -12 -9 -22 -20z"/>
<path d="M3672 3628 c-26 -26 0 -77 33 -64 9 3 15 0 15 -10 0 -21 -27 -29 -48
-13 -16 12 -15 11 1 -6 25 -28 51 -9 55 39 5 54 -26 84 -56 54z m43 -28 c0
-16 -6 -26 -18 -28 -19 -4 -32 20 -23 44 9 25 41 13 41 -16z"/>
<path d="M3774 3614 c-16 -13 -17 -15 -1 -10 14 5 17 -1 17 -39 0 -25 4 -45 8
-45 7 0 5 99 -2 107 -2 2 -11 -4 -22 -13z"/>
<path d="M4855 3620 c-17 -19 -17 -20 -2 -14 14 5 17 2 14 -17 -2 -13 -1 -35
4 -49 5 -18 7 -7 8 38 1 34 -1 62 -2 62 -2 0 -12 -9 -22 -20z"/>
<path d="M4932 3628 c-17 -17 -15 -83 3 -98 24 -20 55 -3 55 30 0 29 -28 49
-50 35 -5 -3 -10 1 -10 10 0 22 27 30 47 14 14 -12 16 -12 11 1 -6 19 -40 24
-56 8z m43 -68 c0 -29 -32 -41 -41 -16 -9 24 4 48 23 44 12 -2 18 -12 18 -28z"/>
<path d="M5020 3620 c-14 -25 3 -61 28 -59 16 1 16 2 0 6 -26 7 -25 63 1 63
21 0 33 -22 25 -44 -3 -8 -1 -17 5 -21 14 -8 14 30 1 56 -14 25 -46 24 -60 -1z"/>
<path d="M5020 3543 c0 -6 5 -15 10 -18 13 -8 50 4 50 16 0 5 -9 4 -20 -3 -17
-11 -22 -10 -30 2 -6 9 -10 10 -10 3z"/>
<path d="M2273 3383 c-7 -2 -13 -9 -13 -15 0 -6 6 -6 15 2 17 14 45 7 45 -13
0 -7 -13 -26 -30 -42 -39 -38 -38 -45 8 -44 30 2 32 3 9 6 l-28 4 26 30 c29
35 32 64 9 73 -18 7 -23 7 -41 -1z"/>
<path d="M2359 3363 c-16 -42 0 -88 31 -88 51 0 53 106 2 113 -16 3 -25 -4
-33 -25z m57 -8 c8 -34 -3 -75 -21 -75 -20 0 -37 45 -29 76 8 33 42 32 50 -1z"/>
<path d="M2468 3347 l-27 -42 24 -3 c15 -2 25 -10 26 -20 0 -14 2 -14 6 -2 3
8 11 18 17 22 7 5 7 8 1 8 -6 0 -12 17 -13 37 -2 21 -4 38 -5 39 -1 2 -15 -16
-29 -39z m22 -12 c0 -16 -6 -25 -15 -25 -18 0 -19 4 -3 30 16 26 18 25 18 -5z"/>
<path d="M2549 3373 c-13 -15 -12 -15 8 -2 18 11 25 11 35 1 11 -11 10 -16 -5
-26 -15 -12 -16 -14 -2 -20 19 -7 19 -35 0 -42 -8 -4 -22 -1 -30 6 -9 8 -15 8
-15 2 0 -14 33 -24 54 -16 18 7 22 54 5 54 -8 0 -8 5 1 15 10 12 10 18 0 30
-16 20 -34 19 -51 -2z"/>
<path d="M3598 3376 c-22 -16 -23 -27 -4 -20 11 4 16 -6 19 -43 3 -44 4 -43 5
15 1 34 1 62 0 62 -2 0 -11 -7 -20 -14z"/>
<path d="M3673 3383 c-18 -7 -16 -48 2 -63 8 -7 22 -10 30 -6 9 3 15 0 15 -10
0 -21 -27 -29 -48 -13 -16 12 -15 11 1 -6 25 -28 51 -9 55 39 5 52 -17 75 -55
59z m42 -33 c0 -16 -6 -26 -18 -28 -19 -4 -32 20 -23 44 9 25 41 13 41 -16z"/>
<path d="M3764 3376 c-3 -8 -4 -21 -1 -28 3 -7 6 -3 6 10 1 15 7 22 21 22 25
0 27 -37 3 -43 -16 -4 -16 -5 -2 -6 18 -1 33 -27 23 -42 -3 -5 -14 -9 -25 -9
-19 0 -23 10 -19 40 1 12 -1 13 -11 2 -10 -9 -11 -17 -3 -30 24 -38 86 -15 69
25 -4 10 -8 29 -9 43 -1 29 -42 42 -52 16z"/>
<path d="M4855 3370 c-18 -20 -18 -21 0 -14 14 6 17 4 13 -8 -4 -8 -3 -30 2
-49 7 -30 8 -26 9 29 1 34 -1 62 -2 62 -2 0 -12 -9 -22 -20z"/>
<path d="M4932 3378 c-26 -26 0 -77 33 -64 9 3 15 0 15 -10 0 -21 -27 -29 -48
-13 -16 12 -15 11 1 -6 25 -28 51 -9 55 39 5 54 -26 84 -56 54z m43 -28 c0
-29 -32 -41 -41 -16 -9 24 4 48 23 44 12 -2 18 -12 18 -28z"/>
<path d="M5020 3365 c-13 -35 -13 -58 3 -79 32 -43 81 15 61 72 -13 38 -51 42
-64 7z m51 8 c4 -24 5 -70 1 -80 -10 -31 -52 0 -46 35 1 6 2 21 3 32 1 13 8
20 21 20 11 0 21 -3 21 -7z"/>
<path d="M2273 3133 c-7 -2 -13 -9 -13 -15 0 -6 6 -6 15 2 17 14 45 7 45 -13
0 -7 -13 -26 -30 -42 -39 -38 -38 -45 8 -44 30 2 32 3 9 6 l-28 4 26 30 c29
35 32 64 9 73 -18 7 -23 7 -41 -1z"/>
<path d="M2361 3121 c-15 -27 -14 -63 2 -85 32 -43 81 15 61 72 -12 34 -48 42
-63 13z m52 -13 c4 -13 4 -32 2 -43 -2 -11 -4 -23 -4 -27 -1 -5 -8 -8 -16 -8
-16 0 -32 27 -30 50 1 8 3 23 3 33 3 25 39 21 45 -5z"/>
<path d="M2457 3134 c-15 -15 -6 -24 13 -12 24 15 38 3 24 -20 -9 -13 -7 -20
4 -28 9 -6 13 -18 9 -28 -7 -18 -42 -22 -50 -6 -3 6 -4 5 -3 -2 4 -19 41 -21
55 -4 8 9 10 23 6 33 -4 10 -8 29 -9 43 -1 25 -33 40 -49 24z"/>
<path d="M2563 3133 c32 -5 31 -1 12 -46 -8 -20 -15 -44 -14 -54 1 -10 7 2 15
26 8 25 18 49 24 55 19 19 10 26 -27 25 -31 -2 -33 -3 -10 -6z"/>
<path d="M3580 3125 c-8 -10 -9 -15 -1 -15 6 0 11 5 11 10 0 6 9 10 20 10 29
0 25 -30 -10 -68 -16 -18 -30 -35 -30 -38 0 -2 19 -3 43 -2 38 1 39 2 8 5
l-33 4 27 29 c32 33 31 73 -1 78 -11 2 -27 -4 -34 -13z"/>
<path d="M3694 3119 c-14 -15 -15 -20 -4 -17 11 2 17 -9 21 -42 6 -43 6 -42 7
18 1 34 0 62 -1 62 -2 0 -12 -9 -23 -21z"/>
<path d="M3775 3120 c-16 -18 -16 -20 -3 -15 14 6 17 -2 21 -42 3 -44 4 -43 5
15 1 34 0 62 -1 62 -2 0 -12 -9 -22 -20z"/>
<path d="M4855 3120 c-17 -19 -17 -20 -1 -14 15 6 17 1 13 -35 -2 -23 0 -44 4
-47 5 -3 9 22 9 55 0 34 -2 61 -3 61 -2 0 -12 -9 -22 -20z"/>
<path d="M4943 3133 c32 -5 31 -1 12 -46 -8 -20 -15 -44 -14 -54 0 -10 5 -3
11 16 5 19 16 44 24 55 21 31 18 36 -23 35 -31 -2 -33 -3 -10 -6z"/>
<path d="M5020 3123 c-12 -15 -12 -16 0 -5 8 6 22 12 32 12 25 0 23 -36 -3
-58 -11 -9 -25 -25 -30 -34 -9 -16 -5 -18 33 -16 39 1 40 2 9 5 l-33 4 27 29
c17 18 25 36 23 51 -4 30 -39 37 -58 12z"/>
<path d="M2273 2883 c-7 -2 -13 -9 -13 -15 0 -6 6 -6 15 2 17 14 45 7 45 -13
0 -7 -13 -26 -30 -42 -39 -38 -38 -45 8 -44 30 2 32 3 9 6 l-28 4 26 30 c29
35 32 64 9 73 -18 7 -23 7 -41 -1z"/>
<path d="M2359 2863 c-16 -42 0 -88 31 -88 51 0 53 106 2 113 -16 3 -25 -4
-33 -25z m56 -3 c9 -29 -4 -80 -20 -80 -18 0 -35 31 -30 56 2 10 4 25 4 32 1
20 39 14 46 -8z"/>
<path d="M2478 2876 c-22 -16 -23 -27 -4 -20 11 4 16 -6 19 -43 3 -44 4 -43 5
15 1 34 1 62 0 62 -2 0 -11 -7 -20 -14z"/>
<path d="M2552 2878 c-7 -7 -12 -29 -12 -49 0 -73 62 -78 68 -5 5 54 -26 84
-56 54z m43 -48 c0 -38 -3 -45 -20 -45 -15 0 -21 8 -23 33 -4 45 4 64 25 60
14 -3 18 -13 18 -48z"/>
<path d="M3595 2870 c-17 -19 -17 -20 -1 -14 15 6 17 1 15 -34 -2 -23 0 -45 4
-48 4 -4 7 20 7 54 0 34 -2 62 -3 62 -2 0 -12 -9 -22 -20z"/>
<path d="M3673 2883 c-15 -5 -17 -41 -4 -62 5 -8 18 -12 30 -8 14 3 21 0 21
-9 0 -21 -27 -28 -48 -13 -16 12 -15 11 1 -6 25 -28 51 -9 55 39 5 52 -17 75
-55 59z m42 -33 c0 -16 -6 -26 -18 -28 -19 -4 -32 20 -23 44 9 25 41 13 41
-16z"/>
<path d="M3778 2852 c-34 -51 -34 -52 -4 -52 15 0 26 -7 29 -17 4 -17 5 -17 6
0 0 9 7 17 14 17 9 0 9 2 0 8 -6 4 -13 25 -15 47 l-3 39 -27 -42z m22 -17 c0
-18 -5 -25 -20 -25 -20 0 -20 1 -4 25 9 14 18 25 20 25 2 0 4 -11 4 -25z"/>
<path d="M4835 2879 c-4 -6 -4 -13 -1 -16 3 -4 6 -1 6 5 0 7 9 12 20 12 31 0
25 -39 -12 -77 l-32 -33 45 2 c37 1 39 2 11 5 l-33 4 31 35 c25 29 28 39 20
54 -11 21 -45 27 -55 9z"/>
<path d="M4945 2870 c-16 -18 -16 -20 -3 -15 14 6 17 -2 21 -42 3 -44 4 -43 5
15 1 34 0 62 -1 62 -2 0 -12 -9 -22 -20z"/>
<path d="M5025 2880 c-4 -6 -4 -14 -1 -17 3 -4 6 -1 6 5 0 15 27 15 36 0 4 -6
0 -17 -10 -23 -15 -11 -15 -13 5 -18 24 -6 22 -25 -5 -41 -14 -8 -20 -8 -23 2
-3 6 -9 12 -15 12 -6 0 -6 -6 2 -15 26 -32 80 -5 65 32 -4 10 -8 29 -9 43 -1
18 -7 26 -23 28 -11 2 -24 -2 -28 -8z"/>
<path d="M2273 2633 c-7 -2 -13 -9 -13 -15 0 -6 6 -6 15 2 17 14 45 7 45 -13
0 -7 -13 -26 -30 -42 -39 -38 -38 -45 8 -44 34 1 35 2 9 8 l-29 6 26 24 c47
44 24 97 -31 74z"/>
<path d="M2359 2613 c-16 -42 0 -88 31 -88 51 0 53 106 2 113 -16 3 -25 -4
-33 -25z m52 10 c0 -5 3 -21 5 -36 5 -28 -9 -57 -27 -57 -16 0 -30 41 -24 71
5 20 13 29 26 29 10 0 19 -3 20 -7z"/>
<path d="M2455 2629 c-4 -6 -4 -13 -1 -16 3 -4 6 -1 6 5 0 7 9 12 20 12 26 0
28 -43 3 -62 -10 -7 -24 -21 -32 -30 -12 -17 -10 -18 30 -16 38 1 39 2 11 5
l-33 4 31 35 c25 29 28 39 20 54 -11 21 -45 27 -55 9z"/>
<path d="M2549 2623 c-13 -15 -12 -15 8 -2 18 11 25 11 35 1 11 -11 10 -16 -5
-26 -15 -12 -16 -14 -2 -20 19 -7 19 -35 0 -42 -8 -4 -22 -1 -30 6 -9 8 -15 8
-15 2 0 -14 33 -24 54 -16 18 7 22 54 5 54 -8 0 -8 5 1 15 10 12 10 18 0 30
-16 20 -34 19 -51 -2z"/>
<path d="M3595 2620 c-14 -15 -15 -19 -4 -15 12 4 16 -4 18 -37 3 -65 11 -59
11 10 0 34 -2 62 -3 62 -2 0 -12 -9 -22 -20z"/>
<path d="M3672 2628 c-26 -26 0 -77 33 -64 9 3 15 0 15 -10 0 -21 -27 -29 -48
-13 -16 12 -15 11 1 -6 25 -28 51 -9 55 39 5 54 -26 84 -56 54z m43 -28 c0
-29 -32 -41 -41 -16 -9 24 4 48 23 44 12 -2 18 -12 18 -28z"/>
<path d="M3767 2633 c-4 -3 -7 -16 -7 -28 0 -18 5 -21 24 -18 25 5 40 -16 30
-42 -7 -17 -44 -21 -44 -5 0 6 -5 10 -11 10 -8 0 -8 -5 1 -15 19 -23 49 -18
62 10 13 29 -3 55 -33 55 -30 0 -22 28 9 33 l27 4 -26 2 c-14 0 -29 -2 -32 -6z"/>
<path d="M4835 2629 c-4 -6 -4 -13 -1 -16 3 -4 6 -1 6 5 0 7 9 12 20 12 26 0
28 -43 3 -62 -10 -7 -24 -21 -32 -30 -12 -17 -10 -18 30 -16 38 1 39 2 11 5
l-33 4 31 35 c25 29 28 39 20 54 -11 21 -45 27 -55 9z"/>
<path d="M4945 2620 c-16 -18 -16 -20 -3 -15 14 6 17 -2 21 -42 3 -44 4 -43 5
15 1 34 0 62 -1 62 -2 0 -12 -9 -22 -20z"/>
<path d="M5027 2633 c-4 -3 -7 -16 -7 -29 0 -18 4 -21 21 -17 24 7 39 -11 32
-38 -5 -19 -43 -27 -43 -9 0 6 -5 10 -11 10 -8 0 -8 -5 1 -15 19 -23 49 -18
62 10 13 29 -3 55 -33 55 -30 0 -22 28 9 33 l27 4 -26 2 c-14 0 -29 -2 -32 -6z"/>
<path d="M2285 2370 c-16 -18 -16 -20 -3 -15 14 6 17 -2 21 -42 3 -44 4 -43 5
15 1 34 0 62 -1 62 -2 0 -12 -9 -22 -20z"/>
<path d="M2364 2376 c-3 -8 -4 -21 -1 -28 3 -7 6 -3 6 10 1 15 7 22 21 22 26
0 28 -40 3 -41 -14 0 -12 -3 5 -10 29 -11 26 -43 -6 -47 -21 -3 -27 6 -22 38
1 12 -1 13 -11 2 -10 -9 -11 -17 -3 -30 24 -38 86 -15 69 25 -4 10 -8 29 -9
43 -1 29 -42 42 -52 16z"/>
<path d="M2456 2374 c-11 -30 -6 -40 22 -39 22 0 27 -4 27 -25 0 -28 -32 -41
-47 -18 -8 10 -9 10 -5 -2 5 -21 47 -19 61 3 14 22 -3 51 -33 55 -28 4 -22 24
10 33 l24 7 -26 1 c-16 1 -29 -5 -33 -15z"/>
<path d="M2550 2375 c-10 -12 -10 -18 0 -30 9 -10 9 -15 1 -15 -6 0 -11 -11
-11 -24 0 -27 26 -41 54 -30 19 7 22 54 4 54 -9 0 -8 4 2 10 12 7 12 13 4 27
-15 24 -38 27 -54 8z m44 -10 c3 -9 -1 -18 -10 -22 -19 -7 -39 11 -30 26 10
16 33 13 40 -4z m4 -58 c4 -20 -25 -34 -40 -19 -15 15 -1 44 19 40 10 -2 19
-11 21 -21z"/>
<path d="M3594 2369 c-14 -15 -15 -20 -4 -17 11 2 17 -9 21 -42 6 -43 6 -42 7
18 1 34 0 62 -1 62 -2 0 -12 -9 -23 -21z"/>
<path d="M3683 2383 c32 -5 31 -1 12 -46 -8 -20 -15 -44 -14 -54 0 -10 5 -3
11 16 5 19 16 44 24 55 21 31 18 36 -23 35 -31 -2 -33 -3 -10 -6z"/>
<path d="M3777 2383 c32 -4 33 -5 19 -31 -19 -39 -29 -85 -16 -77 5 3 10 13
10 21 0 8 9 33 19 54 l19 40 -41 -2 c-37 -1 -38 -2 -10 -5z"/>
<path d="M4855 2370 c-17 -18 -17 -20 -2 -14 15 5 17 0 14 -35 -2 -23 0 -44 5
-47 4 -3 8 22 8 55 0 34 -2 61 -3 61 -2 0 -12 -9 -22 -20z"/>
<path d="M4931 2376 c-33 -39 -1 -124 37 -100 26 17 28 61 3 69 -12 3 -25 3
-31 0 -5 -3 -10 1 -10 10 0 22 27 30 47 14 14 -12 16 -12 11 1 -6 20 -42 24
-57 6z m44 -66 c0 -16 -6 -26 -18 -28 -19 -4 -32 20 -23 44 9 25 41 13 41 -16z"/>
<path d="M5021 2371 c-23 -42 -5 -101 30 -101 27 0 47 44 29 65 -7 8 -20 14
-29 14 -14 -1 -14 -2 1 -6 34 -9 32 -63 -3 -63 -10 0 -19 3 -20 8 -6 51 -2 76
14 86 14 8 20 8 28 -4 9 -13 10 -13 6 0 -6 23 -44 24 -56 1z"/>
<path d="M2285 2120 c-16 -18 -16 -20 -3 -15 14 6 17 -2 21 -42 3 -44 4 -43 5
15 1 34 0 62 -1 62 -2 0 -12 -9 -22 -20z"/>
<path d="M2360 2120 c-14 -25 3 -61 28 -59 15 1 15 2 0 6 -34 9 -32 63 3 63
11 0 19 -7 20 -17 1 -10 2 -25 3 -33 4 -38 -35 -69 -47 -37 -4 9 -6 9 -6 0 -1
-17 16 -25 39 -18 24 8 36 64 21 94 -15 27 -47 27 -61 1z"/>
<path d="M2455 2129 c-4 -6 -4 -13 -1 -16 3 -4 6 -1 6 5 0 7 9 12 20 12 31 0
25 -39 -12 -77 l-32 -33 45 2 c37 1 39 2 11 5 l-33 4 31 35 c25 29 28 39 20
54 -11 21 -45 27 -55 9z"/>
<path d="M2552 2128 c-7 -7 -12 -29 -12 -49 0 -73 62 -78 68 -5 5 54 -26 84
-56 54z m43 -48 c0 -38 -3 -45 -20 -45 -15 0 -21 8 -23 33 -4 45 4 64 25 60
14 -3 18 -13 18 -48z"/>
<path d="M3594 2119 c-14 -15 -15 -20 -4 -17 11 2 15 -7 16 -34 1 -65 14 -55
14 10 0 34 -2 62 -3 62 -2 0 -12 -9 -23 -21z"/>
<path d="M3672 2128 c-26 -26 0 -77 33 -64 9 3 15 0 15 -10 0 -21 -27 -29 -48
-13 -16 12 -15 11 1 -6 25 -28 51 -9 55 39 5 54 -26 84 -56 54z m43 -28 c0
-16 -6 -26 -18 -28 -19 -4 -32 20 -23 44 9 25 41 13 41 -16z"/>
<path d="M3767 2133 c-4 -3 -7 -16 -7 -28 0 -18 5 -21 24 -18 25 5 40 -16 30
-42 -7 -17 -44 -21 -44 -5 0 6 -5 10 -11 10 -8 0 -8 -5 1 -15 19 -23 49 -18
62 10 13 29 -3 55 -33 55 -30 0 -22 28 9 33 l27 4 -26 2 c-14 0 -29 -2 -32 -6z"/>
<path d="M4855 2120 c-16 -18 -16 -20 -3 -15 14 6 17 -2 21 -42 3 -44 4 -43 5
15 1 34 0 62 -1 62 -2 0 -12 -9 -22 -20z"/>
<path d="M4930 2125 c-10 -12 -10 -18 0 -30 9 -10 9 -15 1 -15 -6 0 -11 -11
-11 -25 0 -18 7 -26 24 -31 14 -3 30 -3 35 1 15 8 14 55 0 55 -8 0 -8 5 1 15
10 12 10 18 0 30 -7 8 -18 15 -25 15 -7 0 -18 -7 -25 -15z m43 -1 c9 -10 -4
-34 -18 -34 -17 0 -28 17 -20 30 7 11 28 13 38 4z m5 -67 c4 -20 -25 -34 -40
-19 -15 15 -1 44 19 40 10 -2 19 -11 21 -21z"/>
<path d="M5021 2121 c-23 -42 -5 -101 30 -101 27 0 47 44 29 65 -7 8 -20 14
-29 14 -14 -1 -14 -2 1 -6 34 -9 32 -63 -2 -63 -21 0 -27 13 -26 54 1 35 31
59 47 36 9 -13 10 -13 6 0 -6 23 -44 24 -56 1z"/>
<path d="M2273 1883 c-7 -2 -13 -9 -13 -15 0 -6 6 -6 15 2 17 14 45 7 45 -13
0 -7 -13 -26 -30 -42 -39 -38 -38 -45 8 -44 30 2 32 3 9 6 l-28 4 26 30 c29
35 32 64 9 73 -18 7 -23 7 -41 -1z"/>
<path d="M2359 1863 c-16 -42 0 -88 31 -88 51 0 53 106 2 113 -16 3 -25 -4
-33 -25z m56 -13 c8 -37 -2 -70 -21 -70 -19 0 -36 45 -28 76 9 35 41 32 49 -6z"/>
<path d="M2475 1870 c-15 -17 -16 -20 -3 -15 13 5 16 -1 15 -39 -1 -25 1 -46
6 -46 4 0 7 27 7 60 0 33 -2 60 -3 60 -2 0 -12 -9 -22 -20z"/>
<path d="M2549 1873 c-13 -15 -12 -15 8 -2 18 11 25 11 35 1 11 -11 10 -16 -5
-26 -15 -12 -16 -14 -2 -20 19 -7 19 -35 0 -42 -8 -4 -22 -1 -30 6 -9 8 -15 8
-15 2 0 -14 33 -24 54 -16 12 5 15 17 13 48 -4 65 -28 86 -58 49z"/>
<path d="M3594 1869 c-13 -14 -14 -19 -4 -17 10 2 15 -9 17 -36 6 -63 13 -55
13 12 0 34 -2 62 -3 62 -2 0 -12 -9 -23 -21z"/>
<path d="M3672 1878 c-19 -19 -14 -56 8 -63 11 -3 24 -3 30 0 5 3 10 -1 10
-10 0 -21 -27 -30 -45 -15 -9 8 -15 8 -15 2 0 -17 39 -25 55 -12 30 25 14 110
-20 110 -6 0 -16 -5 -23 -12z m43 -28 c0 -16 -6 -26 -18 -28 -19 -4 -32 20
-23 44 9 25 41 13 41 -16z"/>
<path d="M3761 1871 c-23 -42 -5 -101 30 -101 27 0 47 44 29 65 -7 8 -20 14
-29 14 -14 -1 -14 -2 1 -6 30 -8 33 -63 3 -63 -34 0 -43 74 -12 94 14 8 20 8
28 -4 9 -13 10 -13 6 0 -6 23 -44 24 -56 1z"/>
<path d="M4835 1879 c-4 -6 -4 -13 -1 -16 3 -4 6 -1 6 5 0 7 9 12 20 12 26 0
28 -43 3 -62 -10 -7 -24 -21 -32 -30 -12 -17 -10 -18 30 -16 38 1 39 2 11 5
l-33 4 31 35 c25 29 28 39 20 54 -11 21 -45 27 -55 9z"/>
<path d="M4932 1878 c-7 -7 -12 -29 -12 -49 0 -73 62 -78 68 -5 5 54 -26 84
-56 54z m43 -48 c0 -38 -3 -45 -20 -45 -15 0 -21 8 -23 33 -4 45 4 64 25 60
14 -3 18 -13 18 -48z"/>
<path d="M5020 1861 c0 -24 3 -28 24 -24 25 5 40 -16 30 -42 -7 -17 -44 -21
-44 -5 0 6 -5 10 -11 10 -8 0 -7 -5 1 -15 28 -34 87 6 64 43 -6 9 -21 18 -33
20 -30 5 -26 30 7 35 25 4 25 4 -5 6 -30 1 -33 -2 -33 -28z"/>
<path d="M2273 1634 c-7 -3 -13 -10 -13 -16 0 -6 6 -6 15 2 17 14 45 7 45 -13
0 -7 -13 -26 -30 -42 -39 -38 -38 -45 8 -44 30 2 32 3 9 6 l-28 4 26 31 c40
48 20 93 -32 72z"/>
<path d="M2472 1633 c23 -4 26 -8 19 -21 -16 -31 -30 -92 -20 -92 5 0 9 9 9
20 0 12 9 39 20 60 l20 40 -37 -1 c-30 -2 -32 -3 -11 -6z"/>
<path d="M2552 1628 c-26 -26 0 -77 33 -64 9 3 15 0 15 -10 0 -21 -27 -29 -48
-13 -16 12 -15 11 1 -6 25 -28 51 -9 55 39 5 54 -26 84 -56 54z m43 -28 c0
-29 -32 -41 -41 -16 -9 24 4 48 23 44 12 -2 18 -12 18 -28z"/>
<path d="M2375 1615 c-16 -13 -16 -15 -3 -11 14 4 17 -3 20 -42 2 -26 5 -40 8
-32 3 8 3 34 0 58 -5 42 -6 43 -25 27z"/>
<path d="M3575 1629 c-4 -6 -4 -13 -1 -16 3 -4 6 -1 6 5 0 7 9 12 20 12 30 0
25 -34 -11 -75 l-31 -35 43 2 c38 1 39 2 11 5 l-33 4 31 35 c25 29 28 39 20
54 -11 21 -45 27 -55 9z"/>
<path d="M3685 1620 c-16 -18 -16 -20 -3 -15 14 6 17 -2 21 -42 3 -44 4 -43 5
15 1 34 0 62 -1 62 -2 0 -12 -9 -22 -20z"/>
<path d="M3761 1621 c-35 -64 25 -138 63 -78 14 21 -3 51 -30 54 -15 1 -15 1
-2 -3 33 -10 32 -64 -2 -64 -21 0 -27 13 -26 54 1 35 31 59 47 36 9 -13 10
-13 6 0 -6 23 -44 24 -56 1z"/>
<path d="M4835 1629 c-4 -6 -4 -13 -1 -16 3 -4 6 -1 6 5 0 7 9 12 20 12 31 0
25 -39 -12 -77 l-32 -33 45 2 c37 1 39 2 11 5 l-33 4 31 35 c25 29 28 39 20
54 -11 21 -45 27 -55 9z"/>
<path d="M4927 1633 c-14 -13 -7 -25 8 -13 17 14 45 7 45 -13 0 -7 -13 -26
-30 -42 -39 -38 -38 -45 8 -44 l37 2 -35 6 -34 6 26 17 c32 21 44 54 28 73
-13 16 -42 20 -53 8z"/>
<path d="M5021 1621 c-23 -42 -5 -101 30 -101 27 0 47 44 29 65 -7 8 -20 14
-29 14 -14 -1 -14 -2 1 -6 34 -9 32 -63 -2 -63 -21 0 -27 13 -26 54 1 35 31
59 47 36 9 -13 10 -13 6 0 -6 23 -44 24 -56 1z"/>
<path d="M2273 1383 c-7 -2 -13 -9 -13 -15 0 -6 6 -6 15 2 17 14 45 7 45 -13
0 -7 -13 -26 -30 -42 -39 -38 -38 -45 8 -44 30 2 32 3 9 6 l-28 4 26 30 c29
35 32 64 9 73 -18 7 -23 7 -41 -1z"/>
<path d="M2359 1363 c-16 -42 0 -88 31 -88 51 0 53 106 2 113 -16 3 -25 -4
-33 -25z m54 -5 c4 -13 4 -32 2 -43 -2 -11 -4 -23 -4 -27 -1 -5 -8 -8 -16 -8
-20 0 -37 44 -29 76 8 31 40 32 47 2z"/>
<path d="M2457 1383 c-14 -14 -6 -25 9 -12 13 11 19 10 37 -1 20 -12 21 -12 8
3 -14 17 -42 22 -54 10z"/>
<path d="M2565 1370 c-16 -18 -16 -20 -3 -15 14 6 17 -2 21 -42 3 -44 4 -43 5
15 1 34 0 62 -1 62 -2 0 -12 -9 -22 -20z"/>
<path d="M2440 1325 c0 -50 49 -72 74 -32 16 26 -4 52 -43 52 -25 1 -31 -3
-31 -20z m65 5 c10 -16 -5 -50 -21 -50 -17 0 -28 24 -20 45 6 17 32 20 41 5z"/>
<path d="M3570 1375 c-9 -10 -9 -15 -1 -15 6 0 11 5 11 10 0 6 9 10 20 10 31
0 25 -39 -12 -77 l-32 -33 45 2 c38 1 40 2 10 5 l-34 4 33 34 c27 28 30 36 21
54 -14 25 -43 27 -61 6z"/>
<path d="M3672 1378 c-7 -7 -12 -29 -12 -49 0 -73 62 -78 68 -5 5 54 -26 84
-56 54z m43 -48 c0 -38 -3 -45 -20 -45 -15 0 -21 8 -23 33 -4 45 4 64 25 60
14 -3 18 -13 18 -48z"/>
<path d="M3775 1367 c-17 -17 -17 -19 -2 -14 14 5 17 0 17 -38 0 -25 3 -45 8
-45 6 0 7 109 0 115 -2 1 -12 -7 -23 -18z"/>
<path d="M4835 1379 c-4 -6 -4 -13 -1 -16 3 -4 6 -1 6 5 0 7 9 12 20 12 31 0
25 -39 -12 -77 l-32 -33 45 2 c37 1 39 2 11 5 l-33 4 31 35 c25 29 28 39 20
54 -11 21 -45 27 -55 9z"/>
<path d="M4929 1373 c-13 -15 -12 -15 8 -2 18 11 25 11 35 1 11 -11 10 -16 -5
-26 -15 -12 -16 -14 -2 -20 19 -7 19 -35 0 -42 -8 -4 -22 -1 -30 6 -9 8 -15 8
-15 2 0 -14 33 -24 54 -16 18 7 22 54 5 54 -8 0 -8 5 1 15 10 12 10 18 0 30
-16 20 -34 19 -51 -2z"/>
<path d="M5034 1364 c-15 -13 -16 -15 -2 -10 14 4 18 -3 21 -42 3 -46 3 -46 5
11 1 31 1 57 -1 57 -2 0 -12 -7 -23 -16z"/>
<path d="M2273 1133 c-7 -2 -13 -9 -13 -15 0 -6 6 -6 15 2 17 14 45 7 45 -13
0 -7 -13 -26 -30 -42 -39 -38 -38 -45 8 -44 30 2 32 3 9 6 l-28 4 26 30 c29
35 32 64 9 73 -18 7 -23 7 -41 -1z"/>
<path d="M2453 1113 c-18 -52 0 -97 37 -90 22 3 36 52 24 85 -13 38 -49 42
-61 5z m53 -8 c9 -38 -3 -77 -24 -73 -17 3 -29 56 -18 84 9 23 35 16 42 -11z"/>
<path d="M2565 1120 c-16 -18 -16 -20 -3 -15 14 6 17 -2 21 -42 3 -44 4 -43 5
15 1 34 0 62 -1 62 -2 0 -12 -9 -22 -20z"/>
<path d="M2374 1114 c-16 -13 -17 -15 -1 -10 14 5 17 -1 17 -39 0 -25 3 -45 8
-45 7 0 8 98 0 105 -2 3 -13 -2 -24 -11z"/>
<path d="M3575 1129 c-4 -6 -4 -13 -1 -16 3 -4 6 -1 6 5 0 7 9 12 20 12 28 0
26 -43 -3 -67 -43 -34 -42 -43 5 -41 37 1 39 2 10 5 l-33 4 31 35 c25 29 28
39 20 54 -11 21 -45 27 -55 9z"/>
<path d="M3685 1120 c-16 -18 -16 -20 -3 -15 14 6 17 -2 21 -42 3 -44 4 -43 5
15 1 34 0 62 -1 62 -2 0 -12 -9 -22 -20z"/>
<path d="M3778 1100 c-34 -47 -34 -50 -4 -50 15 0 26 -7 29 -17 4 -17 5 -17 6
0 0 9 7 17 14 17 9 0 9 2 0 8 -6 4 -13 24 -15 44 l-3 37 -27 -39z m22 -15 c0
-16 -6 -25 -15 -25 -18 0 -18 5 -5 31 14 26 20 24 20 -6z"/>
<path d="M4855 1120 c-17 -19 -17 -20 -1 -14 15 6 17 1 13 -35 -2 -23 0 -44 4
-47 5 -3 9 22 9 55 0 34 -2 61 -3 61 -2 0 -12 -9 -22 -20z"/>
<path d="M4930 1125 c-7 -9 -10 -25 -6 -41 6 -21 12 -25 31 -21 17 3 25 0 25
-10 0 -20 -28 -27 -48 -12 -16 12 -15 11 1 -6 25 -28 51 -9 55 39 5 56 -29 86
-58 51z m45 -25 c0 -29 -32 -41 -41 -16 -9 24 4 48 23 44 12 -2 18 -12 18 -28z"/>
<path d="M5019 1116 c-18 -39 0 -91 31 -91 18 0 27 8 34 28 22 62 -39 121 -65
63z m56 -6 c9 -29 -4 -80 -20 -80 -21 0 -36 35 -29 69 8 36 39 43 49 11z"/>
<path d="M2273 883 c-7 -2 -13 -9 -13 -15 0 -6 6 -6 15 2 17 14 45 7 45 -13 0
-7 -13 -26 -30 -42 -39 -38 -38 -45 8 -44 30 2 32 3 9 6 l-28 4 26 30 c29 35
32 64 9 73 -18 7 -23 7 -41 -1z"/>
<path d="M2455 880 c-4 -6 -4 -14 -1 -17 3 -4 6 -1 6 5 0 15 27 16 36 1 3 -6
1 -16 -5 -22 -7 -7 -6 -14 6 -22 10 -7 14 -19 10 -29 -7 -18 -42 -22 -50 -6
-3 6 -4 5 -3 -2 4 -18 34 -22 51 -8 16 13 21 50 7 50 -4 0 -8 12 -7 28 0 20
-5 28 -22 30 -11 2 -24 -2 -28 -8z"/>
<path d="M2552 878 c-7 -7 -12 -29 -12 -49 0 -73 62 -78 68 -5 5 54 -26 84
-56 54z m43 -48 c0 -38 -3 -45 -20 -45 -15 0 -21 8 -23 33 -4 45 4 64 25 60
14 -3 18 -13 18 -48z"/>
<path d="M2375 865 c-16 -13 -16 -15 -3 -11 14 4 17 -3 20 -42 2 -33 5 -40 8
-22 3 14 3 40 0 58 -5 32 -6 32 -25 17z"/>
<path d="M3575 879 c-4 -6 -4 -13 -1 -16 3 -4 6 -1 6 5 0 7 9 12 20 12 31 0
25 -39 -12 -77 l-32 -33 45 2 c37 1 39 2 11 5 l-33 4 31 35 c25 29 28 39 20
54 -11 21 -45 27 -55 9z"/>
<path d="M3667 883 c-14 -13 -7 -25 8 -13 17 14 45 7 45 -13 0 -7 -13 -26 -30
-42 -39 -38 -38 -45 8 -44 l37 2 -35 6 -34 6 26 17 c32 21 44 54 28 73 -13 16
-42 20 -53 8z"/>
<path d="M3778 852 c-34 -51 -34 -52 -4 -52 15 0 26 -7 29 -17 4 -17 5 -17 6
0 0 9 7 17 14 17 9 0 9 2 0 8 -6 4 -13 25 -15 47 l-3 39 -27 -42z m22 -17 c0
-18 -5 -25 -20 -25 -20 0 -20 1 -4 25 9 14 18 25 20 25 2 0 4 -11 4 -25z"/>
<path d="M4835 879 c-4 -6 -4 -13 -1 -16 3 -4 6 -1 6 5 0 7 9 12 20 12 31 0
25 -39 -12 -77 l-32 -33 45 2 c37 1 39 2 11 5 l-33 4 31 35 c25 29 28 39 20
54 -11 21 -45 27 -55 9z"/>
<path d="M4932 878 c-7 -7 -12 -29 -12 -49 0 -73 62 -78 68 -5 5 54 -26 84
-56 54z m43 -48 c0 -38 -3 -45 -20 -45 -15 0 -21 8 -23 33 -4 45 4 64 25 60
14 -3 18 -13 18 -48z"/>
<path d="M5035 868 c-16 -17 -17 -20 -3 -15 14 5 18 -2 21 -41 3 -42 4 -40 5
16 1 34 1 62 0 61 -2 0 -12 -10 -23 -21z"/>
<path d="M2273 633 c-7 -2 -13 -9 -13 -15 0 -6 6 -6 15 2 17 14 45 7 45 -13 0
-7 -13 -26 -30 -42 -39 -38 -38 -45 8 -44 34 1 35 2 9 8 l-29 6 26 24 c47 44
24 97 -31 74z"/>
<path d="M2359 613 c-16 -42 0 -88 31 -88 51 0 53 106 2 113 -16 3 -25 -4 -33
-25z m57 -8 c8 -34 -3 -75 -21 -75 -21 0 -37 37 -30 71 8 37 42 40 51 4z"/>
<path d="M2475 620 c-14 -16 -15 -19 -4 -15 12 5 16 -3 17 -36 3 -66 12 -59
12 9 0 34 -2 62 -3 62 -2 0 -12 -9 -22 -20z"/>
<path d="M2547 633 c-14 -13 -7 -25 8 -13 17 14 45 7 45 -13 0 -7 -13 -26 -30
-42 -39 -38 -38 -45 8 -44 l37 2 -35 6 -34 6 26 17 c32 21 44 54 28 73 -13 16
-42 20 -53 8z"/>
<path d="M3575 629 c-4 -6 -4 -13 -1 -16 3 -4 6 -1 6 5 0 7 9 12 20 12 31 0
25 -39 -12 -77 l-32 -33 45 2 c38 1 40 2 10 5 l-34 4 33 34 c27 28 30 36 21
54 -12 22 -45 28 -56 10z"/>
<path d="M3672 628 c-7 -7 -12 -29 -12 -49 0 -73 62 -78 68 -5 5 54 -26 84
-56 54z m43 -48 c0 -38 -3 -45 -20 -45 -15 0 -21 8 -23 33 -4 45 4 64 25 60
14 -3 18 -13 18 -48z"/>
<path d="M3759 613 c-16 -42 0 -88 31 -88 51 0 53 106 2 113 -16 3 -25 -4 -33
-25z m57 -8 c8 -34 -3 -75 -21 -75 -18 0 -35 31 -30 56 2 10 4 25 4 32 2 23
40 13 47 -13z"/>
<path d="M4835 629 c-4 -6 -4 -13 -1 -16 3 -4 6 -1 6 5 0 7 9 12 20 12 26 0
28 -43 3 -62 -10 -7 -24 -21 -32 -30 -12 -17 -10 -18 30 -16 38 1 39 2 11 5
l-33 4 31 35 c25 29 28 39 20 54 -11 21 -45 27 -55 9z"/>
<path d="M4932 628 c-7 -7 -12 -29 -12 -49 0 -73 62 -78 68 -5 5 54 -26 84
-56 54z m43 -48 c0 -38 -3 -45 -20 -45 -15 0 -21 8 -23 33 -4 45 4 64 25 60
14 -3 18 -13 18 -48z"/>
<path d="M5034 614 c-15 -13 -16 -15 -2 -10 14 4 17 -3 20 -42 l3 -47 5 58 c3
31 2 57 -1 57 -3 0 -14 -7 -25 -16z"/>
<path d="M2285 370 c-16 -18 -16 -20 -3 -15 14 6 17 -2 21 -42 3 -44 4 -43 5
15 1 34 0 62 -1 62 -2 0 -12 -9 -22 -20z"/>
<path d="M2360 370 c-14 -25 3 -61 28 -59 15 1 15 2 0 6 -34 9 -32 63 3 63 17
0 24 -15 20 -47 -1 -6 3 -14 9 -18 13 -8 13 31 0 56 -14 25 -46 24 -60 -1z"/>
<path d="M2450 371 c-34 -64 26 -138 64 -78 16 25 -5 53 -38 50 -30 -2 -33 8
-10 28 13 11 19 10 37 -1 20 -12 21 -12 8 3 -18 23 -48 21 -61 -2z m55 -61 c0
-16 -6 -26 -18 -28 -19 -4 -32 20 -23 44 9 25 41 13 41 -16z"/>
<path d="M2568 355 c-34 -49 -35 -55 -4 -55 15 0 26 -7 28 -17 7 -35 14 19 8
67 l-5 45 -27 -40z m19 -42 c-3 -3 -13 -3 -21 -1 -15 3 -15 6 1 28 l18 25 3
-23 c2 -13 1 -26 -1 -29z"/>
<path d="M2363 290 c5 -19 49 -20 55 -2 3 11 1 11 -17 0 -18 -11 -23 -11 -32
2 -9 13 -10 13 -6 0z"/>
<path d="M3575 379 c-4 -6 -4 -13 -1 -16 3 -4 6 -1 6 5 0 7 9 12 20 12 28 0
26 -43 -3 -67 -43 -34 -42 -43 5 -41 37 1 39 2 10 5 l-33 4 31 35 c25 29 28
39 20 54 -11 21 -45 27 -55 9z"/>
<path d="M3672 378 c-7 -7 -12 -29 -12 -49 0 -73 62 -78 68 -5 5 54 -26 84
-56 54z m43 -48 c0 -38 -3 -45 -20 -45 -15 0 -21 8 -23 33 -4 45 4 64 25 60
14 -3 18 -13 18 -48z"/>
<path d="M3758 365 c-13 -28 3 -56 31 -54 14 1 14 2 -1 6 -34 9 -32 63 2 63
20 0 32 -23 24 -44 -3 -8 -1 -17 5 -21 14 -8 14 30 1 56 -15 27 -48 24 -62 -6z"/>
<path d="M3760 293 c0 -6 5 -15 10 -18 13 -8 50 4 50 16 0 5 -9 4 -20 -3 -17
-11 -22 -10 -30 2 -6 9 -10 10 -10 3z"/>
<path d="M4855 370 c-17 -18 -17 -20 -2 -14 15 5 17 0 14 -35 -2 -23 0 -44 5
-47 4 -3 8 22 8 55 0 34 -2 61 -3 61 -2 0 -12 -9 -22 -20z"/>
<path d="M4930 375 c-10 -12 -10 -18 0 -30 9 -10 9 -15 1 -15 -6 0 -11 -11
-11 -24 0 -27 26 -41 54 -30 18 7 22 54 5 54 -8 0 -8 5 1 15 10 12 10 18 0 30
-7 8 -18 15 -25 15 -7 0 -18 -7 -25 -15z m48 -12 c5 -17 -26 -29 -40 -15 -6 6
-7 15 -3 22 9 14 37 9 43 -7z m0 -56 c4 -20 -25 -34 -40 -19 -15 15 -1 44 19
40 10 -2 19 -11 21 -21z"/>
<path d="M5020 370 c-14 -25 3 -61 28 -59 15 1 15 2 0 6 -34 9 -32 63 2 63 20
0 32 -23 24 -44 -3 -8 -1 -17 5 -21 14 -8 14 30 1 56 -14 25 -46 24 -60 -1z"/>
<path d="M5023 290 c5 -19 49 -20 55 -2 3 11 1 11 -17 0 -18 -11 -23 -11 -32
2 -9 13 -10 13 -6 0z"/>
<path d="M975 4335 l0 -75 42 0 c49 0 73 25 73 75 0 50 -24 75 -73 75 l-42 0
0 -75z m83 33 c29 -29 7 -78 -35 -78 -21 0 -23 5 -23 45 0 40 2 45 23 45 13 0
28 -5 35 -12z"/>
<path d="M2076 4394 c-46 -46 -21 -134 39 -134 27 0 58 27 49 42 -4 6 -10 6
-17 -1 -19 -19 -57 -13 -66 12 -17 46 28 87 64 57 20 -16 28 5 9 24 -20 20
-58 20 -78 0z"/>
<path d="M2310 4335 c0 -60 3 -75 15 -75 12 0 15 15 15 75 0 60 -3 75 -15 75
-12 0 -15 -15 -15 -75z"/>
<path d="M2570 4400 c0 -5 5 -10 10 -10 6 0 10 5 10 10 0 6 -4 10 -10 10 -5 0
-10 -4 -10 -10z"/>
<path d="M3310 4335 c0 -60 3 -75 15 -75 10 0 15 10 15 30 0 25 4 30 24 30 25
0 56 23 56 41 0 33 -22 49 -65 49 l-45 0 0 -75z m80 30 c0 -9 -9 -15 -25 -15
-16 0 -25 6 -25 15 0 9 9 15 25 15 16 0 25 -6 25 -15z"/>
<path d="M3820 4400 c0 -5 7 -10 15 -10 8 0 15 5 15 10 0 6 -7 10 -15 10 -8 0
-15 -4 -15 -10z"/>
<path d="M4706 4391 c-39 -43 -13 -131 39 -131 29 0 60 24 51 39 -6 9 -11 9
-21 1 -8 -6 -24 -10 -37 -8 -20 3 -23 9 -23 43 0 34 3 40 23 43 13 2 29 -2 37
-8 10 -8 15 -8 21 1 9 15 -22 39 -51 39 -12 0 -30 -9 -39 -19z"/>
<path d="M5020 4337 l0 -74 33 0 c43 0 57 13 57 52 0 38 -21 59 -50 50 -17 -5
-20 -2 -20 19 0 14 -4 26 -10 26 -6 0 -10 -31 -10 -73z m65 -22 c0 -33 -28
-47 -39 -19 -10 25 3 56 22 52 11 -2 17 -13 17 -33z"/>
<path d="M6030 4335 c0 -43 4 -75 10 -75 6 0 10 14 10 30 0 27 3 30 30 30 20
0 30 5 30 15 0 10 -10 15 -30 15 -20 0 -30 5 -30 15 0 10 11 15 35 15 24 0 35
5 35 15 0 11 -12 15 -45 15 l-45 0 0 -75z"/>
<path d="M1231 4382 c-8 -16 -7 -40 5 -99 4 -23 44 -34 44 -13 0 6 -4 10 -10
10 -15 0 -12 67 3 74 10 5 10 7 0 12 -7 3 -13 12 -13 20 0 20 -17 18 -29 -4z"/>
<path d="M3650 4386 c0 -8 -6 -17 -12 -20 -10 -5 -10 -7 0 -12 6 -3 12 -23 12
-45 0 -38 21 -62 38 -44 4 4 1 10 -5 12 -7 3 -13 20 -13 38 0 18 6 36 13 39
10 5 10 7 0 12 -7 3 -13 12 -13 20 0 8 -4 14 -10 14 -5 0 -10 -6 -10 -14z"/>
<path d="M6262 4383 c-5 -10 -6 -40 -3 -68 5 -42 10 -51 29 -53 12 -2 22 1 22
7 0 6 -4 11 -10 11 -15 0 -12 67 3 74 10 5 10 7 0 12 -7 3 -13 12 -13 20 0 20
-17 18 -28 -3z"/>
<path d="M1127 4363 c-15 -15 -5 -23 19 -17 20 5 25 3 22 -7 -3 -8 -14 -15
-25 -17 -25 -4 -38 -29 -23 -47 6 -7 26 -13 45 -12 34 1 35 2 35 42 0 23 -5
46 -12 53 -13 13 -50 16 -61 5z m43 -68 c0 -8 -7 -15 -15 -15 -16 0 -20 12 -8
23 11 12 23 8 23 -8z"/>
<path d="M1300 4351 c-25 -48 -3 -96 41 -89 33 5 36 27 3 25 -15 -1 -29 4 -31
11 -3 8 7 12 31 12 40 0 47 17 20 44 -21 22 -51 20 -64 -3z m55 -11 c4 -6 -5
-10 -20 -10 -15 0 -24 4 -20 10 3 6 12 10 20 10 8 0 17 -4 20 -10z"/>
<path d="M2213 4363 c-24 -9 -13 -23 12 -17 33 8 33 -13 1 -26 -52 -20 -39
-59 19 -57 35 1 35 1 35 48 0 54 -22 71 -67 52z m41 -68 c-6 -16 -34 -21 -34
-7 0 13 11 22 26 22 8 0 11 -6 8 -15z"/>
<path d="M2382 4358 c-7 -7 -12 -27 -12 -45 0 -26 6 -36 24 -45 31 -14 53 -5
68 26 22 49 -43 101 -80 64z m53 -43 c0 -23 -4 -30 -20 -30 -21 0 -31 25 -21
51 11 28 41 12 41 -21z"/>
<path d="M2490 4313 c0 -29 5 -53 10 -53 9 0 15 22 11 44 -4 18 11 46 25 46 8
0 14 4 14 8 0 5 -13 9 -30 9 -30 0 -30 -1 -30 -54z"/>
<path d="M2570 4315 c0 -30 4 -55 9 -55 11 0 19 54 13 86 -8 44 -22 25 -22
-31z"/>
<path d="M2632 4358 c-17 -17 -15 -73 3 -88 16 -13 65 -6 65 10 0 5 -12 8 -26
7 -15 -1 -29 4 -31 11 -3 8 7 12 31 12 40 0 43 5 20 38 -17 24 -43 29 -62 10z
m48 -18 c0 -5 -9 -10 -21 -10 -11 0 -17 5 -14 10 3 6 13 10 21 10 8 0 14 -4
14 -10z"/>
<path d="M2743 4364 c-25 -11 -14 -45 17 -57 17 -6 30 -15 30 -20 0 -5 -13 -7
-30 -3 -37 7 -40 -11 -3 -20 30 -8 56 5 61 30 2 11 -8 21 -32 31 -44 19 -47
30 -5 21 22 -4 29 -2 27 7 -5 13 -44 19 -65 11z"/>
<path d="M3440 4314 c0 -41 4 -54 15 -54 11 0 15 12 15 45 0 33 4 45 14 45 8
0 17 4 20 9 3 5 -10 9 -29 9 l-35 0 0 -54z"/>
<path d="M3536 4354 c-25 -25 -20 -72 8 -86 31 -14 53 -5 68 26 22 51 -38 99
-76 60z m49 -39 c0 -39 -31 -48 -41 -11 -7 30 2 48 24 44 11 -2 17 -13 17 -33z"/>
<path d="M3713 4344 c-15 -24 -15 -29 -2 -53 17 -30 50 -39 68 -17 11 13 9 15
-15 13 -15 -1 -29 4 -31 11 -3 8 6 12 26 12 23 0 31 5 31 18 0 45 -51 56 -77
16z m52 -4 c3 -5 -3 -10 -14 -10 -12 0 -21 5 -21 10 0 6 6 10 14 10 8 0 18 -4
21 -10z"/>
<path d="M3820 4315 c0 -42 3 -55 15 -55 12 0 15 13 15 55 0 42 -3 55 -15 55
-12 0 -15 -13 -15 -55z"/>
<path d="M3880 4312 c0 -38 4 -52 13 -49 7 2 11 16 9 33 -3 37 11 59 33 50 12
-4 16 -16 13 -43 -2 -22 2 -38 10 -41 8 -2 12 10 12 40 0 57 -8 66 -53 65
l-37 -1 0 -54z"/>
<path d="M4007 4363 c-17 -17 -5 -45 23 -56 42 -16 37 -31 -7 -22 -33 6 -35 5
-24 -9 26 -31 81 -16 81 20 0 19 -7 26 -30 31 -16 3 -30 10 -30 15 0 6 14 7
32 2 29 -6 31 -5 19 10 -13 16 -52 22 -64 9z"/>
<path d="M4843 4363 c-23 -9 -14 -24 11 -17 13 3 27 1 30 -5 4 -6 -4 -13 -18
-17 -61 -15 -54 -63 9 -61 35 1 35 1 35 48 0 54 -22 71 -67 52z m47 -63 c0
-12 -28 -25 -36 -17 -9 9 6 27 22 27 8 0 14 -5 14 -10z"/>
<path d="M4940 4314 c0 -41 4 -54 15 -54 11 0 15 12 15 45 0 33 4 45 14 45 8
0 17 4 20 9 3 5 -10 9 -29 9 l-35 0 0 -54z"/>
<path d="M5153 4364 c-25 -11 -14 -45 17 -57 17 -6 30 -15 30 -20 0 -5 -13 -7
-30 -3 -37 7 -40 -11 -3 -20 55 -14 86 39 34 59 -38 14 -41 32 -5 23 19 -5 25
-3 22 6 -5 14 -44 21 -65 12z"/>
<path d="M6157 4363 c-15 -15 -5 -23 19 -17 20 5 25 3 22 -7 -3 -8 -14 -15
-26 -17 -21 -3 -40 -37 -28 -50 4 -3 24 -7 46 -8 l40 -2 0 42 c0 23 -5 47 -12
54 -13 13 -50 16 -61 5z m43 -68 c0 -8 -7 -15 -15 -15 -16 0 -20 12 -8 23 11
12 23 8 23 -8z"/>
<path d="M6332 4358 c-20 -20 -14 -38 18 -49 17 -6 30 -15 30 -21 0 -5 -13 -7
-30 -3 -38 8 -41 -12 -3 -21 55 -14 86 39 34 59 -38 14 -41 32 -5 23 19 -5 25
-3 22 6 -6 18 -50 22 -66 6z"/>
<path d="M252 4330 c0 -14 2 -19 5 -12 2 6 2 18 0 25 -3 6 -5 1 -5 -13z"/>
<path d="M873 4133 c-7 -2 -13 -9 -13 -15 0 -6 6 -6 15 2 17 14 45 7 45 -13 0
-7 -13 -26 -30 -42 -39 -38 -38 -45 8 -44 30 2 32 3 9 6 l-28 4 26 30 c29 35
32 64 9 73 -18 7 -23 7 -41 -1z"/>
<path d="M964 4126 c-3 -8 -4 -21 -1 -28 3 -7 6 -3 6 10 1 15 7 22 21 22 26 0
28 -40 3 -41 -14 0 -12 -3 5 -10 29 -11 26 -43 -6 -47 -21 -3 -27 6 -22 38 1
12 -1 13 -11 2 -10 -9 -11 -17 -3 -30 24 -38 86 -15 69 25 -4 10 -8 29 -9 43
-1 29 -42 42 -52 16z"/>
<path d="M1099 4113 c-16 -42 0 -88 31 -88 51 0 53 106 2 113 -16 3 -25 -4
-33 -25z m57 -8 c8 -34 -3 -75 -21 -75 -21 0 -37 37 -30 71 8 37 42 40 51 4z"/>
<path d="M1203 4133 c-7 -2 -13 -9 -13 -14 0 -5 9 -4 19 3 15 9 23 9 38 -3 16
-13 17 -13 4 4 -14 17 -25 20 -48 10z"/>
<path d="M1330 4125 c-9 -10 -9 -15 -1 -15 6 0 11 5 11 10 0 6 9 10 20 10 31
0 25 -39 -12 -77 l-32 -33 45 2 c37 1 39 2 11 5 l-33 4 31 35 c25 29 28 39 20
54 -13 24 -43 26 -60 5z"/>
<path d="M1445 4120 c-16 -18 -16 -20 -3 -15 14 6 17 -2 21 -42 3 -44 4 -43 5
15 1 34 0 62 -1 62 -2 0 -12 -9 -22 -20z"/>
<path d="M6158 4100 c-34 -47 -34 -50 -4 -50 15 0 26 -7 29 -17 4 -17 5 -17 6
0 0 9 7 17 14 17 9 0 9 2 0 8 -6 4 -13 24 -15 44 l-3 37 -27 -39z m22 -15 c0
-16 -6 -25 -15 -25 -18 0 -18 5 -5 31 14 26 20 24 20 -6z"/>
<path d="M6252 4133 c23 -4 26 -8 19 -21 -16 -31 -30 -92 -20 -92 5 0 9 10 9
23 0 12 9 37 20 55 11 18 20 35 20 37 0 3 -17 4 -37 4 -31 -2 -33 -3 -11 -6z"/>
<path d="M1291 4094 c0 -11 3 -14 6 -6 3 7 2 16 -1 19 -3 4 -6 -2 -5 -13z"/>
<path d="M1180 4075 c0 -50 49 -72 74 -32 16 26 -4 52 -43 52 -25 1 -31 -3
-31 -20z m65 -15 c0 -29 -32 -41 -41 -16 -9 24 4 48 23 44 12 -2 18 -12 18
-28z"/>
<path d="M247 4072 c-24 -26 -21 -32 11 -31 24 2 25 2 4 6 -23 4 -23 5 -6 24
9 10 15 19 12 19 -3 0 -12 -8 -21 -18z"/>
<path d="M6790 3970 c0 -33 3 -40 20 -40 17 0 20 7 20 40 0 33 -3 40 -20 40
-17 0 -20 -7 -20 -40z"/>
<path d="M873 3884 c-7 -3 -13 -10 -13 -16 0 -6 6 -6 15 2 17 14 45 7 45 -13
0 -7 -13 -26 -30 -42 -39 -38 -38 -45 8 -44 31 2 33 3 8 6 l-28 5 27 28 c43
45 21 96 -32 74z"/>
<path d="M962 3878 c-25 -25 -1 -77 30 -65 9 4 8 6 -3 6 -35 2 -27 61 8 61 13
0 15 -5 17 -45 3 -43 -34 -76 -47 -42 -4 9 -6 9 -6 0 -1 -17 16 -25 39 -18 24
8 36 64 21 94 -13 23 -40 28 -59 9z"/>
<path d="M1099 3863 c-16 -42 0 -88 31 -88 51 0 53 106 2 113 -16 3 -25 -4
-33 -25z m57 -8 c8 -34 -3 -75 -21 -75 -24 0 -38 41 -26 73 13 34 39 35 47 2z"/>
<path d="M1196 3874 c-32 -32 -10 -110 29 -103 50 10 42 76 -9 72 -30 -2 -33
8 -10 28 13 11 19 10 37 -1 20 -12 21 -12 8 3 -17 21 -35 22 -55 1z m49 -64
c0 -16 -6 -26 -18 -28 -19 -4 -32 20 -23 44 9 25 41 13 41 -16z"/>
<path d="M1335 3879 c-4 -6 -4 -13 -1 -16 3 -4 6 -1 6 5 0 7 9 12 20 12 31 0
25 -39 -12 -77 l-32 -33 45 2 c37 1 39 2 11 5 l-33 4 31 35 c25 29 28 39 20
54 -11 21 -45 27 -55 9z"/>
<path d="M1445 3870 c-16 -18 -16 -20 -3 -15 14 6 17 -2 21 -42 3 -44 4 -43 5
15 1 34 0 62 -1 62 -2 0 -12 -9 -22 -20z"/>
<path d="M6140 3861 c0 -24 3 -28 24 -24 24 5 38 -17 29 -44 -5 -15 -43 -18
-43 -3 0 6 -5 10 -11 10 -8 0 -7 -5 1 -15 28 -34 87 6 64 43 -6 9 -21 18 -33
20 -28 4 -22 24 10 33 21 6 21 7 -8 8 -30 1 -33 -2 -33 -28z"/>
<path d="M6255 3870 c-15 -17 -16 -20 -3 -15 13 5 16 -1 15 -39 -1 -25 1 -46
6 -46 4 0 7 27 7 60 0 33 -2 60 -3 60 -2 0 -12 -9 -22 -20z"/>
<path d="M869 3623 c-13 -15 -12 -15 8 -2 18 11 25 11 35 1 11 -11 9 -16 -6
-28 -17 -12 -18 -14 -3 -14 21 0 23 -38 2 -46 -8 -4 -23 0 -33 7 -16 12 -16
12 -1 -5 11 -12 24 -16 38 -11 17 5 20 13 19 53 -3 61 -29 82 -59 45z"/>
<path d="M959 3613 c-16 -42 0 -88 31 -88 51 0 53 106 2 113 -16 3 -25 -4 -33
-25z m57 -8 c8 -34 -3 -75 -21 -75 -21 0 -37 37 -30 71 8 37 42 40 51 4z"/>
<path d="M1099 3616 c-18 -39 0 -91 31 -91 18 0 27 8 34 28 22 62 -39 121 -65
63z m56 -6 c9 -29 -4 -80 -21 -80 -19 0 -33 39 -27 73 6 32 38 37 48 7z"/>
<path d="M1203 3633 c-18 -7 -27 -67 -13 -93 13 -25 47 -24 64 3 16 25 -5 52
-38 50 -23 -2 -25 1 -16 18 12 22 30 24 50 7 12 -11 12 -10 1 5 -13 17 -25 20
-48 10z m42 -73 c0 -29 -32 -41 -41 -16 -9 24 4 48 23 44 12 -2 18 -12 18 -28z"/>
<path d="M1335 3629 c-4 -6 -4 -13 -1 -16 3 -4 6 -1 6 5 0 7 9 12 20 12 25 0
27 -33 3 -58 -49 -49 -49 -52 -2 -50 38 1 39 2 11 5 l-33 4 31 35 c25 29 28
39 20 54 -11 21 -45 27 -55 9z"/>
<path d="M1445 3620 c-16 -18 -16 -20 -3 -15 14 6 17 -2 21 -42 3 -44 4 -43 5
15 1 34 0 62 -1 62 -2 0 -12 -9 -22 -20z"/>
<path d="M6138 3611 c-4 -28 -2 -29 22 -24 21 4 28 1 32 -14 3 -10 3 -24 1
-30 -5 -15 -43 -18 -43 -3 0 6 -5 10 -11 10 -8 0 -8 -5 1 -15 19 -23 49 -18
62 10 13 29 -3 55 -33 55 -30 0 -22 28 9 33 26 4 26 4 -4 6 -28 1 -32 -3 -36
-28z"/>
<path d="M6236 3624 c-11 -30 -6 -40 22 -39 22 0 27 -4 27 -25 0 -28 -32 -41
-47 -18 -8 10 -9 10 -5 -2 5 -21 47 -19 61 3 14 22 -3 51 -33 55 -28 4 -22 24
10 33 l24 7 -26 1 c-16 1 -29 -5 -33 -15z"/>
<path d="M260 3625 c-1 -5 -1 -20 0 -32 1 -18 -4 -23 -22 -24 -20 -1 -21 -2
-3 -6 11 -3 23 -10 26 -15 10 -16 15 15 8 52 -3 19 -7 31 -9 25z"/>
<path d="M872 3378 c-17 -17 -15 -83 4 -99 34 -28 70 29 51 84 -9 28 -35 35
-55 15z m43 -48 c0 -38 -3 -45 -20 -45 -22 0 -31 30 -20 72 4 16 12 23 23 21
13 -3 17 -14 17 -48z"/>
<path d="M975 3367 c-17 -17 -17 -19 -2 -14 15 5 17 0 18 -41 0 -31 3 -41 8
-28 6 16 5 96 -2 101 -1 2 -11 -7 -22 -18z"/>
<path d="M1099 3363 c-16 -42 0 -88 31 -88 51 0 53 106 2 113 -16 3 -25 -4
-33 -25z m56 -5 c3 -13 3 -32 1 -43 -3 -11 -5 -23 -5 -27 -1 -5 -8 -8 -16 -8
-18 0 -35 30 -30 56 2 10 4 25 4 32 2 22 40 13 46 -10z"/>
<path d="M1208 3383 c29 -4 31 -6 20 -26 -16 -31 -27 -87 -17 -87 5 0 9 9 9
20 0 12 9 39 20 60 l20 40 -42 -2 c-37 -1 -39 -2 -10 -5z"/>
<path d="M1335 3379 c-4 -6 -4 -13 -1 -16 3 -4 6 -1 6 5 0 7 9 12 20 12 31 0
25 -39 -12 -77 l-32 -33 45 2 c37 1 39 2 11 5 l-33 4 31 35 c25 29 28 39 20
54 -11 21 -45 27 -55 9z"/>
<path d="M1445 3370 c-16 -18 -16 -20 -3 -15 14 6 17 -2 21 -42 3 -44 4 -43 5
15 1 34 0 62 -1 62 -2 0 -12 -9 -22 -20z"/>
<path d="M6147 3383 c-4 -3 -7 -16 -7 -28 0 -18 5 -21 24 -18 25 5 40 -16 30
-42 -7 -17 -44 -21 -44 -5 0 6 -5 10 -11 10 -8 0 -8 -5 1 -15 19 -23 49 -18
62 10 13 29 -3 55 -33 55 -30 0 -22 28 9 33 l27 4 -26 2 c-14 0 -29 -2 -32 -6z"/>
<path d="M6250 3369 c-22 -18 -22 -21 -5 -17 17 2 21 -4 26 -42 6 -43 6 -42 7
18 1 34 1 62 0 62 -2 -1 -14 -10 -28 -21z"/>
<path d="M248 3373 c6 -2 18 -2 25 0 6 3 1 5 -13 5 -14 0 -19 -2 -12 -5z"/>
<path d="M230 3350 c0 -6 9 -10 20 -10 14 0 20 -7 20 -21 0 -17 -5 -20 -21
-16 -16 4 -19 3 -11 -5 17 -17 44 -1 40 23 -3 22 -48 48 -48 29z"/>
<path d="M1291 3344 c0 -11 3 -14 6 -6 3 7 2 16 -1 19 -3 4 -6 -2 -5 -13z"/>
<path d="M872 3128 c-7 -7 -12 -29 -12 -49 0 -73 62 -78 68 -5 5 54 -26 84
-56 54z m43 -48 c0 -38 -3 -45 -20 -45 -22 0 -31 30 -20 72 4 16 12 23 23 21
13 -3 17 -14 17 -48z"/>
<path d="M960 3125 c-8 -10 -9 -15 -1 -15 6 0 11 5 11 10 0 6 9 10 20 10 30 0
25 -34 -10 -70 -16 -17 -30 -33 -30 -35 0 -3 19 -4 43 -3 38 1 39 2 8 5 l-33
4 27 29 c32 33 31 73 -1 78 -11 2 -27 -4 -34 -13z"/>
<path d="M1099 3113 c-16 -42 0 -88 31 -88 51 0 53 106 2 113 -16 3 -25 -4
-33 -25z m56 -3 c9 -29 -4 -80 -20 -80 -16 0 -32 27 -30 50 1 8 3 23 3 33 3
24 39 22 47 -3z"/>
<path d="M1212 3133 c23 -4 26 -8 19 -21 -16 -31 -30 -92 -20 -92 5 0 9 9 9
20 0 12 9 39 20 60 l20 40 -37 -1 c-30 -2 -32 -3 -11 -6z"/>
<path d="M1335 3129 c-4 -6 -4 -13 -1 -16 3 -4 6 -1 6 5 0 7 9 12 20 12 31 0
25 -39 -12 -77 l-32 -33 45 2 c37 1 39 2 11 5 l-33 4 31 35 c25 29 28 39 20
54 -11 21 -45 27 -55 9z"/>
<path d="M1445 3120 c-16 -18 -16 -20 -3 -15 14 6 17 -2 21 -42 3 -44 4 -43 5
15 1 34 0 62 -1 62 -2 0 -12 -9 -22 -20z"/>
<path d="M6147 3133 c-4 -3 -7 -16 -7 -28 0 -18 5 -21 24 -18 25 5 40 -16 30
-42 -7 -17 -44 -21 -44 -5 0 6 -5 10 -11 10 -8 0 -8 -5 1 -15 19 -23 49 -18
62 10 13 29 -3 55 -33 55 -30 0 -22 28 9 33 l27 4 -26 2 c-14 0 -29 -2 -32 -6z"/>
<path d="M6235 3129 c-4 -6 -4 -13 -1 -16 3 -4 6 -1 6 5 0 7 9 12 20 12 26 0
28 -43 3 -62 -10 -7 -24 -21 -32 -30 -12 -17 -10 -18 30 -16 38 1 39 2 11 5
l-33 4 31 35 c25 29 28 39 20 54 -11 21 -45 27 -55 9z"/>
<path d="M236 3091 c-4 -5 3 -7 14 -4 23 6 26 13 6 13 -8 0 -17 -4 -20 -9z"/>
<path d="M237 3049 c7 -7 15 -10 18 -7 3 3 -2 9 -12 12 -14 6 -15 5 -6 -5z"/>
<path d="M872 2878 c-17 -17 -15 -83 3 -98 8 -6 23 -9 35 -5 20 6 24 24 20 75
-3 37 -34 52 -58 28z m43 -48 c0 -38 -3 -45 -20 -45 -22 0 -31 30 -20 72 4 16
12 23 23 21 13 -3 17 -14 17 -48z"/>
<path d="M965 2880 c-4 -6 -4 -14 -1 -17 3 -4 6 -1 6 5 0 15 27 15 36 0 4 -6
-1 -17 -11 -25 -16 -11 -16 -13 -3 -13 9 0 18 -6 20 -12 8 -20 -2 -38 -21 -38
-9 0 -23 6 -31 13 -12 10 -12 9 -1 -5 26 -35 82 -9 66 29 -4 10 -8 29 -9 43
-1 18 -7 26 -23 28 -11 2 -24 -2 -28 -8z"/>
<path d="M1100 2865 c-13 -35 -13 -58 3 -79 32 -43 81 15 61 72 -13 38 -51 42
-64 7z m56 -10 c8 -34 -3 -75 -21 -75 -21 0 -37 37 -30 71 8 37 42 40 51 4z"/>
<path d="M1212 2883 c25 -4 27 -6 16 -26 -16 -31 -27 -87 -17 -87 5 0 9 9 9
20 0 12 9 39 20 60 l20 40 -37 -1 c-30 -2 -32 -3 -11 -6z"/>
<path d="M1335 2879 c-4 -6 -4 -13 -1 -16 3 -4 6 -1 6 5 0 7 9 12 20 12 30 0
25 -35 -10 -72 -16 -17 -30 -33 -30 -34 0 -2 19 -3 43 -2 37 1 38 2 9 5 l-33
4 31 35 c25 29 28 39 20 54 -11 21 -45 27 -55 9z"/>
<path d="M1445 2870 c-16 -18 -16 -20 -3 -15 14 6 17 -2 21 -42 3 -44 4 -43 5
15 1 34 0 62 -1 62 -2 0 -12 -9 -22 -20z"/>
<path d="M6145 2880 c-4 -6 -4 -14 -1 -17 3 -4 6 -1 6 5 0 15 27 15 36 0 4 -6
0 -17 -10 -23 -15 -11 -15 -13 5 -18 24 -6 22 -25 -5 -41 -14 -8 -20 -8 -23 2
-3 6 -9 12 -15 12 -6 0 -6 -6 2 -15 26 -32 80 -5 65 32 -4 10 -8 29 -9 43 -1
18 -7 26 -23 28 -11 2 -24 -2 -28 -8z"/>
<path d="M6254 2869 c-14 -15 -15 -20 -4 -17 11 2 17 -9 21 -42 6 -43 6 -42 7
18 1 34 0 62 -1 62 -2 0 -12 -9 -23 -21z"/>
<path d="M233 2873 c9 -2 25 -2 35 0 9 3 1 5 -18 5 -19 0 -27 -2 -17 -5z"/>
<path d="M885 2620 c-16 -18 -16 -20 -3 -15 14 6 17 -2 21 -42 3 -44 4 -43 5
15 1 34 0 62 -1 62 -2 0 -12 -9 -22 -20z"/>
<path d="M978 2600 c-34 -47 -34 -50 -4 -50 15 0 26 -7 29 -17 4 -17 5 -17 6
0 0 9 7 17 14 17 9 0 9 2 0 8 -6 4 -13 24 -15 44 l-3 37 -27 -39z m22 -15 c0
-18 -5 -25 -20 -25 -20 0 -20 1 -4 25 9 14 18 25 20 25 2 0 4 -11 4 -25z"/>
<path d="M1099 2613 c-16 -42 0 -88 31 -88 51 0 53 106 2 113 -16 3 -25 -4
-33 -25z m56 -5 c3 -13 3 -32 1 -43 -3 -11 -5 -23 -5 -27 -1 -5 -8 -8 -16 -8
-20 0 -34 38 -28 73 7 34 40 37 48 5z"/>
<path d="M1203 2633 c-7 -2 -13 -9 -13 -14 0 -5 9 -4 19 3 15 9 23 9 38 -3 16
-13 17 -13 4 4 -14 17 -25 20 -48 10z"/>
<path d="M1335 2629 c-4 -6 -4 -13 -1 -16 3 -4 6 -1 6 5 0 7 9 12 20 12 28 0
26 -43 -3 -67 -43 -34 -42 -43 5 -42 42 2 42 2 9 8 l-33 6 22 20 c33 30 43 54
29 71 -14 16 -45 19 -54 3z"/>
<path d="M1445 2620 c-16 -18 -16 -20 -3 -15 14 6 17 -2 21 -42 3 -44 4 -43 5
15 1 34 0 62 -1 62 -2 0 -12 -9 -22 -20z"/>
<path d="M6158 2602 c-34 -51 -34 -52 -4 -52 15 0 26 -7 29 -17 4 -17 5 -17 6
0 0 9 7 17 14 17 9 0 9 2 0 8 -6 4 -13 25 -15 47 l-3 39 -27 -42z m22 -17 c0
-18 -5 -25 -20 -25 -20 0 -20 1 -4 25 9 14 18 25 20 25 2 0 4 -11 4 -25z"/>
<path d="M6235 2630 c-4 -6 -4 -14 -1 -17 3 -4 6 -1 6 5 0 7 9 12 20 12 21 0
27 -24 9 -35 -6 -5 -4 -12 7 -20 10 -7 15 -19 11 -29 -7 -18 -42 -22 -50 -6
-3 6 -4 5 -3 -2 4 -19 41 -21 55 -4 8 9 10 23 6 33 -4 10 -8 29 -9 43 -1 18
-7 26 -23 28 -11 2 -24 -2 -28 -8z"/>
<path d="M235 2620 c-3 -6 1 -7 9 -4 18 7 21 14 7 14 -6 0 -13 -4 -16 -10z"/>
<path d="M237 2589 c7 -7 15 -10 18 -7 3 3 -2 9 -12 12 -14 6 -15 5 -6 -5z"/>
<path d="M1180 2575 c0 -50 49 -72 74 -32 16 26 -4 52 -43 52 -25 1 -31 -3
-31 -20z m65 -15 c0 -29 -32 -41 -41 -16 -9 24 4 48 23 44 12 -2 18 -12 18
-28z"/>
<path d="M885 2370 c-16 -18 -16 -20 -3 -15 14 6 17 -2 21 -42 3 -44 4 -43 5
15 1 34 0 62 -1 62 -2 0 -12 -9 -22 -20z"/>
<path d="M967 2383 c-4 -3 -7 -16 -7 -28 0 -18 5 -21 24 -18 25 5 40 -16 30
-42 -7 -17 -44 -21 -44 -5 0 6 -5 10 -11 10 -8 0 -8 -5 1 -15 19 -23 49 -18
62 10 13 29 -3 55 -33 55 -30 0 -22 28 9 33 l27 4 -26 2 c-14 0 -29 -2 -32 -6z"/>
<path d="M1099 2363 c-16 -42 0 -88 31 -88 51 0 53 106 2 113 -16 3 -25 -4
-33 -25z m57 -8 c8 -34 -3 -75 -21 -75 -21 0 -37 37 -30 71 8 37 42 40 51 4z"/>
<path d="M1203 2383 c-7 -2 -13 -9 -13 -14 0 -5 9 -4 19 3 15 9 23 9 38 -3 16
-13 17 -13 4 4 -14 17 -25 20 -48 10z"/>
<path d="M1335 2379 c-4 -6 -4 -13 -1 -16 3 -4 6 -1 6 5 0 7 9 12 20 12 31 0
25 -39 -12 -77 l-32 -33 45 2 c37 1 39 2 11 5 l-33 4 31 35 c25 29 28 39 20
54 -11 21 -45 27 -55 9z"/>
<path d="M1445 2370 c-16 -18 -16 -20 -3 -15 14 6 17 -2 21 -42 3 -44 4 -43 5
15 1 34 0 62 -1 62 -2 0 -12 -9 -22 -20z"/>
<path d="M6147 2383 c-4 -3 -7 -16 -7 -28 0 -18 5 -21 24 -18 25 5 40 -16 30
-42 -7 -17 -44 -21 -44 -5 0 6 -5 10 -11 10 -8 0 -8 -5 1 -15 19 -23 49 -18
62 10 13 29 -3 55 -33 55 -30 0 -22 28 9 33 l27 4 -26 2 c-14 0 -29 -2 -32 -6z"/>
<path d="M6237 2383 c-4 -3 -7 -16 -7 -28 0 -18 5 -21 24 -18 18 4 26 0 31
-16 3 -11 3 -25 0 -31 -8 -13 -42 -13 -48 0 -3 6 -4 5 -3 -2 4 -19 47 -16 60
5 14 22 -3 51 -33 55 -28 4 -22 24 10 33 l24 7 -26 1 c-14 1 -29 -2 -32 -6z"/>
<path d="M1061 2354 c0 -11 3 -14 6 -6 3 7 2 16 -1 19 -3 4 -6 -2 -5 -13z"/>
<path d="M1291 2344 c0 -11 3 -14 6 -6 3 7 2 16 -1 19 -3 4 -6 -2 -5 -13z"/>
<path d="M1180 2325 c0 -50 49 -72 74 -32 16 26 -4 52 -43 52 -25 1 -31 -3
-31 -20z m65 5 c10 -16 -5 -50 -21 -50 -17 0 -28 24 -20 45 6 17 32 20 41 5z"/>
<path d="M885 2120 c-16 -18 -16 -20 -3 -15 14 6 17 -2 21 -42 3 -44 4 -43 5
15 1 34 0 62 -1 62 -2 0 -12 -9 -22 -20z"/>
<path d="M961 2121 c-35 -64 25 -138 63 -78 14 21 -3 51 -30 54 -15 1 -15 1
-2 -3 33 -10 32 -64 -2 -64 -21 0 -27 13 -26 54 1 35 31 59 47 36 9 -13 10
-13 6 0 -6 23 -44 24 -56 1z"/>
<path d="M1099 2113 c-16 -42 0 -88 31 -88 51 0 53 106 2 113 -16 3 -25 -4
-33 -25z m57 -8 c8 -34 -3 -75 -21 -75 -21 0 -37 37 -30 71 8 37 42 40 51 4z"/>
<path d="M1203 2133 c-7 -2 -13 -9 -13 -14 0 -5 9 -4 19 3 15 9 23 9 38 -3 16
-13 17 -13 4 4 -14 17 -25 20 -48 10z"/>
<path d="M1330 2125 c-9 -10 -9 -15 -1 -15 6 0 11 5 11 10 0 6 9 10 20 10 31
0 25 -39 -12 -77 l-32 -33 45 2 c37 1 39 2 11 5 l-33 4 31 35 c25 29 28 39 20
54 -13 24 -43 26 -60 5z"/>
<path d="M1445 2120 c-16 -18 -16 -20 -3 -15 14 6 17 -2 21 -42 3 -44 4 -43 5
15 1 34 0 62 -1 62 -2 0 -12 -9 -22 -20z"/>
<path d="M6158 2100 c-34 -47 -34 -50 -4 -50 15 0 26 -7 29 -17 4 -17 5 -17 6
0 0 9 7 17 14 17 9 0 9 2 0 8 -6 4 -13 24 -15 44 l-3 37 -27 -39z m22 -15 c0
-16 -6 -25 -15 -25 -18 0 -18 5 -5 31 14 26 20 24 20 -6z"/>
<path d="M6243 2133 c-7 -2 -13 -9 -13 -14 0 -5 9 -4 19 3 15 9 23 9 38 -3 16
-13 17 -13 4 4 -14 17 -25 20 -48 10z"/>
<path d="M1291 2094 c0 -11 3 -14 6 -6 3 7 2 16 -1 19 -3 4 -6 -2 -5 -13z"/>
<path d="M1180 2075 c0 -50 49 -72 74 -32 16 26 -4 52 -43 52 -25 1 -31 -3
-31 -20z m65 -15 c0 -16 -6 -26 -18 -28 -19 -4 -32 20 -23 44 9 25 41 13 41
-16z"/>
<path d="M6220 2075 c0 -50 49 -72 74 -32 16 26 -4 52 -43 52 -25 1 -31 -3
-31 -20z m65 -15 c0 -29 -32 -41 -41 -16 -9 24 4 48 23 44 12 -2 18 -12 18
-28z"/>
<path d="M885 1870 c-16 -18 -16 -20 -3 -15 14 6 17 -2 21 -42 3 -44 4 -43 5
15 1 34 0 62 -1 62 -2 0 -12 -9 -22 -20z"/>
<path d="M977 1883 c32 -4 33 -5 19 -31 -7 -15 -16 -40 -19 -57 -6 -29 -6 -29
5 -5 6 14 19 42 28 63 l17 37 -41 -2 c-37 -1 -37 -2 -9 -5z"/>
<path d="M1099 1863 c-16 -42 0 -88 31 -88 51 0 53 106 2 113 -16 3 -25 -4
-33 -25z m57 -8 c8 -34 -3 -75 -21 -75 -24 0 -38 41 -26 73 13 34 39 35 47 2z"/>
<path d="M1196 1874 c-32 -32 -10 -110 29 -103 50 10 42 76 -9 72 -30 -2 -33
8 -10 28 13 11 19 10 37 -1 20 -12 21 -12 8 3 -17 21 -35 22 -55 1z m49 -64
c0 -16 -6 -26 -18 -28 -19 -4 -32 20 -23 44 9 25 41 13 41 -16z"/>
<path d="M1335 1879 c-4 -6 -4 -13 -1 -16 3 -4 6 -1 6 5 0 7 9 12 20 12 31 0
25 -39 -12 -77 l-32 -33 45 2 c37 1 39 2 11 5 l-33 4 31 35 c25 29 28 39 20
54 -11 21 -45 27 -55 9z"/>
<path d="M1445 1870 c-16 -18 -16 -20 -3 -15 14 6 17 -2 21 -42 3 -44 4 -43 5
15 1 34 0 62 -1 62 -2 0 -12 -9 -22 -20z"/>
<path d="M6140 1861 c0 -24 3 -28 24 -24 25 5 40 -16 30 -42 -7 -17 -44 -21
-44 -5 0 6 -5 10 -11 10 -8 0 -8 -5 1 -15 19 -23 49 -18 62 10 13 29 -3 55
-34 55 -27 0 -17 23 13 31 21 6 21 7 -8 8 -30 1 -33 -2 -33 -28z"/>
<path d="M6241 1881 c-18 -11 -16 -91 2 -103 35 -23 69 29 51 79 -10 30 -30
39 -53 24z m45 -26 c9 -38 -3 -77 -24 -73 -17 3 -29 56 -18 84 9 23 35 16 42
-11z"/>
<path d="M293 1830 c0 -25 2 -35 4 -22 2 12 2 32 0 45 -2 12 -4 2 -4 -23z"/>
<path d="M885 1620 c-16 -18 -16 -20 -3 -15 14 6 17 -2 21 -42 3 -44 4 -43 5
15 1 34 0 62 -1 62 -2 0 -12 -9 -22 -20z"/>
<path d="M967 1634 c-17 -17 -5 -43 24 -53 36 -12 37 -44 2 -49 -17 -3 -22 3
-25 25 -4 23 -6 25 -12 10 -10 -21 9 -47 34 -47 25 0 44 26 35 47 -4 10 -8 29
-9 43 -1 25 -33 40 -49 24z m41 -28 c3 -13 -1 -17 -14 -14 -11 2 -20 11 -22
22 -3 13 1 17 14 14 11 -2 20 -11 22 -22z"/>
<path d="M1099 1616 c-18 -39 0 -91 31 -91 18 0 27 8 34 28 22 62 -39 121 -65
63z m56 -6 c9 -29 -4 -80 -21 -80 -19 0 -33 39 -27 73 6 32 38 37 48 7z"/>
<path d="M1203 1633 c-18 -7 -27 -67 -13 -93 13 -25 47 -24 64 3 16 25 -5 52
-38 50 -23 -2 -25 1 -16 18 12 22 30 24 50 7 12 -11 12 -10 1 5 -13 17 -25 20
-48 10z m42 -73 c0 -16 -6 -26 -18 -28 -19 -4 -32 20 -23 44 9 25 41 13 41
-16z"/>
<path d="M1335 1629 c-4 -6 -4 -13 -1 -16 3 -4 6 -1 6 5 0 7 9 12 20 12 25 0
27 -33 3 -58 -49 -49 -49 -52 -2 -50 38 1 39 2 11 5 l-33 4 31 35 c25 29 28
39 20 54 -11 21 -45 27 -55 9z"/>
<path d="M1445 1620 c-16 -18 -16 -20 -3 -15 14 6 17 -2 21 -42 3 -44 4 -43 5
15 1 34 0 62 -1 62 -2 0 -12 -9 -22 -20z"/>
<path d="M6138 1611 c-4 -28 -2 -29 22 -24 29 5 44 -14 34 -42 -7 -17 -44 -21
-44 -5 0 6 -5 10 -11 10 -8 0 -8 -5 1 -15 19 -23 49 -18 62 10 13 29 -3 55
-33 55 -30 0 -22 28 9 33 26 4 26 4 -4 6 -28 1 -32 -3 -36 -28z"/>
<path d="M6235 1629 c-4 -6 -4 -13 -1 -16 3 -4 6 -1 6 5 0 7 9 12 20 12 30 0
25 -34 -11 -75 l-31 -35 43 2 c38 1 39 2 11 5 l-33 4 31 35 c25 29 28 39 20
54 -11 21 -45 27 -55 9z"/>
<path d="M282 1568 c-19 -19 -14 -28 16 -27 24 2 24 2 4 6 -19 4 -21 7 -11 19
14 17 8 19 -9 2z"/>
<path d="M885 1370 c-16 -18 -16 -20 -3 -15 14 6 17 -2 21 -42 3 -44 4 -43 5
15 1 34 0 62 -1 62 -2 0 -12 -9 -22 -20z"/>
<path d="M960 1370 c-14 -25 3 -61 28 -59 15 1 15 2 1 6 -33 8 -31 63 2 63 19
0 21 -4 23 -45 3 -43 -34 -76 -47 -42 -4 9 -6 9 -6 0 -1 -17 16 -25 39 -18 24
8 36 64 21 94 -15 27 -47 27 -61 1z"/>
<path d="M1099 1363 c-16 -42 0 -88 31 -88 51 0 53 106 2 113 -16 3 -25 -4
-33 -25z m57 -8 c8 -34 -3 -75 -21 -75 -18 0 -35 31 -30 56 2 10 4 25 4 32 2
23 40 13 47 -13z"/>
<path d="M1203 1383 c-7 -2 -13 -9 -13 -14 0 -5 9 -4 19 3 15 9 23 9 38 -3 16
-13 17 -13 4 4 -14 17 -25 20 -48 10z"/>
<path d="M1335 1379 c-4 -6 -4 -13 -1 -16 3 -4 6 -1 6 5 0 7 9 12 20 12 31 0
25 -39 -12 -77 l-32 -33 45 2 c37 1 39 2 11 5 l-33 4 31 35 c25 29 28 39 20
54 -11 21 -45 27 -55 9z"/>
<path d="M1445 1370 c-16 -18 -16 -20 -3 -15 14 6 17 -2 21 -42 3 -44 4 -43 5
15 1 34 0 62 -1 62 -2 0 -12 -9 -22 -20z"/>
<path d="M6158 1350 c-34 -47 -34 -50 -4 -50 15 0 26 -7 29 -17 4 -17 5 -17 6
0 0 9 7 17 14 17 9 0 9 2 0 8 -6 4 -13 24 -15 44 l-3 37 -27 -39z m22 -15 c0
-18 -5 -25 -20 -25 -20 0 -20 1 -4 25 9 14 18 25 20 25 2 0 4 -11 4 -25z"/>
<path d="M6254 1369 c-14 -15 -15 -20 -4 -17 11 2 17 -9 21 -42 6 -43 6 -42 7
18 1 34 0 62 -1 62 -2 0 -12 -9 -23 -21z"/>
<path d="M1291 1344 c0 -11 3 -14 6 -6 3 7 2 16 -1 19 -3 4 -6 -2 -5 -13z"/>
<path d="M1180 1325 c0 -50 49 -72 74 -32 16 26 -4 52 -43 52 -25 1 -31 -3
-31 -20z m65 -15 c0 -16 -6 -26 -18 -28 -19 -4 -32 20 -23 44 9 25 41 13 41
-16z"/>
<path d="M872 1128 c-17 -17 -15 -83 4 -99 34 -28 70 29 51 84 -9 28 -35 35
-55 15z m43 -48 c0 -38 -3 -45 -20 -45 -22 0 -31 30 -20 72 4 16 12 23 23 21
13 -3 17 -14 17 -48z"/>
<path d="M977 1133 c32 -4 33 -5 19 -31 -7 -15 -16 -40 -19 -57 -6 -29 -6 -29
5 -5 6 14 19 42 28 63 l17 37 -41 -2 c-37 -1 -37 -2 -9 -5z"/>
<path d="M1099 1113 c-16 -42 0 -88 31 -88 51 0 53 106 2 113 -16 3 -25 -4
-33 -25z m56 -5 c3 -13 3 -32 1 -43 -3 -11 -5 -23 -5 -27 -1 -5 -8 -8 -16 -8
-16 0 -32 27 -30 50 1 8 3 23 3 33 3 26 41 22 47 -5z"/>
<path d="M1196 1124 c-32 -32 -10 -110 29 -103 50 10 42 76 -10 72 -29 -2 -30
14 -1 31 14 8 20 8 23 -1 3 -7 9 -13 15 -13 6 0 6 6 -2 15 -16 19 -35 19 -54
-1z m49 -64 c0 -29 -32 -41 -41 -16 -9 24 4 48 23 44 12 -2 18 -12 18 -28z"/>
<path d="M1335 1129 c-4 -6 -4 -13 -1 -16 3 -4 6 -1 6 5 0 7 9 12 20 12 31 0
25 -39 -12 -77 l-32 -33 45 2 c37 1 39 2 11 5 l-33 4 31 35 c25 29 28 39 20
54 -11 21 -45 27 -55 9z"/>
<path d="M1445 1120 c-16 -18 -16 -20 -3 -15 14 6 17 -2 21 -42 3 -44 4 -43 5
15 1 34 0 62 -1 62 -2 0 -12 -9 -22 -20z"/>
<path d="M6147 1133 c-4 -3 -7 -16 -7 -29 0 -18 4 -21 21 -17 24 7 39 -11 32
-38 -5 -19 -43 -27 -43 -9 0 6 -5 10 -11 10 -8 0 -8 -5 1 -15 19 -23 49 -18
62 10 13 29 -3 55 -33 55 -30 0 -22 28 9 33 l27 4 -26 2 c-14 0 -29 -2 -32 -6z"/>
<path d="M6243 1133 c-7 -2 -13 -9 -13 -14 0 -5 9 -4 19 3 15 9 23 9 38 -3 16
-13 17 -13 4 4 -14 17 -25 20 -48 10z"/>
<path d="M300 1125 c-1 -5 -1 -20 0 -32 1 -18 -4 -23 -22 -24 -20 -1 -21 -2
-3 -6 11 -3 23 -10 26 -15 10 -16 15 15 8 52 -3 19 -7 31 -9 25z"/>
<path d="M6220 1075 c0 -50 49 -72 74 -32 16 26 -4 52 -43 52 -25 1 -31 -3
-31 -20z m65 5 c10 -16 -5 -50 -21 -50 -17 0 -28 24 -20 45 6 17 32 20 41 5z"/>
<path d="M872 878 c-7 -7 -12 -29 -12 -49 0 -73 62 -78 68 -5 5 54 -26 84 -56
54z m43 -48 c0 -38 -3 -45 -20 -45 -22 0 -31 30 -20 72 4 16 12 23 23 21 13
-3 17 -14 17 -48z"/>
<path d="M967 884 c-4 -4 -7 -17 -6 -28 0 -20 1 -20 9 2 12 27 40 29 40 2 0
-12 -7 -20 -17 -21 -14 0 -12 -3 5 -10 29 -11 26 -43 -6 -47 -21 -3 -27 6 -22
38 1 12 -1 13 -11 2 -10 -9 -11 -17 -3 -30 24 -38 86 -15 69 25 -4 10 -8 29
-9 43 -1 25 -33 40 -49 24z"/>
<path d="M1100 865 c-13 -35 -13 -58 3 -79 32 -43 81 15 61 72 -13 38 -51 42
-64 7z m55 -7 c3 -13 3 -32 1 -43 -3 -11 -5 -23 -5 -27 -1 -5 -8 -8 -16 -8
-21 0 -37 37 -30 71 8 36 42 41 50 7z"/>
<path d="M1203 883 c-7 -2 -13 -9 -13 -14 0 -5 9 -4 19 3 15 9 23 9 38 -3 16
-13 17 -13 4 4 -14 17 -25 20 -48 10z"/>
<path d="M1335 879 c-4 -6 -4 -13 -1 -16 3 -4 6 -1 6 5 0 7 9 12 20 12 30 0
25 -35 -10 -72 -16 -17 -30 -33 -30 -34 0 -2 19 -3 43 -2 37 1 38 2 9 5 l-33
4 31 35 c25 29 28 39 20 54 -11 21 -45 27 -55 9z"/>
<path d="M1445 870 c-16 -18 -16 -20 -3 -15 14 6 17 -2 21 -42 3 -44 4 -43 5
15 1 34 0 62 -1 62 -2 0 -12 -9 -22 -20z"/>
<path d="M6147 883 c-4 -3 -7 -16 -7 -28 0 -18 5 -21 24 -18 25 5 40 -16 30
-42 -7 -17 -44 -21 -44 -5 0 6 -5 10 -11 10 -8 0 -8 -5 1 -15 19 -23 49 -18
62 10 13 29 -3 55 -33 55 -30 0 -22 28 9 33 l27 4 -26 2 c-14 0 -29 -2 -32 -6z"/>
<path d="M6240 875 c-16 -20 -15 -86 2 -97 22 -14 42 -4 52 25 19 54 -23 110
-54 72z m46 -20 c9 -38 -3 -77 -24 -73 -17 3 -29 56 -18 84 9 23 35 16 42 -11z"/>
<path d="M278 873 c6 -2 18 -2 25 0 6 3 1 5 -13 5 -14 0 -19 -2 -12 -5z"/>
<path d="M270 850 c0 -6 7 -10 15 -10 8 0 15 2 15 4 0 2 -7 6 -15 10 -8 3 -15
1 -15 -4z"/>
<path d="M1180 825 c0 -50 49 -72 74 -32 16 26 -4 52 -43 52 -25 1 -31 -3 -31
-20z m65 -15 c0 -29 -32 -41 -41 -16 -9 24 4 48 23 44 12 -2 18 -12 18 -28z"/>
<path d="M871 626 c-17 -20 -10 -87 11 -99 27 -17 48 9 48 58 0 30 -5 45 -16
49 -23 9 -30 8 -43 -8z m44 -46 c0 -38 -3 -45 -20 -45 -22 0 -31 30 -20 72 4
16 12 23 23 21 13 -3 17 -14 17 -48z"/>
<path d="M960 620 c-14 -25 3 -61 28 -59 15 1 15 2 0 6 -34 9 -32 63 2 63 21
0 27 -13 26 -54 -1 -35 -31 -59 -47 -36 -9 13 -10 13 -6 0 10 -40 67 -9 67 36
0 57 -47 87 -70 44z"/>
<path d="M1099 613 c-16 -42 0 -88 31 -88 51 0 53 106 2 113 -16 3 -25 -4 -33
-25z m56 -5 c3 -13 3 -32 1 -43 -3 -11 -5 -23 -5 -27 -1 -5 -8 -8 -16 -8 -20
0 -34 38 -28 73 7 34 40 37 48 5z"/>
<path d="M1203 633 c-7 -2 -13 -9 -13 -14 0 -5 9 -4 19 3 15 9 23 9 38 -3 16
-13 17 -13 4 4 -14 17 -25 20 -48 10z"/>
<path d="M1335 629 c-4 -6 -4 -13 -1 -16 3 -4 6 -1 6 5 0 7 9 12 20 12 28 0
26 -43 -3 -67 -43 -34 -42 -43 5 -42 42 2 42 2 9 8 l-33 6 22 20 c33 30 43 54
29 71 -14 16 -45 19 -54 3z"/>
<path d="M1445 620 c-16 -18 -16 -20 -3 -15 14 6 17 -2 21 -42 3 -44 4 -43 5
15 1 34 0 62 -1 62 -2 0 -12 -9 -22 -20z"/>
<path d="M6158 600 c-34 -47 -34 -50 -4 -50 15 0 26 -7 29 -17 4 -17 5 -17 6
0 0 9 7 17 14 17 9 0 9 2 0 8 -6 4 -13 24 -15 44 l-3 37 -27 -39z m22 -15 c0
-18 -5 -25 -20 -25 -20 0 -20 1 -4 25 9 14 18 25 20 25 2 0 4 -11 4 -25z"/>
<path d="M6237 633 c-17 -16 -5 -42 24 -52 36 -12 37 -44 1 -49 -18 -3 -22 1
-22 25 0 21 -3 24 -9 14 -13 -20 5 -51 28 -51 29 0 47 28 33 50 -7 12 -8 21
-2 25 15 9 -8 45 -29 45 -10 0 -21 -3 -24 -7z m43 -23 c0 -11 -6 -20 -14 -20
-18 0 -29 16 -21 30 11 18 35 11 35 -10z"/>
<path d="M1180 575 c0 -50 49 -72 74 -32 16 26 -4 52 -43 52 -25 1 -31 -3 -31
-20z m65 -15 c0 -29 -32 -41 -41 -16 -9 24 4 48 23 44 12 -2 18 -12 18 -28z"/>
<path d="M277 549 c7 -7 15 -10 18 -7 3 3 -2 9 -12 12 -14 6 -15 5 -6 -5z"/>
<path d="M885 370 c-16 -18 -16 -20 -3 -15 14 6 17 -2 21 -42 3 -44 4 -43 5
15 1 34 0 62 -1 62 -2 0 -12 -9 -22 -20z"/>
<path d="M959 363 c-16 -42 0 -88 31 -88 51 0 53 106 2 113 -16 3 -25 -4 -33
-25z m57 -8 c8 -34 -3 -75 -21 -75 -21 0 -37 37 -30 71 8 37 42 40 51 4z"/>
<path d="M1099 363 c-16 -42 0 -88 31 -88 51 0 53 106 2 113 -16 3 -25 -4 -33
-25z m57 -8 c8 -34 -3 -75 -21 -75 -21 0 -37 37 -30 71 8 37 42 40 51 4z"/>
<path d="M1203 383 c-7 -2 -13 -9 -13 -14 0 -5 9 -4 19 3 15 9 23 9 38 -3 16
-13 17 -13 4 4 -14 17 -25 20 -48 10z"/>
<path d="M1335 379 c-4 -6 -4 -13 -1 -16 3 -4 6 -1 6 5 0 7 9 12 20 12 31 0
25 -39 -12 -77 l-32 -33 45 2 c37 1 39 2 11 5 l-33 4 31 35 c25 29 28 39 20
54 -11 21 -45 27 -55 9z"/>
<path d="M1445 370 c-16 -18 -16 -20 -3 -15 14 6 17 -2 21 -42 3 -44 4 -43 5
15 1 34 0 62 -1 62 -2 0 -12 -9 -22 -20z"/>
<path d="M6158 350 c-34 -47 -34 -50 -4 -50 15 0 26 -7 29 -17 4 -17 5 -17 6
0 0 9 7 17 14 17 9 0 9 2 0 8 -6 4 -13 24 -15 44 l-3 37 -27 -39z m22 -15 c0
-18 -5 -25 -20 -25 -20 0 -20 1 -4 25 9 14 18 25 20 25 2 0 4 -11 4 -25z"/>
<path d="M6247 347 l-26 -42 24 -3 c15 -2 25 -10 26 -20 0 -14 2 -14 6 -2 3 8
11 18 17 22 7 5 7 8 -2 8 -10 0 -12 10 -9 35 7 50 -4 50 -36 2z m23 -12 c0
-16 -6 -25 -15 -25 -18 0 -19 4 -3 30 16 26 18 25 18 -5z"/>
<path d="M273 373 c9 -2 25 -2 35 0 9 3 1 5 -18 5 -19 0 -27 -2 -17 -5z"/>
<path d="M1061 354 c0 -11 3 -14 6 -6 3 7 2 16 -1 19 -3 4 -6 -2 -5 -13z"/>
<path d="M1291 344 c0 -11 3 -14 6 -6 3 7 2 16 -1 19 -3 4 -6 -2 -5 -13z"/>
<path d="M1180 325 c0 -50 49 -72 74 -32 16 26 -4 52 -43 52 -25 1 -31 -3 -31
-20z m65 5 c10 -16 -5 -50 -21 -50 -17 0 -28 24 -20 45 6 17 32 20 41 5z"/>
<path d="M895 120 c-16 -18 -16 -20 -3 -15 14 6 17 -2 21 -42 3 -44 4 -43 5
15 1 34 0 62 -1 62 -2 0 -12 -9 -22 -20z"/>
<path d="M975 120 c-16 -18 -16 -20 -3 -15 14 6 17 -2 21 -42 3 -44 4 -43 5
15 1 34 0 62 -1 62 -2 0 -12 -9 -22 -20z"/>
<path d="M1094 118 c-5 -13 -8 -37 -6 -55 6 -62 72 -49 72 15 0 56 -47 85 -66
40z m52 -13 c9 -38 -3 -77 -24 -73 -17 3 -29 56 -18 84 9 23 35 16 42 -11z"/>
<path d="M1192 128 c-17 -17 -15 -83 3 -98 26 -22 50 -8 50 30 0 32 -3 35 -27
35 -17 -1 -28 5 -28 12 0 20 28 27 47 12 14 -12 16 -12 11 1 -6 19 -40 24 -56
8z m43 -68 c0 -16 -6 -26 -18 -28 -19 -4 -32 20 -23 44 9 25 41 13 41 -16z"/>
<path d="M1327 133 c-14 -13 -7 -25 8 -13 17 14 45 7 45 -13 0 -7 -13 -26 -30
-42 -39 -38 -38 -45 8 -44 l37 2 -35 6 -34 6 26 17 c32 21 44 54 28 73 -13 16
-42 20 -53 8z"/>
<path d="M1435 120 c-16 -18 -16 -20 -3 -15 14 6 17 -2 21 -42 3 -44 4 -43 5
15 1 34 0 62 -1 62 -2 0 -12 -9 -22 -20z"/>
<path d="M2285 120 c-16 -18 -16 -20 -3 -15 14 6 17 -2 21 -42 3 -44 4 -43 5
15 1 34 0 62 -1 62 -2 0 -12 -9 -22 -20z"/>
<path d="M2360 120 c-14 -25 3 -61 28 -59 15 1 15 2 0 6 -34 9 -32 63 3 63 19
0 23 -9 20 -42 -1 -9 3 -19 9 -23 13 -8 13 30 0 56 -14 25 -46 24 -60 -1z"/>
<path d="M2457 133 c-4 -3 -7 -16 -7 -28 0 -16 6 -21 28 -20 22 0 27 -4 27
-25 0 -28 -32 -41 -47 -18 -8 10 -9 10 -5 -2 5 -21 47 -19 61 2 14 23 -3 52
-33 56 -28 4 -22 24 10 33 l24 7 -26 1 c-14 1 -29 -2 -32 -6z"/>
<path d="M2550 123 c0 -12 3 -14 8 -7 4 7 18 14 32 17 21 4 20 4 -7 6 -25 1
-33 -3 -33 -16z"/>
<path d="M3575 129 c-4 -6 -4 -13 -1 -16 3 -4 6 -1 6 5 0 7 9 12 20 12 28 0
26 -43 -3 -67 -43 -34 -42 -43 5 -41 37 1 39 2 10 5 l-33 4 31 35 c25 29 28
39 20 54 -11 21 -45 27 -55 9z"/>
<path d="M3685 120 c-16 -18 -16 -20 -3 -15 14 6 17 -2 21 -42 3 -44 4 -43 5
15 1 34 0 62 -1 62 -2 0 -12 -9 -22 -20z"/>
<path d="M3778 100 c-34 -47 -34 -50 -4 -50 15 0 26 -7 29 -18 4 -16 5 -16 6
1 0 9 7 17 14 17 9 0 9 2 0 8 -6 4 -13 24 -15 44 l-3 37 -27 -39z m22 -15 c0
-18 -5 -25 -20 -25 -20 0 -20 1 -4 25 9 14 18 25 20 25 2 0 4 -11 4 -25z"/>
<path d="M4855 120 c-16 -18 -16 -20 -3 -15 14 6 17 -2 21 -42 3 -44 4 -43 5
15 1 34 0 62 -1 62 -2 0 -12 -9 -22 -20z"/>
<path d="M4931 126 c-33 -39 -1 -124 37 -100 26 17 28 61 3 69 -12 3 -25 3
-31 0 -5 -3 -10 1 -10 10 0 22 27 30 47 14 14 -12 16 -12 11 1 -6 20 -42 24
-57 6z m44 -66 c0 -16 -6 -26 -18 -28 -19 -4 -32 20 -23 44 9 25 41 13 41 -16z"/>
<path d="M5025 130 c-4 -6 -4 -14 -1 -17 3 -4 6 -1 6 5 0 15 27 15 36 0 4 -6
0 -17 -10 -23 -15 -11 -15 -13 5 -18 24 -6 22 -25 -5 -41 -14 -8 -20 -8 -23 2
-3 6 -9 12 -15 12 -6 0 -6 -6 2 -15 26 -32 80 -5 65 32 -4 10 -8 29 -9 43 -1
18 -7 26 -23 28 -11 2 -24 -2 -28 -8z"/>
<path d="M6147 133 c-4 -3 -7 -16 -7 -28 0 -18 5 -21 24 -18 25 5 40 -16 30
-42 -7 -17 -44 -21 -44 -5 0 6 -5 10 -11 10 -8 0 -8 -5 1 -15 19 -23 49 -18
62 10 13 29 -3 55 -33 55 -30 0 -22 28 9 33 l27 4 -26 2 c-14 0 -29 -2 -32 -6z"/>
<path d="M6243 133 c-18 -7 -27 -67 -13 -93 13 -25 47 -24 64 3 16 25 -5 52
-38 50 -23 -2 -25 1 -16 18 12 22 30 24 50 7 12 -11 12 -10 1 5 -13 17 -25 20
-48 10z m42 -73 c0 -29 -32 -41 -41 -16 -9 24 4 48 23 44 12 -2 18 -12 18 -28z"/>
<path d="M2540 93 c0 -5 12 -9 28 -8 21 0 28 -5 30 -23 4 -27 -22 -40 -43 -22
-9 8 -15 8 -15 2 0 -14 33 -24 54 -16 12 5 16 16 14 38 -3 27 -7 31 -35 34
-18 2 -33 -1 -33 -5z"/>
<path d="M2360 43 c0 -6 5 -15 10 -18 13 -8 50 4 50 16 0 5 -9 4 -20 -3 -17
-11 -22 -10 -30 2 -6 9 -10 10 -10 3z"/>
</g>
</svg>
