<svg viewBox="0 0 512 512.00102" xmlns="http://www.w3.org/2000/svg"><path d="m502 302.890625h-44.929688c-8.5625 0-16.855468 3.554687-22.757812 9.757813l-65.3125 68.644531v-131.304688h1c16.542969 0 30-13.457031 30-30s-13.457031-30-30-30h-1v-53.988281c0-5.523438-4.476562-10-10-10s-10 4.476562-10 10v53.988281h-59.652344l-40.601562-19.246093c-.257813-.15625-.519532-.308594-.792969-.445313l-4.34375-2.140625c26.890625-3.582031 47.703125-26.648438 47.703125-54.5 0-30.328125-24.671875-55-55-55-30.324219 0-55 24.671875-55 55 0 13.324219 4.765625 25.550781 12.675781 35.078125-6.175781-.265625-12.308593.542969-18.140625 2.339844l-15.304687-7.550781c-26.5-13.066407-58.691407-2.140626-71.757813 24.359374l-34.570312 70.101563c-4.992188 10.117187-5.710938 21.558594-2.035156 32.222656 3.679687 10.664063 11.304687 19.230469 21.46875 24.121094l10.839843 5.210937c-5.640625 19.375-3.4375 40.324219 6.550781 58.382813l-.882812.882813c0 .003906-.007812.007812-.007812.007812-.003907.003906-.007813.007812-.011719.011719l-48.121094 48.121093c-.058594.058594-.121094.105469-.179687.160157l-24.25 24.25c-3.902344 3.90625-3.902344 10.238281 0 14.144531l45.960937 45.957031c.191406.195313.394531.371094.601563.542969h-54.148438c-5.523438 0-10 4.476562-10 10s4.476562 10 10 10h96c9.566406 0 18.589844-3.699219 25.40625-10.414062l72.789062-71.738282c2.519532-2.480468 5.851563-3.847656 9.386719-3.847656h104.296875c22.996094 0 45.277344-9.554688 61.128906-26.214844l69.792969-73.351562c2.144531-2.253906 5.160157-3.546875 8.269531-3.546875h34.929688v179.113281c0 5.523438 4.480469 10 10 10 5.523438 0 10-4.476562 10-10v-189.109375c0-5.523437-4.476562-10-10-10zm-122-82.902344c0 5.511719-4.484375 10-10 10h-79.386719l4.488281-20h74.898438c5.511719 0 10 4.484375 10 10zm-143.6875-141.332031c19.300781 0 35 15.699219 35 35 0 19.296875-15.699219 35-35 35-19.296875 0-35-15.703125-35-35 0-19.300781 15.703125-35 35-35zm-29.867188 93.472656 31.757813 15.660156c.332031.210938.679687.410157 1.042969.582032l36.34375 17.226562-4.492188 20.007813-40.417968-19.164063c-.0625-.027344-.128907-.050781-.191407-.078125-.09375-.046875-.179687-.105469-.273437-.148437l-22.144532-10.859375c-4.960937-2.429688-10.949218-.378907-13.382812 4.578125-2.429688 4.960937-.382812 10.949218 4.578125 13.382812l13.144531 6.441406-25.761718 52.242188h-66.898438l41.722656-84.605469c8.191406-16.609375 28.363282-23.457031 44.972656-15.265625zm-80.972656 207.871094-14.140625-14.144531c1.636719-1.949219 2.425781-4.40625 2.320313-6.855469h20.007812c-.066406 7.835938-2.953125 15.222656-8.1875 21zm17.503906-58.6875c-4.859374 4.859375-7.949218 11.015625-8.953124 17.6875h-29.566407c-4.253906-12.519531-3.992187-26.125.816407-38.542969.355468-.488281.683593-.996093.953124-1.558593.394532-.820313.65625-1.667969.816407-2.519532.707031-1.480468 1.480469-2.945312 2.328125-4.378906h78.113281l-10 20h-12.027344c-8.492187 0-16.476562 3.308594-22.480469 9.3125zm64.691407 22.605469 20-5.375v27.457031h-20zm20-26.085938-23.222657 6.242188c-1.722656-2.984375-4.066406-5.5625-6.851562-7.5625l12.253906-24.511719h3.734375c7.765625 0 14.085938 6.320312 14.085938 14.082031zm-75.972657-156.371093 3.324219 1.640624c-4.609375 4.296876-8.535156 9.472657-11.484375 15.449219l-8.859375 17.964844-30.753906-14.113281 2.800781-5.671875c8.1875-16.609375 28.363282-23.460938 44.972656-15.269531zm-80.609374 102.222656c-1.921876-5.574219-1.546876-11.5625 1.0625-16.855469l22.925781-46.480469 30.75 14.113282-30.957031 62.773437-2.351563 3.972656-10.199219-4.90625c-5.316406-2.554687-9.304687-7.039062-11.230468-12.617187zm26.132812 116.34375 14.140625 14.140625-34.160156 34.160156-14.140625-14.140625zm-58.417969 58.398437 10.105469-10.105469 14.636719 14.636719c4.589843 4.589844 7.117187 10.6875 7.117187 17.179688 0 2.980469-.535156 5.882812-1.558594 8.59375zm78.566407 48.914063c-3.050782 3.003906-7.089844 4.660156-11.367188 4.660156h-28.914062c.203124-.175781.40625-.351562.601562-.542969 8.367188-8.367187 12.972656-19.488281 12.972656-31.320312 0-5.03125-.839844-9.929688-2.4375-14.542969l50.292969-50.296875c9.769531-9.773437 15.152344-22.761719 15.152344-36.582031v-14.921875c0-3.148438 1.226562-6.109375 3.453125-8.335938 2.226562-2.230469 5.1875-3.453125 8.335937-3.453125h18.132813c2.246094 0 4.078125 1.832032 4.078125 4.082032v79.917968c0 .640625.066406 1.265625.179687 1.875zm96.214843-81.339844h-5.914062v-20h20.664062c13.039063 0 24.160157 8.359375 28.285157 20zm63.742188 0c-3.324219-16.328125-14.632813-29.785156-29.65625-36.109375v-63.808594c0-18.792969-15.292969-34.082031-34.085938-34.082031h-4.636719l21.476563-43.546875 43.390625 20.570313c.347656.167968.707031.300781 1.070312.425781.0625.019531.125.035156.183594.054687.148438.046875.292969.097656.441406.136719.066407.019531.136719.027344.203126.042969.074218.019531.144531.042968.21875.0625.167968.035156.339843.054687.507812.082031.15625.027344.308594.058594.464844.078125.410156.050781.820312.082031 1.226562.082031h.042969 70.828125v147.960938c-9.460938 5.214843-20.183594 8.050781-31.121094 8.050781zm0 0"/><path d="m359 103.171875c2.628906 0 5.210938-1.070313 7.070312-2.929687 1.859376-1.871094 2.929688-4.441407 2.929688-7.070313 0-2.632813-1.070312-5.210937-2.929688-7.070313-1.859374-1.871093-4.441406-2.929687-7.070312-2.929687s-5.210938 1.058594-7.070312 2.929687c-1.859376 1.859376-2.929688 4.4375-2.929688 7.070313 0 2.628906 1.070312 5.199219 2.929688 7.070313 1.859374 1.859374 4.441406 2.929687 7.070312 2.929687zm0 0"/><path d="m452 120c33.082031 0 60-26.917969 60-60 0-33.085938-26.917969-60-60-60-33.085938 0-60 26.914062-60 60 0 33.082031 26.914062 60 60 60zm0-100c22.054688 0 40 17.945312 40 40s-17.945312 40-40 40-40-17.945312-40-40 17.945312-40 40-40zm0 0"/></svg>