<svg id="Capa_1" enable-background="new 0 0 512 512" height="512" viewBox="0 0 512 512" width="512" xmlns="http://www.w3.org/2000/svg"><g><path d="m219.064 150.092c-3.181-2.628-7.889-2.181-10.518.999l-26.017 31.479c-2.283 2.763-2.283 6.757 0 9.519l26.017 31.479c1.478 1.787 3.612 2.711 5.763 2.711 1.676 0 3.363-.561 4.756-1.712 3.18-2.628 3.627-7.338.999-10.518l-22.083-26.719 22.083-26.719c2.628-3.182 2.18-7.891-1-10.519z"/><path d="m291.111 224.566c1.393 1.151 3.08 1.712 4.756 1.712 2.151 0 4.285-.924 5.763-2.711l26.017-31.479c2.283-2.763 2.283-6.757 0-9.519l-26.017-31.479c-2.629-3.18-7.339-3.626-10.518-.999-3.18 2.628-3.627 7.338-.999 10.518l22.083 26.719-22.083 26.719c-2.63 3.182-2.182 7.891.998 10.519z"/><path d="m240.181 226.28c2.803 0 5.491-1.586 6.765-4.291l29.637-62.957c1.757-3.733.156-8.184-3.578-9.942-3.733-1.755-8.184-.157-9.942 3.578l-29.637 62.957c-1.757 3.733-.156 8.184 3.578 9.942 1.028.484 2.111.713 3.177.713z"/><path d="m473.684 17.505h-435.368c-21.127 0-38.316 17.189-38.316 38.316v105.182c0 4.126 3.344 7.471 7.471 7.471s7.471-3.344 7.471-7.471v-43.432h289.468c4.126 0 7.471-3.344 7.471-7.471 0-4.126-3.344-7.471-7.471-7.471h-289.468v-46.808c0-12.889 10.485-23.375 23.375-23.375h435.368c12.889 0 23.375 10.485 23.375 23.375v46.808h-76.895c-.114 0-.225.012-.337.017-.329-.29-.676-.563-1.047-.81-.356-.237-.732-.444-1.124-.617-9.891-4.376-22.537-13.087-26.611-29.73l-2.477-10.115c-1.047-4.271-4.848-7.255-9.246-7.255s-8.199 2.983-9.246 7.256l-2.477 10.116c-4.075 16.642-16.721 25.352-26.612 29.729-.392.173-.767.379-1.124.617-2.768 1.847-4.421 4.937-4.42 8.266 0 3.329 1.654 6.417 4.423 8.263.355.236.73.443 1.121.615 9.891 4.376 22.537 13.087 26.612 29.729l2.477 10.117c1.046 4.271 4.847 7.254 9.245 7.254s8.199-2.982 9.246-7.255l2.477-10.116c4.074-16.642 16.72-25.352 26.611-29.729.391-.172.766-.378 1.121-.615.372-.248.719-.521 1.049-.811.113.005.224.017.338.017h76.895v250.682c0 12.889-10.485 23.375-23.375 23.375h-121.943l40.455-45.219c3.045-3.402 3.556-8.344 1.273-12.302l-41.751-72.315c-2.213-3.852-6.442-6.285-10.902-6.295h-171.456c-4.442.016-8.711 2.433-10.901 6.294l-41.753 72.317c-2.281 3.951-1.772 8.892 1.266 12.295l40.379 45.225h-120.035c-12.889 0-23.375-10.485-23.375-23.375v-171.96c0-4.126-3.344-7.471-7.471-7.471s-7.47 3.345-7.47 7.471v171.959c0 21.127 17.189 38.316 38.316 38.316h132.935c.143 0 .281-.013.422-.021l16.955 18.99c2.747 3.076 7.469 3.345 10.549.597 3.078-2.748 3.345-7.471.597-10.549l-61.024-68.346h66.4l32.411 110.668-13.524-15.147c-2.748-3.078-7.47-3.346-10.549-.597-3.078 2.748-3.345 7.471-.597 10.549l34.2 38.304c3.986 4.635 11.731 4.638 15.723.009l75.559-84.456h135.311c21.127 0 38.316-17.189 38.316-38.316v-312.433c0-21.127-17.189-38.316-38.316-38.316zm-98.512 314.794h-62.803l31.402-54.389.288.499zm-75.743-7.471-31.401-54.389h62.803zm-12.94 7.471h-62.803l31.402-54.389zm-75.742-7.471-31.402-54.389h62.803zm78.692 22.413-34.464 116.97-34.256-116.97zm15.577 0h66.387l-98.986 110.642zm-170.011-14.942 31.401-54.389 31.402 54.389zm244.317-195.638c-4.558-10.881-12.414-19.879-23.189-26.56 10.774-6.682 18.631-15.68 23.189-26.561 4.557 10.881 12.414 19.878 23.189 26.561-10.775 6.68-18.632 15.678-23.189 26.56z"/><path d="m49.504 67.538c0 7.643 6.196 13.838 13.838 13.838 7.643 0 13.839-6.196 13.839-13.838s-6.196-13.838-13.839-13.838c-7.642 0-13.838 6.195-13.838 13.838z"/><path d="m92.074 67.538c0 7.643 6.196 13.838 13.838 13.838 7.643 0 13.839-6.196 13.839-13.838s-6.196-13.838-13.839-13.838c-7.642 0-13.838 6.195-13.838 13.838z"/><path d="m134.644 67.538c0 7.643 6.196 13.838 13.838 13.838 7.643 0 13.839-6.196 13.839-13.838s-6.196-13.838-13.839-13.838c-7.642 0-13.838 6.195-13.838 13.838z"/><path d="m77.181 206.356c-4.398 0-8.199 2.983-9.246 7.255l-2.477 10.116c-4.074 16.643-16.72 25.353-26.611 29.73-.391.172-.766.378-1.121.615-2.77 1.846-4.423 4.936-4.423 8.265s1.653 6.418 4.423 8.265c.355.236.73.443 1.121.615 9.891 4.376 22.537 13.087 26.611 29.731l2.477 10.115c1.047 4.271 4.848 7.255 9.246 7.255s8.199-2.983 9.246-7.256l2.476-10.115c4.075-16.643 16.721-25.353 26.612-29.73.391-.172.766-.378 1.121-.615 2.77-1.846 4.423-4.936 4.423-8.265s-1.653-6.418-4.423-8.265c-.355-.236-.73-.443-1.121-.615-9.891-4.376-22.537-13.087-26.612-29.73l-2.476-10.115s0 0 0-.001c-1.047-4.271-4.848-7.255-9.246-7.255zm23.188 55.98c-10.774 6.682-18.629 15.679-23.188 26.561-4.557-10.882-12.413-19.879-23.188-26.561 10.774-6.682 18.63-15.679 23.188-26.561 4.557 10.882 12.413 19.879 23.188 26.561z"/><path d="m387.566 202.607c8.572 3.793 13.894 9.699 15.817 17.553l1.61 6.581c.969 3.947 4.484 6.705 8.549 6.705s7.581-2.758 8.551-6.71l1.609-6.574c1.923-7.856 7.245-13.763 15.817-17.555.39-.172.765-.378 1.12-.615 2.53-1.686 4.041-4.508 4.041-7.548 0-3.041-1.511-5.863-4.041-7.549-.355-.236-.73-.443-1.12-.615-8.572-3.793-13.894-9.699-15.817-17.555l-1.609-6.575c0-.001-.001-.002-.001-.003-.968-3.948-4.483-6.706-8.55-6.706-4.065 0-7.581 2.758-8.55 6.709l-1.609 6.574c-1.923 7.857-7.245 13.764-15.817 17.556-.39.172-.765.378-1.12.615-2.53 1.686-4.041 4.508-4.041 7.549 0 3.04 1.511 5.862 4.041 7.548.356.237.73.443 1.12.615zm25.976-19.618c2.616 4.394 6.113 8.237 10.424 11.455-4.311 3.219-7.807 7.062-10.423 11.455-2.616-4.393-6.113-8.236-10.424-11.455 4.311-3.218 7.807-7.061 10.423-11.455z"/></g></svg>