<svg xmlns="http://www.w3.org/2000/svg" xml:space="preserve" style="enable-background:new 0 0 122.88 55.57" viewBox="0 0 122.88 55.57"><path d="M112.65 33.03 97.2 24.17l-2.66-1.16-63.21.44v32.08h81.32v-22.5z" style="fill:#fff"/><path d="M84.52 52.58c.76-2.59.47-4.97-.79-6.73-1.15-1.62-3.1-2.56-5.44-2.67l-44.33-.58c-.29 0-.54-.14-.68-.36-.14-.21-.18-.5-.11-.79.14-.43.58-.76 1.04-.79l44.73-.58c5.29-.25 11.06-4.54 13.07-9.8l2.56-6.66c.11-.29.14-.58.07-.86C91.76 9.72 80.13 0 66.23 0c-12.82 0-23.7 8.28-27.59 19.77a13.268 13.268 0 0 0-9.18-2.56c-6.16.61-11.09 5.55-11.7 11.7-.14 1.58-.04 3.13.32 4.57C8.03 33.78 0 41.99 0 52.11c0 .9.07 1.8.18 2.7.07.43.43.76.86.76h81.82c.47 0 .9-.32 1.04-.79l.62-2.2z" style="fill:#f48120"/><path d="M98.64 24.09c-.4 0-.83 0-1.22.04-.29 0-.54.22-.65.5l-1.73 6.01c-.76 2.59-.47 4.97.79 6.73 1.15 1.62 3.1 2.56 5.44 2.67l9.44.58c.29 0 .54.14.68.36.14.22.18.54.11.79-.14.43-.58.76-1.04.79l-9.83.58c-5.33.25-11.06 4.54-13.07 9.79l-.72 1.84c-.14.36.11.72.5.72h33.78c.4 0 .76-.25.86-.65.58-2.09.9-4.29.9-6.55 0-13.32-10.88-24.2-24.24-24.2z" style="fill:#faad3f"/></svg>