<svg id="Capa_1" enable-background="new 0 0 513 513" height="512" viewBox="0 0 513 513" width="512" xmlns="http://www.w3.org/2000/svg"><g><path d="m0 512.458h390v-512h-390zm30-482h330v452h-330z"/><path d="m100.591 169.383-15.935-13.404-19.312 22.958 44.065 37.066 38.772-71.386-26.362-14.318z"/><path d="m100.591 289.383-15.935-13.404-19.312 22.958 44.065 37.066 38.772-71.386-26.362-14.318z"/><path d="m100.591 409.383-15.935-13.404-19.312 22.958 44.065 37.066 38.772-71.386-26.362-14.318z"/><path d="m180 182.458h150v30h-150z"/><path d="m180 302.458h150v30h-150z"/><path d="m180 422.458h150v30h-150z"/><path d="m180 62.458h30v30h-30z"/><path d="m240 62.458h30v30h-30z"/><path d="m120 62.458h30v30h-30z"/><path d="m423 57.458v379.109l45 75.975 45-75.975v-379.109zm60 30v30h-30v-30zm-15 366.216-15-25.325v-280.891h30v280.891z"/></g></svg>