<?xml version="1.0"?>
<svg xmlns="http://www.w3.org/2000/svg" id="Layer_3" data-name="Layer 3" viewBox="0 0 64 64" width="512" height="512"><path d="M55,45.006V41a5.006,5.006,0,0,0-5-5H41.582a28.187,28.187,0,0,0,2.228-5.367l3.8-3.041a3.694,3.694,0,0,0-2.188-6.579l2.228-6.126A10.35,10.35,0,0,0,37.924,1h-8.49A33.865,33.865,0,0,0,11.47,6.152a1,1,0,0,0,.214,1.8l2.411.8a2.568,2.568,0,0,1,1.572,3.389,4.568,4.568,0,0,0,.155,3.739L18.4,21.031a3.689,3.689,0,0,0-2.008,6.561l3.8,3.041A28.187,28.187,0,0,0,22.418,36H14a5.006,5.006,0,0,0-5,5v4.006A13.018,13.018,0,0,0,1,57v5a1,1,0,0,0,1,1H62a1,1,0,0,0,1-1V57A13.018,13.018,0,0,0,55,45.006ZM40,21H34a1,1,0,0,0-1,1v1H31V22a1,1,0,0,0-1-1H21V19.535l6.242-4.161A8.155,8.155,0,0,1,31.78,14a10.212,10.212,0,0,0,6.359-2.231l1.634-1.307,1.715,2.574A8.969,8.969,0,0,1,43,18.028V21Zm-1,2v3a1,1,0,0,1-1,1H36a1,1,0,0,1-1-1V23ZM29,23v3a1,1,0,0,1-1,1H26a1,1,0,0,1-1-1V23Zm18,1.7a1.694,1.694,0,0,1-.638,1.328l-1.813,1.45A28.141,28.141,0,0,0,44.984,23H45.3A1.7,1.7,0,0,1,47,24.7ZM17.523,12.884a4.568,4.568,0,0,0-2.795-6.029l-.306-.1A31.863,31.863,0,0,1,29.434,3h8.49a8.35,8.35,0,0,1,7.847,11.2l-.869,2.39a10.966,10.966,0,0,0-1.75-4.668l-2.32-3.481a1,1,0,0,0-.679-.433,1.01,1.01,0,0,0-.778.207L36.89,10.208A8.215,8.215,0,0,1,31.78,12a10.152,10.152,0,0,0-5.648,1.71l-6.687,4.458a.992.992,0,0,0-.17.146l-1.664-3.329A2.567,2.567,0,0,1,17.523,12.884Zm.116,13.146A1.7,1.7,0,0,1,18.7,23h.314a28.141,28.141,0,0,0,.435,4.48ZM21.016,23H23v3a3,3,0,0,0,3,3h2a3,3,0,0,0,3-3V25h2v1a3,3,0,0,0,3,3h2a3,3,0,0,0,3-3V23h1.984a26.183,26.183,0,0,1-3.711,13H24.727A26.183,26.183,0,0,1,21.016,23ZM14,38H50a3,3,0,0,1,3,3V61H11V41A3,3,0,0,1,14,38ZM3,57a11.016,11.016,0,0,1,6-9.793V61H3Zm58,4H55V47.207A11.017,11.017,0,0,1,61,57Z"/><path d="M32,58a4,4,0,1,0-4-4A4,4,0,0,0,32,58Zm0-6a2,2,0,1,1-2,2A2,2,0,0,1,32,52Z"/><path d="M25.293,48.707l1.414-1.414L23.414,44l3.293-3.293-1.414-1.414-4,4a1,1,0,0,0,0,1.414Z"/><path d="M38.707,48.707l4-4a1,1,0,0,0,0-1.414l-4-4-1.414,1.414L40.586,44l-3.293,3.293Z"/><rect x="27" y="43" width="10" height="2" transform="translate(-22.4 43.189) rotate(-53.119)"/></svg>
