<svg id="Capa_1" enable-background="new 0 0 512 512" height="512" viewBox="0 0 512 512" width="512" xmlns="http://www.w3.org/2000/svg"><g><path d="m45.997 69.191c0 7.727 6.264 13.991 13.991 13.991s13.991-6.264 13.991-13.991-6.264-13.991-13.992-13.991c-7.727 0-13.99 6.264-13.99 13.991z"/><circle cx="103.027" cy="69.191" r="13.991"/><circle cx="146.067" cy="69.191" r="13.991"/><path d="m130.805 275.375c2.989 0 5.816-1.795 6.988-4.742l41.818-105.14c1.535-3.859-.349-8.23-4.208-9.765-3.856-1.532-8.229.349-9.764 4.208l-41.818 105.14c-1.535 3.859.349 8.23 4.208 9.765.911.362 1.851.534 2.776.534z"/><path d="m212.373 269.319c1.186.687 2.482 1.014 3.761 1.014 2.594 0 5.119-1.345 6.513-3.751l28.081-48.48c1.373-2.372 1.348-5.303-.068-7.65l-28.081-46.578c-2.143-3.557-6.766-4.7-10.32-2.557-3.557 2.144-4.701 6.765-2.557 10.32l25.786 42.773-25.854 44.635c-2.081 3.593-.855 8.193 2.739 10.274z"/><path d="m94.575 259.045-25.854-44.635 25.786-42.773c2.144-3.556 1-8.176-2.557-10.32-3.553-2.142-8.176-.999-10.32 2.557l-28.081 46.578c-1.416 2.347-1.441 5.278-.068 7.65l28.081 48.48c1.394 2.407 3.919 3.751 6.513 3.751 1.279 0 2.576-.327 3.761-1.014 3.595-2.081 4.82-6.681 2.739-10.274z"/><path d="m377.032 368.721c-4.066-.832-8.04 1.789-8.873 5.858-2.799 13.675-14.982 23.601-28.968 23.601-16.303 0-29.567-13.264-29.567-29.568s13.264-29.568 29.567-29.568c7.231 0 14.192 2.638 19.599 7.428 3.108 2.753 7.861 2.466 10.613-.642 2.754-3.108 2.467-7.859-.641-10.613-8.159-7.229-18.661-11.21-29.57-11.21-24.595 0-44.604 20.01-44.604 44.605s20.009 44.604 44.604 44.604c21.096 0 39.475-14.981 43.699-35.622.832-4.068-1.792-8.041-5.859-8.873z"/><path d="m455.049 172.682c-13.65-5.577-29.294.993-34.869 14.644-2.701 6.612-2.666 13.881.101 20.467 2.766 6.586 6.682 10.542 14.543 14.402 11.364 5.58 29.636-.706 34.868-14.643 4.591-12.228-.688-29.66-14.643-34.87zm-10.113 36.502c-6.476 0-11.726-5.25-11.726-11.726s5.25-11.726 11.726-11.726 11.726 5.25 11.726 11.726-5.25 11.726-11.726 11.726z"/><path d="m505.005 201.207-4.518-1.846c.051-1.463.043-2.927-.023-4.389l4.499-1.89c5.72-2.401 8.419-9.008 6.018-14.729l-6.176-14.706c-2.3-4.784-7.468-8.406-14.729-6.018l-4.5 1.889c-.999-1.07-2.038-2.101-3.119-3.09l1.844-4.514c1.751-4.023.387-12.136-6.16-14.672l-14.766-6.032c-4.021-1.75-12.137-.384-14.671 6.161l-1.845 4.517c-1.462-.051-2.927-.043-4.389.023l-1.889-4.498c-1.164-2.772-3.336-4.924-6.119-6.061-1.996-.815-4.134-1.028-6.207-.658v-73.349c0-21.341-17.363-38.704-38.704-38.704h-15.759c-4.153 0-7.518 3.366-7.518 7.518s3.366 7.518 7.518 7.518h15.759c13.05 0 23.667 10.617 23.667 23.667v47.36h-398.181v-12.72-34.64c0-13.05 10.617-23.667 23.667-23.667h300.111c4.153 0 7.518-3.366 7.518-7.518s-3.366-7.518-7.518-7.518h-300.111c-21.341.001-38.704 17.363-38.704 38.704v315.878c0 21.341 17.363 38.704 38.704 38.704h28.26c4.153 0 7.518-3.366 7.518-7.518s-3.366-7.518-7.518-7.518h-28.26c-13.05 0-23.667-10.617-23.667-23.667v-253.483h398.182v16.957l-2.076.872c-5.718 2.402-8.417 9.01-6.016 14.729l1.889 4.5c-1.07.999-2.101 2.039-3.089 3.118l-4.517-1.845c-5.739-2.347-12.323.415-14.671 6.161l-6.03 14.764c-1.752 4.023-.386 12.137 6.161 14.671l4.516 1.845c-.05 1.463-.043 2.928.023 4.39l-4.499 1.89c-4.783 2.301-8.405 7.47-6.017 14.73l6.175 14.704c2.302 4.785 7.467 8.407 14.73 6.019l4.5-1.89c.999 1.071 2.038 2.101 3.118 3.09l-1.845 4.518c-2.346 5.743.419 12.323 6.161 14.669l1.487.607v8.8c-2.152-1.191-4.579-1.831-7.106-1.831-3.931 0-7.629 1.532-10.409 4.312l-10.191 10.191c-5.2-2.715-10.625-4.963-16.216-6.721v-14.409c0-8.116-6.603-14.719-14.719-14.719h-30.771c-8.116 0-14.72 6.603-14.72 14.719v14.409c-5.592 1.759-11.014 4.006-16.215 6.721l-10.191-10.191c-5.739-5.739-15.075-5.74-20.817 0l-21.759 21.759c-5.739 5.739-5.739 15.078 0 20.817l10.191 10.191c-2.715 5.201-4.962 10.624-6.72 16.215h-14.408c-8.116 0-14.72 6.603-14.72 14.719v30.772c0 5.547 3.087 10.384 7.631 12.893h-120.406c-4.153 0-7.518 3.366-7.518 7.518s3.366 7.518 7.518 7.518h147.134c.483 1.007.968 2.014 1.486 3.006l-10.191 10.191c-2.78 2.78-4.311 6.477-4.311 10.409s1.532 7.628 4.311 10.408l21.759 21.76c5.743 5.741 15.079 5.74 20.817 0l10.191-10.192c5.201 2.715 10.625 4.963 16.215 6.721v14.409c0 8.116 6.604 14.719 14.72 14.719h30.771c8.116 0 14.719-6.603 14.719-14.719v-14.405c5.592-1.758 11.015-4.006 16.216-6.721l10.191 10.192c2.78 2.78 6.478 4.312 10.409 4.312 3.932 0 7.629-1.532 10.408-4.312l21.758-21.759c2.78-2.78 4.312-6.477 4.312-10.409s-1.531-7.628-4.312-10.409l-10.191-10.191c2.715-5.2 4.962-10.622 6.721-16.215h14.408c8.116 0 14.72-6.603 14.72-14.72v-30.772c0-8.116-6.604-14.719-14.72-14.719h-14.408c-1.759-5.593-4.007-11.016-6.721-16.215l10.195-10.192c5.739-5.739 5.739-15.078 0-20.817l-10.024-10.024v-17.045c3.691 1.035 10.685-.917 12.912-6.706l1.845-4.517c1.461.051 2.926.043 4.39-.023l1.89 4.502c2.403 5.72 9.009 8.416 14.729 6.015l14.705-6.176c4.784-2.3 8.408-7.468 6.019-14.73l-1.889-4.5c1.071-.999 2.101-2.039 3.09-3.118l4.517 1.845c4.022 1.75 12.136.384 14.671-6.161l6.032-14.767c2.343-5.744-.421-12.324-6.162-14.671zm-75.883 152.336h19.779v30.138h-19.779c-3.449 0-6.455 2.346-7.293 5.692-2.026 8.092-5.232 15.826-9.528 22.987-1.775 2.958-1.308 6.744 1.132 9.184l13.99 13.99-21.312 21.311-13.989-13.99c-2.439-2.439-6.224-2.907-9.184-1.132-7.164 4.297-14.898 7.502-22.987 9.528-3.346.837-5.693 3.844-5.693 7.293v19.779h-30.138v-19.779c0-3.449-2.347-6.456-5.693-7.293-8.088-2.025-15.821-5.23-22.986-9.528-2.96-1.774-6.745-1.307-9.184 1.132l-13.989 13.99-21.312-21.311 13.99-13.99c2.439-2.439 2.906-6.225 1.131-9.183-4.297-7.164-7.502-14.898-9.527-22.987-.838-3.346-3.844-5.692-7.293-5.692h-19.779v-30.138h19.779c3.449 0 6.455-2.347 7.293-5.692 2.025-8.089 5.23-15.822 9.527-22.986 1.775-2.958 1.308-6.744-1.131-9.184l-13.99-13.99 21.311-21.311 13.99 13.99c2.44 2.439 6.224 2.906 9.184 1.131 7.163-4.296 14.897-7.502 22.986-9.527 3.346-.837 5.693-3.844 5.693-7.293v-19.779h30.138v19.779c0 3.449 2.347 6.456 5.693 7.293 8.09 2.026 15.824 5.231 22.987 9.527 2.958 1.775 6.744 1.308 9.184-1.131l13.989-13.99 21.312 21.311-13.991 13.99c-2.439 2.439-2.906 6.226-1.131 9.184 4.296 7.16 7.501 14.893 9.528 22.986.838 3.345 3.845 5.691 7.293 5.691zm63.522-132.09-6.139-2.507c-3.193-1.306-6.863-.269-8.904 2.511-2.347 3.197-5.149 6.025-8.329 8.407-2.762 2.068-3.761 5.749-2.426 8.929l2.569 6.117-7.726 3.245-2.569-6.117c-1.335-3.181-4.664-5.042-8.074-4.52-3.925.604-7.906.625-11.833.061-3.418-.492-6.723 1.407-8.028 4.599l-2.507 6.139-7.757-3.169 2.508-6.138c1.304-3.193.268-6.863-2.512-8.904-3.196-2.346-6.025-5.148-8.407-8.329-2.067-2.76-5.747-3.762-8.929-2.425l-6.115 2.569-3.245-7.726 6.116-2.569c3.181-1.336 5.044-4.664 4.52-8.074-.603-3.927-.624-7.908-.061-11.833.49-3.414-1.406-6.723-4.599-8.028l-6.138-2.508 3.169-7.757 6.139 2.508c3.19 1.305 6.862.27 8.904-2.511 2.348-3.197 5.149-6.025 8.328-8.406 2.762-2.068 3.761-5.748 2.426-8.929l-2.569-6.117 7.726-3.245 2.57 6.117c1.336 3.181 4.664 5.045 8.073 4.52 3.928-.604 7.909-.623 11.833-.061 3.416.491 6.722-1.407 8.027-4.599l2.507-6.138 7.757 3.168-2.507 6.139c-1.304 3.192-.268 6.862 2.511 8.904 3.199 2.348 6.027 5.15 8.406 8.328 2.067 2.761 5.746 3.763 8.929 2.426l6.117-2.569 3.245 7.726-6.117 2.569c-3.18 1.336-5.044 4.664-4.52 8.074.603 3.926.624 7.907.062 11.834-.489 3.414 1.407 6.722 4.599 8.026l6.138 2.508z"/></g></svg>