<svg id="Capa_1" enable-background="new 0 0 512 512" height="512" viewBox="0 0 512 512" width="512" xmlns="http://www.w3.org/2000/svg"><g><path d="m109.894 154.876-18.894 18.891-4.394-4.393c-5.857-5.858-15.355-5.858-21.213 0-5.858 5.857-5.858 15.353 0 21.21l15 14.998c5.857 5.857 15.355 5.858 21.213 0l29.5-29.497c5.858-5.857 5.858-15.353 0-21.21-5.857-5.857-15.355-5.857-21.212.001z"/><path d="m166 195.978h90c8.284 0 15-6.715 15-14.998s-6.716-14.998-15-14.998h-90c-8.284 0-15 6.715-15 14.998s6.716 14.998 15 14.998z"/><path d="m109.894 245.866-18.894 18.891-4.394-4.393c-5.857-5.857-15.355-5.857-21.213 0s-5.858 15.354 0 21.21l15 14.998c5.859 5.858 15.355 5.857 21.213 0l29.5-29.497c5.858-5.857 5.858-15.353 0-21.21-5.857-5.857-15.355-5.857-21.212.001z"/><path d="m109.894 335.445-18.894 18.892-4.394-4.393c-5.857-5.857-15.355-5.857-21.213 0s-5.858 15.354 0 21.21l15 14.998c5.859 5.858 15.355 5.857 21.213 0l29.5-29.497c5.858-5.857 5.858-15.354 0-21.21-5.857-5.856-15.355-5.856-21.212 0z"/><path d="m501.745 243.759-35.312-11.769-11.77-35.308c-3.519-10.556-16.954-13.744-24.837-5.862l-42.404 42.399c-18.295-7.706-37.27-11.302-56.422-11.239v-130.99h30c8.284 0 15-6.715 15-14.998v-22.998c0-29.221-23.776-52.994-53-52.994h-270c-29.224 0-53 23.773-53 52.994v413.953c0 8.283 6.716 14.998 15 14.998h228.242c94.606 72.728 233.208 5.324 233.208-114.987 0-19.452-3.786-38.242-11.246-55.967l42.403-42.398c7.87-7.867 4.713-21.309-5.862-24.834zm-170.295 173.194c-27.57 0-50-22.427-50-49.994 0-37.608 40.101-61.59 73.106-44.314l-33.713 33.709c-5.858 5.857-5.858 15.354 0 21.21 5.858 5.858 15.355 5.857 21.213 0l33.713-33.709c17.228 32.904-6.616 73.098-44.319 73.098zm-8.449-386.956c12.682 0 23 10.317 23 22.997v7.999h-240.001c-.382-4.861 1.714-16.588-5.255-30.996zm-293.001 22.997c0-12.681 10.318-22.997 23-22.997s23 10.317 23 22.997v22.997c0 8.283 6.716 14.998 15 14.998h210v134.212c-23.522 5.046-44.943 15.813-62.733 30.77h-72.267c-8.284 0-15 6.715-15 14.998s6.716 14.998 15 14.998h45.237c-11.848 17.526-19.962 37.771-23.204 59.583h-22.033c-8.284 0-15 6.715-15 14.998s6.716 14.998 15 14.998h20.711c1.67 28.428 11.567 54.677 27.341 76.401h-184.052c0-17.65 0-380.006 0-398.953zm301.45 428.951c-63.411 0-115-51.583-115-114.987 0-81.029 82.06-136.62 156.95-107.07l10.98 32.936-7.994 7.993c-52.291-35.631-124.936 1.436-124.936 66.142 0 44.107 35.888 79.991 80 79.991 64.484 0 101.911-72.452 66.149-124.922l7.993-7.993 32.93 10.976c29.633 75.129-26.235 156.934-107.072 156.934zm108.467-188.09-26.517-8.838-8.839-26.513 29.316-29.313 6.467 19.399c1.493 4.478 5.008 7.993 9.487 9.485l19.401 6.467z"/></g></svg>