<svg id="Layer_1" enable-background="new 0 0 511.996 511.996" height="512" viewBox="0 0 511.996 511.996" width="512" xmlns="http://www.w3.org/2000/svg"><g><path d="m107.878 307.279c-.042.017-.084.033-.126.051-21.039 8.659-43.684 33.472-43.684 67.487v116.67c0 11.309 9.2 20.509 20.509 20.509h222.873c4.143 0 7.5-3.357 7.5-7.5s-3.357-7.5-7.5-7.5h-30.27v-78.997c0-4.143-3.357-7.5-7.5-7.5s-7.5 3.357-7.5 7.5v78.997h-12.391v-184.143h12.391v70.146c0 4.143 3.357 7.5 7.5 7.5s7.5-3.357 7.5-7.5v-57.347c5.082 6.757 14.625 7.737 20.967 2.478l37.652-31.223 62.804 24.322c17.068 7.062 34.323 27.716 34.323 53.588v116.67c0 3.037-2.472 5.509-5.509 5.509h-39.697v-129.839c0-4.143-3.357-7.5-7.5-7.5s-7.5 3.357-7.5 7.5v129.839h-30.27c-4.143 0-7.5 3.357-7.5 7.5s3.357 7.5 7.5 7.5h84.968c11.309 0 20.509-9.2 20.509-20.509v-116.67c0-29.149-17.963-56.901-43.683-67.487-.049-.02-.098-.039-.146-.059l-66.987-25.942c-6.712-2.599-26.592-10.299-33.699-13.051l-.016-19.794c16.561-12.303 28.127-30.649 31.378-51.676 21.144 1.788 39.155-14.939 39.155-35.953 0-10.972-4.928-20.808-12.681-27.432v-28.173c0-58.035-47.215-105.25-105.25-105.25s-105.25 47.215-105.25 105.25v28.174c-7.752 6.623-12.68 16.46-12.68 27.431 0 20.959 17.931 37.697 39.07 35.959 3.097 20.988 14.495 39.544 31.404 51.787v19.365c-13.635 5.325-91.977 35.921-100.664 39.313zm126.913 189.717h-95.514v-129.839c0-4.143-3.357-7.5-7.5-7.5s-7.5 3.357-7.5 7.5v129.839h-39.699c-3.037 0-5.509-2.472-5.509-5.509v-116.67c0-28.911 20.51-47.873 34.334-53.592l62.625-24.458 37.82 31.363c6.367 5.282 15.881 4.244 20.942-2.446v171.312zm32.898-208.85c-3.051 2.53-4.845 6.174-5.217 9.707h-12.948c-.386-3.691-2.247-7.246-5.217-9.707l-20.938-17.363c.068-.444.173-1.563.173-2.336v-11.325c20.392 8.759 44.331 9.162 64.861.192l.009 11.199c.002.779.066 1.545.184 2.295zm52.093 2.558-30.864 25.594-11.371-16.841 20.641-17.116zm39.146-129.85c0 12.441-10.779 22.235-23.214 20.978v-41.942c12.427-1.252 23.214 8.5 23.214 20.964zm-182.646 20.978c-12.437 1.257-23.214-8.54-23.214-20.978 0-12.456 10.775-22.218 23.214-20.965zm.097-56.992c-3.41-.21-7.169.091-10.632.917v-20.507c0-49.764 40.486-90.25 90.251-90.25 49.764 0 90.249 40.486 90.249 90.25v20.506c-3.513-.837-7.275-1.123-10.631-.916-2.012-29.662-33.501-47.56-60.369-34.527 0 0-.001 0-.001.001-13.927 6.757-24.562 6.761-38.497 0-27.076-13.137-58.378 5.131-60.37 34.526zm14.903 60.331c0-6.723 0-50.747 0-57.441 0-20.325 21.219-32.51 38.92-23.92 18.073 8.767 33.494 8.781 51.593-.001 17.765-8.616 38.92 3.647 38.92 23.92v56.913c0 16.62-6.415 32.96-18.994 45.524-39.764 39.719-110.439 12.201-110.439-44.995zm22.257 96.946 20.91 17.34-11.37 16.841-31.076-25.769z"/></g></svg>