<svg height="512" viewBox="0 0 64 64" width="512" xmlns="http://www.w3.org/2000/svg"><g id="Outline"><path d="m61 41a1 1 0 0 0 -1 1v15a3 3 0 0 1 -3 3h-50a3 3 0 0 1 -3-3v-36a3 3 0 0 1 3-3h.014a10.529 10.529 0 0 0 1.091 4.447 8.509 8.509 0 0 1 .895 3.789v13.528a8.509 8.509 0 0 1 -.895 3.789 10.53 10.53 0 0 0 -1.105 4.683v3.764a5.006 5.006 0 0 0 5 5 1 1 0 0 0 0-2 3 3 0 0 1 -3-3v-3.764a8.509 8.509 0 0 1 .9-3.789 10.53 10.53 0 0 0 1.1-4.683v-13.528a10.53 10.53 0 0 0 -1.1-4.683 8.509 8.509 0 0 1 -.9-3.789v-3.764a3 3 0 0 1 3-3h10a3 3 0 0 1 3 3v3.764a8.509 8.509 0 0 1 -.895 3.789 10.53 10.53 0 0 0 -1.105 4.683 1 1 0 1 0 2 0 8.509 8.509 0 0 1 .895-3.789 10.53 10.53 0 0 0 1.105-4.683v-3.764a5.006 5.006 0 0 0 -5-5h-10a5.006 5.006 0 0 0 -5 5v2a5.006 5.006 0 0 0 -5 5v36a5.006 5.006 0 0 0 5 5h50a5.006 5.006 0 0 0 5-5v-15a1 1 0 0 0 -1-1z"/><path d="m57 16h-27a1 1 0 0 0 0 2h27a3 3 0 0 1 3 3v17a1 1 0 0 0 2 0v-17a5.006 5.006 0 0 0 -5-5z"/><path d="m16 57h6a5.006 5.006 0 0 0 5-5v-3.764a10.53 10.53 0 0 0 -1.1-4.683 8.509 8.509 0 0 1 -.9-3.789v-9.764a1 1 0 0 0 -2 0v9.764a10.53 10.53 0 0 0 1.105 4.683 8.509 8.509 0 0 1 .895 3.789v3.764a3 3 0 0 1 -3 3h-6a1 1 0 0 0 0 2z"/><path d="m53 22a1 1 0 0 0 -1-1h-18a1 1 0 0 0 -1 1v6a1 1 0 0 0 1 1h10a1 1 0 0 0 0-2h-9v-4h16v4h-3a1 1 0 0 0 0 2h4a1 1 0 0 0 1-1z"/><path d="m31 35a3 3 0 1 0 3-3 3 3 0 0 0 -3 3zm3-1a1 1 0 1 1 -1 1 1 1 0 0 1 1-1z"/><path d="m42 32a3 3 0 1 0 3 3 3 3 0 0 0 -3-3zm0 4a1 1 0 1 1 1-1 1 1 0 0 1 -1 1z"/><path d="m50 32a3 3 0 1 0 3 3 3 3 0 0 0 -3-3zm0 4a1 1 0 1 1 1-1 1 1 0 0 1 -1 1z"/><path d="m34 40a3 3 0 1 0 3 3 3 3 0 0 0 -3-3zm0 4a1 1 0 1 1 1-1 1 1 0 0 1 -1 1z"/><path d="m42 40a3 3 0 1 0 3 3 3 3 0 0 0 -3-3zm0 4a1 1 0 1 1 1-1 1 1 0 0 1 -1 1z"/><path d="m50 40a3 3 0 1 0 3 3 3 3 0 0 0 -3-3zm0 4a1 1 0 1 1 1-1 1 1 0 0 1 -1 1z"/><path d="m37 51a3 3 0 1 0 -3 3 1 1 0 0 0 0-2 1 1 0 1 1 1-1 1 1 0 0 0 2 0z"/><path d="m45 51a3 3 0 1 0 -3 3 3 3 0 0 0 3-3zm-3 1a1 1 0 1 1 1-1 1 1 0 0 1 -1 1z"/><path d="m53 51a3 3 0 1 0 -3 3 3 3 0 0 0 3-3zm-3 1a1 1 0 1 1 1-1 1 1 0 0 1 -1 1z"/><circle cx="56" cy="35" r="1"/><circle cx="56" cy="23" r="1"/><circle cx="56" cy="39" r="1"/><circle cx="56" cy="43" r="1"/><circle cx="56" cy="27" r="1"/><circle cx="30" cy="23" r="1"/><circle cx="30" cy="27" r="1"/><path d="m33 56a1 1 0 0 0 0 2h2a1 1 0 0 0 0-2z"/><path d="m41 56a1 1 0 0 0 0 2h2a1 1 0 0 0 0-2z"/><path d="m49 56a1 1 0 0 0 0 2h2a1 1 0 0 0 0-2z"/><path d="m14 15h6a1 1 0 0 0 0-2h-6a1 1 0 0 0 0 2z"/><path d="m14 19h6a1 1 0 0 0 0-2h-6a1 1 0 0 0 0 2z"/><path d="m14 49h6a1 1 0 0 0 0-2h-6a1 1 0 0 0 0 2z"/><path d="m14 53h6a1 1 0 0 0 0-2h-6a1 1 0 0 0 0 2z"/></g></svg>