<svg id="Layer_1" enable-background="new 0 0 511.933 511.933" height="512" viewBox="0 0 511.933 511.933" width="512" xmlns="http://www.w3.org/2000/svg"><g><path d="m84.546 511.933h75.337c4.143 0 7.5-3.358 7.5-7.5s-3.357-7.5-7.5-7.5h-20.639v-129.839c0-4.142-3.357-7.5-7.5-7.5s-7.5 3.358-7.5 7.5v129.839h-39.698c-3.037 0-5.509-2.472-5.509-5.509v-116.67c0-28.91 20.509-47.871 34.333-53.591l62.626-24.459 37.82 31.363c4.211 3.493 10.233 4.46 15.537 1.955l5.242 8.196c-1.722 16.546-14.408 138.436-16.519 158.715h-23.194c-4.143 0-7.5 3.358-7.5 7.5s3.357 7.5 7.5 7.5h232.504c11.31 0 20.51-9.2 20.51-20.509v-46.989c0-4.142-3.357-7.5-7.5-7.5s-7.5 3.358-7.5 7.5v46.989c0 3.038-2.472 5.509-5.51 5.509h-39.698v-129.839c0-4.142-3.357-7.5-7.5-7.5s-7.5 3.358-7.5 7.5v129.839h-78.832c-1.628-15.637-14.803-142.216-16.52-158.715l5.242-8.196c5.289 2.498 11.31 1.552 15.537-1.955l37.652-31.223 62.805 24.323c17.068 7.062 34.323 27.716 34.323 53.587v34.68c0 4.142 3.357 7.5 7.5 7.5s7.5-3.358 7.5-7.5v-34.68c0-29.149-17.963-56.901-43.684-67.487-.049-.02-.098-.04-.146-.059l-100.685-38.993-.016-19.795c16.598-12.33 28.134-30.692 31.378-51.676 21.143 1.789 39.155-14.94 39.155-35.953 0-10.287-4.334-19.576-11.264-26.155l2.508-44.396c.224-3.963.878-7.907 1.945-11.725 3.391-12.137 7.287-36.909-4.714-66.45-2.989-7.355-12.023-10.08-18.589-5.618-4.983 3.384-16.704 8.155-39.204 2.092-85.749-23.109-117.527 5.036-129.084 32.713-.984 2.356-2.938 4.093-5.227 4.646-15.038 3.637-23.663 14.197-23.663 28.973 0 12.33 1.415 38.568 2.693 59.766-6.929 6.579-11.263 15.867-11.263 26.154 0 20.997 17.97 37.695 39.07 35.958 3.097 20.988 14.495 39.544 31.404 51.787v19.365c-13.61 5.316-91.539 35.751-100.663 39.314-.042.016-.084.033-.126.05-21.039 8.659-43.684 33.471-43.684 67.487v116.669c.001 11.312 9.201 20.512 20.51 20.512zm148.612-15 1.553-14.919 14.918 14.919zm45.617 0h-7.933l-34.132-34.132 2.022-19.43 38.471 38.472zm-11.297-108.531 2.492 23.944-25.368-25.369 2.022-19.43zm-18.854-40.069.463-4.446h13.759l2.169 20.837zm23.811 87.69 2.305 22.142-34.008-34.008 1.87-17.967zm-6.935-107.136h-19.066l-6.728-10.519c7.69-11.388 7.664-11.266 8.24-12.394h16.04c.557 1.085.414.803 8.24 12.394zm2.156-40.804c-1.038.86-1.921 1.837-2.659 2.891h-18.061c-.739-1.054-1.622-2.031-2.66-2.892l-20.957-17.379c.113-.756.191-1.525.191-2.32v-11.325c20.507 8.811 44.482 9.096 64.861.192l.009 11.198c.002.779.066 1.546.184 2.296zm52.094 2.558-30.864 25.594c-4.282-6.342-9.29-13.759-11.371-16.841l20.64-17.116zm15.932-108.873v-41.943c12.692-1.269 23.214 8.761 23.214 20.966 0 12.401-10.73 22.231-23.214 20.977zm-159.432 0c-12.474 1.253-23.214-8.567-23.214-20.977 0-12.309 10.638-22.223 23.214-20.966zm0-66.005v9.007c-4.001-.232-8.357.213-12.426 1.421-1.455-24.92-2.219-42.548-2.219-51.319 0-4.913 1.264-11.75 12.188-14.393 6.913-1.672 12.723-6.697 15.542-13.445 16.973-40.641 69.062-35.405 111.34-24.011 24.333 6.559 39.743 2.655 48.884-2.521 9.327 25.123 5.313 45.984 3.079 53.977-1.356 4.856-2.189 9.875-2.475 14.916l-2.078 36.79c-3.995-1.182-8.331-1.651-12.403-1.414v-9.007c0-16.753-15.565-28.923-31.706-25.216-29.683 6.814-66.283 6.826-96.02 0-16.233-3.722-31.706 8.564-31.706 25.215zm15 69.344c0-7.432 0-61.771 0-69.344 0-7.02 6.531-12.162 13.351-10.596 31.942 7.332 70.851 7.318 102.731 0 6.848-1.57 13.351 3.598 13.351 10.596v68.815c0 35.098-28.666 64.198-63.675 64.214-.004 0-.008 0-.008 0-.108 0-.211-.005-.315-.005-38.663-.155-65.435-30.263-65.435-63.68zm22.257 96.947 20.911 17.34c-16.725 24.769 5.339-7.907-11.371 16.841l-31.076-25.769z"/></g></svg>