<?xml version="1.0" encoding="iso-8859-1"?>
<!-- Generator: Adobe Illustrator 19.0.0, SVG Export Plug-In . SVG Version: 6.00 Build 0)  -->
<svg version="1.1" id="Capa_1" xmlns="http://www.w3.org/2000/svg" xmlns:xlink="http://www.w3.org/1999/xlink" x="0px" y="0px"
	 viewBox="0 0 512 512" style="enable-background:new 0 0 512 512;" xml:space="preserve">
<g>
	<g>
		<path d="M472.717,0H123.016c-20.66,0-37.468,16.808-37.468,37.468v82.929h14.987V37.468c0-12.395,10.085-22.481,22.481-22.481
			h349.701c12.395,0,22.481,10.085,22.481,22.481v249.786c0,12.395-10.085,22.481-22.481,22.481H260.898v14.987h75.52l7.64,48.708
			h-59.681v14.987h69.441c14.097,0,25.657,11.073,26.435,24.979H216.478c0.778-13.906,12.338-24.979,26.435-24.979h6.409l6.91-44.05
			l-14.805-2.322l-5.004,31.893c-19.791,3.124-34.975,20.301-34.975,40.957v13.488h193.834v-13.488
			c0-21.01-15.71-38.421-35.997-41.106l-7.697-49.067h121.128c20.66,0,37.468-16.808,37.468-37.468V37.468
			C510.185,16.808,493.376,0,472.717,0z"/>
	</g>
</g>
<g>
	<g>
		<path d="M297.866,250.286c-12.395,0-22.481,10.085-22.481,22.481s10.085,22.481,22.481,22.481
			c12.395,0,22.481-10.085,22.481-22.481S310.262,250.286,297.866,250.286z M297.866,280.26c-4.132,0-7.494-3.361-7.494-7.494
			s3.361-7.494,7.494-7.494s7.494,3.361,7.494,7.494S301.999,280.26,297.866,280.26z"/>
	</g>
</g>
<g>
	<g>
		<polygon points="115.522,29.974 115.522,120.397 130.509,120.397 130.509,44.962 465.223,44.962 465.223,221.311 252.905,221.311 
			252.905,236.298 480.21,236.298 480.21,29.974 		"/>
	</g>
</g>
<g>
	<g>
		<path d="M241.252,284.347c-1.727-1.727-3.671-3.099-5.74-4.145l2.528-2.529c4.246-4.245,6.585-9.891,6.585-15.896
			s-2.339-11.651-6.584-15.895c-1.852-1.853-3.984-3.318-6.283-4.409c3.647-4.112,5.66-9.335,5.66-14.878
			c0-6.006-2.339-11.651-6.584-15.895c-1.3-1.3-2.743-2.397-4.274-3.327l6.06-6.06c8.763-8.765,8.763-23.027-0.001-31.793
			c-3.948-3.947-9.011-6.1-14.184-6.491v-5.661c0-12.395-10.085-22.481-22.481-22.481h-95.918
			c-12.395,0-22.481,10.085-22.481,22.481v49.863c-8.497-7.987-19.919-12.895-32.472-12.895h-7.494v166.402L1.815,396.508
			l10.598,10.598l40.162-40.163v-156.75c14.305,3.392,24.979,16.272,24.979,31.6v99.415c0,12.395,10.085,22.481,22.481,22.481
			h87.816c-3.086,19.181-17.796,35.09-37.243,39.203l-10.248,2.168L39.902,501.171L50.262,512l97.374-93.159l6.072-1.284
			c26.739-5.657,46.663-28.28,49.404-55.043c8.895-2.997,15.323-11.412,15.323-21.306v-10.082c5.416-0.369,10.463-2.632,14.34-6.508
			l8.478-8.478C250.016,307.374,250.016,293.112,241.252,284.347z M216.723,177.925c1.918,0,3.838,0.73,5.298,2.19
			c2.922,2.922,2.922,7.677,0.001,10.598l-14.132,14.131c-0.26,0.26-0.539,0.491-0.829,0.706c-1.004,0.375-1.983,0.809-2.924,1.326
			c-0.503,0.105-1.02,0.162-1.546,0.162c-2.001,0-3.884-0.779-5.298-2.194v-0.001c-2.922-2.922-2.922-7.675,0-10.596l14.131-14.131
			C212.885,178.655,214.803,177.925,216.723,177.925z M222.43,226.593c0,2.001-0.779,3.884-2.195,5.298l-21.195,21.195
			c-1.415,1.416-3.297,2.195-5.298,2.195s-3.884-0.779-5.298-2.194l-0.001-0.001c-1.415-1.415-2.194-3.297-2.194-5.298
			s0.779-3.884,2.195-5.298l21.195-21.196c0.26-0.26,0.541-0.491,0.829-0.706c1.003-0.375,1.983-0.809,2.923-1.326
			c0.504-0.105,1.02-0.162,1.546-0.162c2.001,0,3.884,0.779,5.299,2.195C221.65,222.709,222.43,224.592,222.43,226.593z
			 M92.542,157.365c0-4.132,3.361-7.494,7.494-7.494h95.918c4.132,0,7.494,3.361,7.494,7.494v9.94
			c-0.912,0.668-1.797,1.39-2.621,2.213l-14.131,14.131c-2.986,2.987-5.006,6.675-5.955,10.685H92.542V157.365z M92.542,209.321
			h89.822c1.083,2.237,2.522,4.311,4.331,6.12c1.3,1.3,2.743,2.397,4.274,3.327l-13.124,13.124
			c-4.246,4.245-6.585,9.891-6.585,15.896c0,6.005,2.338,11.65,6.584,15.895l0.001,0.001c2.499,2.499,5.489,4.316,8.746,5.405
			c-0.689,2.177-1.059,4.467-1.059,6.816c0,5.302,1.827,10.319,5.177,14.345H92.542V209.321z M203.448,341.208
			c-0.001,4.132-3.363,7.494-7.495,7.494h-95.918c-4.132,0-7.494-3.361-7.494-7.494v-35.47v-0.5h102.148
			c-0.177,1.144-0.293,2.303-0.293,3.482c0,6.005,2.338,11.65,6.584,15.895l0.001,0.001c0.772,0.773,1.607,1.46,2.466,2.104V341.208
			z M202.715,281.205c-2.922-2.922-2.922-7.676,0-10.597l14.13-14.13c1.415-1.416,3.297-2.195,5.298-2.195s3.884,0.778,5.299,2.194
			c1.415,1.415,2.194,3.297,2.194,5.298s-0.779,3.884-2.195,5.299l-14.129,14.13c-0.072,0.072-0.15,0.134-0.225,0.203
			c-0.5,0.325-0.98,0.686-1.458,1.055C208.781,284.032,205.124,283.616,202.715,281.205z M230.654,305.543l-8.478,8.478
			c-1.415,1.416-3.297,2.195-5.298,2.195s-3.884-0.779-5.298-2.194l-0.001-0.001c-1.415-1.415-2.194-3.297-2.194-5.299
			c-0.001-1.234,0.298-2.421,0.856-3.483c0.047-0.05,1.29-1.768,1.339-1.816l8.477-8.477c0.072-0.072,0.15-0.135,0.225-0.204
			c0.512-0.333,1.005-0.702,1.494-1.082c1.086-0.593,2.308-0.909,3.58-0.909c2.002,0,3.885,0.779,5.299,2.195
			c1.416,1.415,2.194,3.296,2.194,5.298C232.848,302.246,232.069,304.128,230.654,305.543z"/>
	</g>
</g>
<g>
	<g>
		<rect x="172.972" y="164.359" width="14.987" height="14.987"/>
	</g>
</g>
<g>
	<g>
		<rect x="108.028" y="164.359" width="49.957" height="14.987"/>
	</g>
</g>
<g>
	<g>
		<polygon points="412.768,59.949 412.768,74.936 435.249,74.936 435.249,97.417 450.236,97.417 450.236,59.949 		"/>
	</g>
</g>
<g>
	<g>
		<polygon points="145.497,59.949 145.497,97.417 160.484,97.417 160.484,74.936 182.964,74.936 182.964,59.949 		"/>
	</g>
</g>
<g>
	<g>
		<polygon points="270.839,70.44 270.839,85.427 312.246,85.427 271.345,126.329 281.943,136.927 322.845,96.025 322.845,137.248 
			337.832,137.248 337.832,70.44 		"/>
	</g>
</g>
<g>
	<g>
		
			<rect x="253.251" y="140.032" transform="matrix(0.7071 -0.7071 0.7071 0.7071 -27.9461 227.5822)" width="14.987" height="14.987"/>
	</g>
</g>
<g>
	<g>
		<polygon points="379.903,191.836 420.805,150.934 410.206,140.336 369.305,181.238 369.305,140.015 354.318,140.015 
			354.318,206.823 421.31,206.823 421.31,191.836 		"/>
	</g>
</g>
<g>
	<g>
		
			<rect x="423.904" y="122.248" transform="matrix(0.7071 -0.7071 0.7071 0.7071 34.6118 343.0433)" width="14.987" height="14.987"/>
	</g>
</g>
<g>
	<g>
		<rect x="140.5" y="318.228" width="14.987" height="14.987"/>
	</g>
</g>
<g>
</g>
<g>
</g>
<g>
</g>
<g>
</g>
<g>
</g>
<g>
</g>
<g>
</g>
<g>
</g>
<g>
</g>
<g>
</g>
<g>
</g>
<g>
</g>
<g>
</g>
<g>
</g>
<g>
</g>
</svg>
