<svg id="Capa_1" enable-background="new 0 0 512 512" height="512" viewBox="0 0 512 512" width="512" xmlns="http://www.w3.org/2000/svg"><g><g><path d="m372.589 97.331c4.142 0 7.5-3.357 7.5-7.5s-3.358-7.5-7.5-7.5h-39.26c-4.142 0-7.5 3.357-7.5 7.5s3.358 7.5 7.5 7.5z"/><path d="m329.955 283.678c0 13.235 10.768 24.004 24.004 24.004s24.004-10.769 24.004-24.004-10.769-24.004-24.004-24.004-24.004 10.768-24.004 24.004zm33.008 0c0 4.965-4.04 9.004-9.004 9.004s-9.004-4.039-9.004-9.004 4.039-9.004 9.004-9.004 9.004 4.039 9.004 9.004z"/><path d="m489.011 11.972h-73.204c-12.676 0-22.989 10.313-22.989 22.989v22.229h-117.748c-15.241 0-27.64 12.395-27.64 27.63v221.84c0 15.24 12.399 27.64 27.64 27.64h129.15v101.887h-358.21v-204.897c0-15.467 12.583-28.05 28.05-28.05h143.605c4.142 0 7.5-3.357 7.5-7.5s-3.358-7.5-7.5-7.5h-143.605c-23.738 0-43.05 19.313-43.05 43.05v204.896h-8.083c-12.642.001-22.927 10.285-22.927 22.926v17.989c0 12.642 10.285 22.927 22.926 22.927h37.592c4.142 0 7.5-3.357 7.5-7.5s-3.358-7.5-7.5-7.5h-37.592c-4.371 0-7.926-3.556-7.926-7.927v-17.989c0-4.37 3.556-7.926 7.926-7.926h15.506c.026 0 .051.004.077.004s.051-.004.077-.004h138.988c-.543 13.99 11.434 26.8 25.976 26.764h43.136c14.072.093 26.381-12.171 25.976-26.764h138.981c.026 0 .051.004.077.004s.051-.004.077-.004h15.513c4.371 0 7.926 3.556 7.926 7.926v17.989c0 4.371-3.556 7.927-7.926 7.927h-329.858c-4.142 0-7.5 3.357-7.5 7.5s3.358 7.5 7.5 7.5h329.859c12.642 0 22.926-10.285 22.926-22.927v-17.989c0-12.642-10.285-22.926-22.926-22.926h-8.091v-101.886h13.63c15.235 0 27.63-12.399 27.63-27.64v-66.55c0-4.143-3.358-7.5-7.5-7.5s-7.5 3.357-7.5 7.5v66.55c0 6.97-5.666 12.64-12.63 12.64h-157.78c-6.97 0-12.64-5.67-12.64-12.64v-221.84c0-6.964 5.67-12.63 12.64-12.63h117.749v116.432c0 12.677 10.313 22.989 22.989 22.989h73.204c12.676 0 22.989-10.313 22.989-22.989v-153.661c-.001-12.677-10.314-22.989-22.99-22.989zm-231.349 440.003c0 6.052-4.924 10.976-10.976 10.976h-43.136c-5.163.06-11.392-5.03-10.976-11.764h65.087v.788zm239.338-263.353c0 4.405-3.583 7.989-7.989 7.989h-73.204c-4.405 0-7.989-3.584-7.989-7.989v-123.903c0-.01.001-.019.001-.029s-.001-.019-.001-.029v-29.7c0-4.405 3.583-7.989 7.989-7.989h73.204c4.405 0 7.989 3.584 7.989 7.989z"/><path d="m452.607 168.926c-4.115 0-7.451 3.336-7.451 7.451s3.336 7.451 7.451 7.451 7.451-3.336 7.451-7.451c0-4.116-3.336-7.451-7.451-7.451z"/><path d="m389.837 244.659c3.919.11 8.97-4.597 7.016-10.15l-33.816-89.606c-.026-.068-.053-.136-.081-.204-1.48-3.6-4.95-5.924-8.841-5.924-.003 0-.006 0-.009 0-3.895.004-7.365 2.336-8.839 5.941-.023.057-.045.112-.067.169l-34.126 89.604c-1.474 3.87.468 8.203 4.339 9.678 3.87 1.475 8.204-.469 9.678-4.34l6.66-17.485h44.478l6.591 17.465c1.132 3.002 3.986 4.852 7.017 4.852zm-52.374-37.318 16.628-43.658 16.476 43.658z"/><path d="m170.698 241.146c-1.621-3.94-5.419-6.484-9.679-6.484-.003 0-.007 0-.01 0-4.264.005-8.063 2.558-9.677 6.504-.023.057-.046.113-.067.171l-49.148 129.045c-1.474 3.87.468 8.203 4.339 9.678 2.837.996 7.457.336 9.678-4.34l10.401-27.308h68.615l10.298 27.287c1.463 3.873 5.788 5.831 9.665 4.368 3.875-1.462 5.832-5.789 4.369-9.665l-48.702-129.051c-.028-.068-.054-.136-.082-.205zm-38.452 92.266 28.752-75.492 28.489 75.492z"/><g><g><path d="m438.698 127.303c-.887 0-1.79-.158-2.668-.493-3.871-1.475-5.813-5.808-4.339-9.678l13.041-34.239c.021-.057.043-.112.066-.168 1.276-3.124 4.283-5.147 7.659-5.152h.013c3.371 0 6.377 2.013 7.662 5.129.029.07.056.14.083.21l12.922 34.241c1.462 3.876-.494 8.203-4.369 9.665-3.878 1.462-8.203-.494-9.665-4.368l-6.662-17.653-6.731 17.675c-1.141 2.991-3.99 4.831-7.012 4.831z"/></g></g></g></g></svg>