<svg xmlns="http://www.w3.org/2000/svg" xml:space="preserve" style="enable-background:new 0 0 122.88 100.33" viewBox="0 0 122.88 100.33"><path d="m102.79 7.11 2.59 3.41c.68.9.51 2.19-.39 2.87l-2.75 2.09c.5 1.33.82 2.75.95 4.2l3.13.43c1.12.15 1.9 1.19 1.75 2.31l-.58 4.25a2.044 2.044 0 0 1-2.31 1.75l-3.42-.47c-.61 1.33-1.39 2.55-2.31 3.64l1.92 2.52c.68.9.5 2.19-.4 2.87l-3.41 2.59c-.9.68-2.19.5-2.87-.39l-2.09-2.75c-1.34.5-2.75.82-4.21.95l-.43 3.13a2.051 2.051 0 0 1-2.31 1.75l-4.25-.58a2.051 2.051 0 0 1-1.75-2.31l.47-3.42c-1.32-.61-2.55-1.39-3.64-2.3l-2.52 1.91c-.9.68-2.19.51-2.87-.39l-2.59-3.41c-.68-.9-.51-2.19.39-2.87l2.75-2.09c-.5-1.34-.82-2.75-.95-4.2l-3.13-.43a2.044 2.044 0 0 1-1.75-2.31l.58-4.25c.16-1.12 1.19-1.9 2.31-1.75l3.42.47c.61-1.32 1.39-2.55 2.3-3.64l-1.91-2.52c-.68-.89-.51-2.18.39-2.86l3.41-2.59c.9-.68 2.19-.51 2.87.39l2.09 2.75c1.33-.5 2.75-.82 4.2-.95l.43-3.13A2.059 2.059 0 0 1 88.21.02l4.25.58c1.12.15 1.91 1.19 1.75 2.31l-.47 3.42c1.33.61 2.55 1.39 3.65 2.31l2.52-1.91c.9-.69 2.19-.52 2.88.38zM29.67 67.12v-16.5h8.5c1.58 0 2.78.13 3.61.41.83.27 1.51.77 2.01 1.5.51.74.77 1.63.77 2.68 0 .91-.2 1.71-.59 2.37-.39.67-.93 1.21-1.61 1.62-.43.26-1.03.48-1.79.65.61.21 1.05.4 1.32.61.19.14.46.43.81.87.35.44.59.79.71 1.03l2.48 4.77h-5.76l-2.72-5.03c-.35-.65-.65-1.08-.92-1.27-.37-.25-.79-.38-1.25-.38h-.45v6.68h-5.12v-.01zm17.98 28.73h-9.52l-1.37 4.48h-8.58l10.23-27.19h9.2l10.19 27.19H49l-1.35-4.48zm-1.78-5.89-2.97-9.78-2.98 9.78h5.95zm13.91-16.82h13.98c3.05 0 5.33.72 6.84 2.17 1.51 1.45 2.27 3.52 2.27 6.19 0 2.75-.83 4.9-2.48 6.45-1.65 1.55-4.18 2.32-7.57 2.32h-4.61v10.06h-8.43V73.14zm8.43 11.62h2.07c1.63 0 2.78-.28 3.44-.85.66-.56.99-1.29.99-2.16 0-.85-.29-1.58-.86-2.17-.57-.59-1.65-.89-3.23-.89h-2.41v6.07zm18.06-11.62h8.43v27.19h-8.43V73.14zM34.79 57.32h2.15c.23 0 .68-.08 1.35-.23.34-.07.62-.24.83-.52.22-.28.32-.6.32-.96 0-.53-.17-.95-.51-1.23-.34-.29-.97-.43-1.9-.43h-2.24v3.37zm12.08-6.7h13.65v3.52h-8.53v2.63h7.91v3.36h-7.91v3.25h8.78v3.73h-13.9V50.62zm15.11 11.04 4.84-.3c.1.79.32 1.38.64 1.79.53.66 1.28 1 2.25 1 .72 0 1.29-.17 1.68-.51.39-.34.59-.74.59-1.19 0-.43-.19-.81-.56-1.15-.37-.34-1.24-.65-2.61-.96-2.23-.5-3.82-1.17-4.78-2-.96-.83-1.44-1.89-1.44-3.18 0-.85.25-1.65.74-2.4s1.23-1.35 2.22-1.78c.99-.43 2.34-.64 4.06-.64 2.11 0 3.71.39 4.82 1.18 1.1.79 1.76 2.03 1.97 3.75l-4.79.29c-.13-.75-.4-1.3-.8-1.63-.41-.34-.98-.51-1.69-.51-.59 0-1.04.13-1.34.38-.3.25-.45.56-.45.92 0 .26.13.49.37.71.24.21.8.42 1.7.61 2.23.48 3.83.97 4.79 1.46s1.67 1.1 2.1 1.83c.44.72.66 1.54.66 2.44 0 1.06-.29 2.03-.88 2.92-.58.89-1.4 1.57-2.45 2.03-1.05.46-2.37.69-3.97.69-2.8 0-4.75-.54-5.83-1.62-1.08-1.1-1.69-2.47-1.84-4.13zm15.71-11.04H93.2v4.08H88v12.42h-5.1V54.7h-5.21v-4.08zM60.53 11.46a31.69 31.69 0 0 0-5.51.06c-5.63.54-11.1 2.59-15.62 6.1-5.23 4.05-9.2 10.11-10.73 18.14l-.48 2.51-2.5.44c-2.45.43-4.64 1.02-6.56 1.77-1.86.72-3.52 1.61-4.97 2.66-1.16.84-2.16 1.78-3.01 2.8-2.63 3.15-3.85 7.1-3.82 11.1a20.07 20.07 0 0 0 3.79 11.53c.91 1.25 1.96 2.4 3.16 3.4a15.86 15.86 0 0 0 4.13 2.48c.87.36 1.8.66 2.77.9v7.49c-2-.36-3.84-.9-5.56-1.61-2.27-.94-4.28-2.15-6.05-3.63-1.68-1.4-3.15-2.99-4.4-4.72C1.84 68.28.04 62.66 0 57.06c-.04-5.66 1.72-11.29 5.52-15.85 1.23-1.48 2.68-2.84 4.34-4.04 1.93-1.4 4.14-2.58 6.64-3.55 1.72-.67 3.56-1.23 5.5-1.68 2.2-8.74 6.89-15.47 12.92-20.14 5.64-4.37 12.43-6.92 19.42-7.59 3.67-.35 7.39-.19 11.03.49-.08.33-.15.66-.19 1l-.01.06c-.07.57-.1 1.14-.07 1.72-.77.3-1.49.71-2.14 1.21l-.03.02c-.97.73-1.79 1.67-2.4 2.75zm52.91 19.2c.56.51 1.1 1.04 1.63 1.61 1.07 1.15 2.08 2.45 3.03 3.9 3.2 4.92 4.84 11.49 4.77 17.92-.07 6.31-1.77 12.59-5.25 17.21-2.27 3.01-5.18 5.47-8.67 7.42-2.39 1.34-5.08 2.45-8.01 3.35v-7.75c1.58-.59 3.05-1.25 4.4-2 2.63-1.47 4.78-3.26 6.39-5.41 2.5-3.33 3.73-8.04 3.78-12.87.06-5.07-1.18-10.16-3.59-13.86-.69-1.07-1.45-2.03-2.25-2.89-.31-.33-.62-.64-.94-.94.05-.5.07-1.01.04-1.52.77-.3 1.49-.71 2.14-1.21l.03-.02a9.078 9.078 0 0 0 2.5-2.94zM88.08 12.8c4.61.63 7.83 4.88 7.2 9.49-.63 4.61-4.88 7.84-9.49 7.21-4.61-.63-7.84-4.88-7.2-9.49.64-4.61 4.88-7.84 9.49-7.21z" style="fill-rule:evenodd;clip-rule:evenodd"/></svg>