<svg xmlns="http://www.w3.org/2000/svg" xml:space="preserve" width="800" height="800" viewBox="0 0 64 64"><path d="M61 12.9c0-.5-.5-.9-1-.9-18 0-22-8.3-22.1-8.4-.1-.4-.5-.6-.9-.6H27c-.4 0-.7.2-.9.6C26 3.7 22 12 4 12c-.5 0-1 .4-1 .9 0 .4-1.7 39.9 28.7 48h.6c30.4-8 28.7-47.6 28.7-48zM32 59C6 51.8 4.9 19.9 5 14c16-.3 21.3-6.9 22.6-9h8.8c1.3 2.1 6.6 8.7 22.6 9 .1 5.9-1 37.8-27 45z"/><path d="M32.8 7.4c-.2-.3-.5-.4-.8-.4-.3 0-.6.1-.8.4C31.2 7.4 24 16 9 16c-.5 0-1 .4-1 .9 0 .3-1.4 32.3 23.7 39h.6C57.4 49.3 56 17.3 56 16.9c0-.5-.5-.9-1-.9-14.9 0-22.2-8.6-22.2-8.6zM32 54c-21-5.8-22-30.8-22-36 12.6-.3 19.8-6.3 22-8.5 2.3 2.3 9.4 8.2 22 8.5 0 5.2-1 30.2-22 36z"/><path d="M32 33c-2.8 0-5 2.2-5 5s2.2 5 5 5 5-2.2 5-5-2.2-5-5-5zm0 8c-1.7 0-3-1.3-3-3s1.3-3 3-3 3 1.3 3 3-1.3 3-3 3z"/><path d="M32 29c-2.7 0-5.2 1.3-6.7 3.6-.3.5-.2 1.1.3 1.4.5.3 1.1.2 1.4-.3 1.1-1.7 3-2.7 5-2.7s3.9 1 5 2.7c.2.3.5.4.8.4.2 0 .4-.1.6-.2.5-.3.6-.9.3-1.4-1.5-2.2-4-3.5-6.7-3.5z"/><path d="M32 25c-3.8 0-7.2 1.7-9.5 4.7-.3.4-.3 1.1.2 1.4.4.3 1.1.3 1.4-.2C26 28.4 28.9 27 32 27s6 1.4 7.9 3.9c.2.3.5.4.8.4.2 0 .4-.1.6-.2.4-.3.5-1 .2-1.4-2.3-3-5.7-4.7-9.5-4.7z"/><path d="M19.7 26.8c-.4.4-.3 1.1.1 1.4.4.4 1.1.3 1.4-.1C23.9 24.9 27.8 23 32 23s8.1 1.9 10.8 5.1c.2.2.5.4.8.4.2 0 .5-.1.6-.2.4-.4.5-1 .1-1.4-3-3.8-7.5-5.9-12.3-5.9s-9.3 2.1-12.3 5.8z"/></svg>