<svg xmlns="http://www.w3.org/2000/svg" xml:space="preserve" id="icons" x="0" y="0" style="enable-background:new 0 0 64 64" version="1.1" viewBox="0 0 64 64"><style>.st0{display:none}.st1,.st2,.st3{display:inline;fill:#f1f2f2}.st2,.st3{fill:#5edfc5}.st3{fill:none;stroke:#414042;stroke-miterlimit:10}.st4{fill:#fff}.st4,.st5{display:inline}.st6{fill:#36d7b7}.st7{fill:none;stroke:#414042;stroke-linecap:round;stroke-miterlimit:10}.st8{fill:#f5ab35}.st9{fill:none;stroke:#414042;stroke-miterlimit:10}.st10,.st11{display:inline;fill:#d1d3d4}.st11{fill:#f5ab35}.st12{fill:#fff}.st13{fill:#5edfc5}.st14{clip-path:url(#XMLID_32_);fill:none;stroke:#414042;stroke-width:2;stroke-miterlimit:10}.st15,.st16{display:inline;fill:#36d7b7}.st16{fill:none;stroke:#414042;stroke-miterlimit:10;stroke-dasharray:1}.st17{fill:#414042}.st18,.st19{display:inline;fill:#f9cd86}.st19{fill:#e6e7e8}.st20{fill:#f1f2f2}.st21{display:inline;fill:none;stroke:#414042;stroke-linecap:round;stroke-miterlimit:10}.st22{fill:#bcbec0}.st23{fill:#d1d3d4}.st29{display:inline;fill:#414042}.st30{fill:#e6e7e8}.st33,.st34{display:inline;fill:none;stroke:#36d7b7;stroke-miterlimit:10}.st34{stroke:#f5ab35}.st35{fill:#a7a9ac}.st36{fill:#b88028}</style><g id="XMLID_728_"><path id="XMLID_803_" d="M44 28H12.4v18.4H44l5.8-9.4-5.8-9zm1.2 10.6c-.8 0-1.5-.7-1.5-1.5s.7-1.5 1.5-1.5 1.5.7 1.5 1.5-.7 1.5-1.5 1.5z" class="st8"/><path id="XMLID_798_" d="M46.7 37.1h3c1.1 0 2-.9 2-2v-7.3c0-1.1-.9-2-2-2h-28c-1.1 0-2-.9-2-2s.9-2 2-2h7.5c1.1 0 2-.9 2-2v-2.1" class="st9"/><path id="XMLID_799_" d="M12.9 31v15.2h25.8" class="st9"/><g id="XMLID_804_"><path id="XMLID_806_" d="M20.7 33.8c-.4 0-.7.1-.9.2-.2.2-.4.4-.4.7 0 .3.1.6.4.7.2.2.8.3 1.6.5s1.4.5 1.8.8c.4.3.6.9.6 1.5 0 .7-.3 1.2-.8 1.6-.5.4-1.2.6-2 .6-1.2 0-2.3-.4-3.2-1.3l.8-1c.8.7 1.6 1 2.4 1 .4 0 .8-.1 1-.3.2-.2.4-.4.4-.7 0-.3-.1-.5-.3-.7-.2-.2-.6-.3-1.2-.5-.6-.1-1-.3-1.3-.4-.3-.1-.6-.3-.8-.4-.5-.3-.7-.9-.7-1.6s.3-1.3.8-1.7c.5-.4 1.2-.6 1.9-.6.5 0 1 .1 1.5.2.5.2.9.4 1.3.7l-.7 1c-.2-.2-.5-.4-.9-.5-.5.3-.9.2-1.3.2z" class="st12"/><path id="XMLID_808_" d="M30.8 32.8V34h-4.1v2h3.7v1.2h-3.7v2.1H31v1.2h-5.6v-7.7h5.4z" class="st12"/><path id="XMLID_810_" d="M38.9 39.4c-.8.8-1.8 1.1-2.9 1.1-1.2 0-2.1-.4-2.9-1.1-.8-.8-1.2-1.7-1.2-2.9 0-1.1.4-2.1 1.2-2.9.8-.8 1.8-1.1 2.9-1.1 1.2 0 2.1.4 2.9 1.1s1.2 1.7 1.2 2.9-.4 2.2-1.2 2.9zm-.9-4.8c-.5-.5-1.2-.8-1.9-.8-.8 0-1.4.3-1.9.8s-.8 1.2-.8 2 .3 1.4.8 2c.5.5 1.2.8 1.9.8.8 0 1.4-.3 1.9-.8s.8-1.2.8-2-.3-1.5-.8-2z" class="st12"/></g></g></svg>