<?xml version="1.0" encoding="iso-8859-1"?>
<!-- Generator: Adobe Illustrator 19.0.0, SVG Export Plug-In . SVG Version: 6.00 Build 0)  -->
<svg version="1.1" id="Capa_1" xmlns="http://www.w3.org/2000/svg" xmlns:xlink="http://www.w3.org/1999/xlink" x="0px" y="0px"
	 viewBox="0 0 512.009 512.009" style="enable-background:new 0 0 512.009 512.009;" xml:space="preserve">
<g>
	<g>
		<g>
			<path d="M256.071,293.576c2.574,1.464,5.36,2.165,8.12,2.165c5.689,0,11.218-2.964,14.235-8.253
				c4.491-7.854,1.766-17.865-6.088-22.355c-62.496-35.747-95.802-75.479-104.846-125.054c-4.011-22.089,0.657-54.81,20.128-78.142
				c16.152-19.356,39.492-29.171,69.365-29.171c46.672,0,79.961,25.843,89.058,69.134c8.946,42.599-9.842,97.959-63.055,121.353
				c-8.28,3.656-12.052,13.321-8.404,21.601c3.648,8.28,13.33,12.016,21.592,8.404c69.196-30.422,93.602-102.556,81.94-158.085
				C368.443,49.166,331.55,0.009,256.994,0.009c-49.885,0-78.941,22.267-94.533,40.939c-28.053,33.617-32.189,77.565-27.201,104.997
				C149.583,224.539,211.076,267.848,256.071,293.576z"/>
			<path d="M113.401,310.997c13.729-12.407,29.02-22.613,39.803-29.18c24.201,41.188,61.759,65.265,103.08,65.265
				c40.815,0,78.026-24.095,102.157-65.318c23.349,14.208,58.91,40.442,68.353,67.199c2.37,6.727,8.688,10.934,15.451,10.934
				c1.802,0,3.639-0.302,5.458-0.941c8.537-3.009,13.01-12.371,9.993-20.9c-18.424-52.166-95.261-91.809-98.527-93.469
				c-3.958-2.032-8.591-2.361-12.806-0.888c-4.207,1.464-7.641,4.588-9.505,8.635c-18.104,39.386-47.471,61.972-80.565,61.972
				c-33.209,0-63.694-23.163-81.541-61.972c-1.864-4.047-5.289-7.171-9.505-8.635c-4.224-1.473-8.839-1.136-12.815,0.879
				c-1.349,0.692-33.325,17.102-60.996,42.102c-6.718,6.061-7.242,16.427-1.171,23.136
				C96.326,316.534,106.692,317.049,113.401,310.997z"/>
			<path d="M495.617,479.243H16.383C7.339,479.243,0,486.583,0,495.626S7.339,512,16.383,512h479.234
				c9.043,0,16.392-7.322,16.392-16.374S504.669,479.243,495.617,479.243z"/>
			<path d="M41.498,370.768c-9.239-0.488-16.631,6.745-16.951,15.797c-0.32,9.034,6.754,16.631,15.797,16.942
				c81.381,2.857,135.232,16.306,167.022,32.633c-42.906-4.221-108.484-9.195-179.305-9.195c-9.043,0-16.383,7.331-16.383,16.383
				s7.331,16.383,16.383,16.383c120.004,0,224.601,14.546,225.648,14.696c0.166,0.023,0.332,0.034,0.497,0.052
				c0.14,0.015,0.28,0.032,0.421,0.044c0.457,0.038,0.914,0.064,1.372,0.064c0.464,0,0.924-0.026,1.381-0.064
				c0.135-0.011,0.27-0.028,0.405-0.043c0.168-0.018,0.337-0.029,0.504-0.053c1.038-0.142,105.503-14.696,225.622-14.696
				c9.052,0,16.392-7.331,16.392-16.383s-7.339-16.383-16.392-16.383c-70.814,0-136.375,4.973-179.273,9.194
				c31.791-16.325,85.636-29.775,167.008-32.632c9.034-0.311,16.108-7.898,15.797-16.942c-0.319-9.034-7.73-15.992-16.951-15.797
				c-131.346,4.606-189.04,34.39-214.457,60.126C230.787,405.29,173.119,375.392,41.498,370.768z"/>
			<path d="M70.909,357.349c3.088,5.076,8.475,7.881,14.013,7.881c2.902,0,5.84-0.772,8.502-2.396
				c7.73-4.695,10.188-14.776,5.485-22.506L33.271,232.429c-4.704-7.721-14.768-10.197-22.515-5.485
				c-7.73,4.695-10.188,14.776-5.485,22.506L70.909,357.349z"/>
		</g>
	</g>
</g>
<g>
</g>
<g>
</g>
<g>
</g>
<g>
</g>
<g>
</g>
<g>
</g>
<g>
</g>
<g>
</g>
<g>
</g>
<g>
</g>
<g>
</g>
<g>
</g>
<g>
</g>
<g>
</g>
<g>
</g>
</svg>
