<svg height="511pt" viewBox="1 -11 511.99988 511" width="511pt" xmlns="http://www.w3.org/2000/svg"><path d="m507.949219 232.933594-42.386719-56.027344 1.367188-70.25c.175781-8.953125-5.625-16.929688-14.199219-19.527344l-67.246094-20.367187-40.125-57.679688c-5.121094-7.363281-14.515625-10.417969-22.992187-7.46875l-66.367188 23.09375-66.371094-23.09375c-8.46875-2.945312-17.867187.101563-22.988281 7.46875l-40.125 57.679688-67.246094 20.367187c-8.574219 2.597656-14.375 10.574219-14.199219 19.527344l1.367188 70.25-42.386719 56.027344c-5.402343 7.136718-5.402343 16.996094 0 24.132812l42.386719 56.027344-1.367188 70.25c-.175781 8.953125 5.625 16.933594 14.199219 19.527344l67.246094 20.371094 40.125 57.675781c5.121094 7.363281 14.515625 10.417969 22.988281 7.46875l66.371094-23.09375 66.371094 23.09375c8.46875 2.945312 17.867187-.101563 22.988281-7.46875l40.125-57.679688 67.246094-20.367187c8.574219-2.597656 14.375-10.574219 14.199219-19.527344l-1.367188-70.25 42.386719-56.027344c5.402343-7.136718 5.402343-16.996094 0-24.132812zm-78.464844 61.550781c-2.707031 3.582031-4.132813 7.96875-4.046875 12.457031l1.207031 62.039063-59.40625 17.992187c-4.308593 1.304688-8.050781 4.023438-10.621093 7.71875l-35.429688 50.933594-58.613281-20.394531c-4.257813-1.484375-8.890625-1.484375-13.148438 0l-58.613281 20.394531-35.429688-50.933594c-2.570312-3.695312-6.3125-6.414062-10.621093-7.71875l-59.40625-17.992187 1.207031-62.039063c.085938-4.488281-1.339844-8.875-4.046875-12.453125l-37.4375-49.488281 37.4375-49.484375c2.710937-3.582031 4.136719-7.96875 4.046875-12.457031l-1.207031-62.039063 59.40625-17.992187c4.308593-1.304688 8.050781-4.023438 10.621093-7.71875l35.429688-50.933594 58.617188 20.394531c4.253906 1.480469 8.886718 1.480469 13.144531 0l58.613281-20.394531 35.433594 50.933594c2.570312 3.691406 6.3125 6.414062 10.617187 7.71875l59.40625 17.992187-1.207031 62.039063c-.085938 4.488281 1.339844 8.875 4.046875 12.453125l37.4375 49.488281zm-70.554687-122.816406c7.808593 7.808593 7.808593 20.472656 0 28.285156l-118.382813 118.378906c-7.792969 7.792969-20.464844 7.820313-28.285156 0l-59.191407-59.1875c-7.808593-7.8125-7.808593-20.476562 0-28.285156 7.8125-7.8125 20.476563-7.8125 28.285157 0l45.050781 45.046875 104.238281-104.238281c7.808594-7.8125 20.472657-7.8125 28.285157 0zm0 0"/></svg>