<?xml version="1.0" encoding="iso-8859-1"?>
<!-- Generator: Adobe Illustrator 19.0.0, SVG Export Plug-In . SVG Version: 6.00 Build 0)  -->
<svg xmlns="http://www.w3.org/2000/svg" xmlns:xlink="http://www.w3.org/1999/xlink" version="1.1" id="Layer_1" x="0px" y="0px" viewBox="0 0 503.632 503.632" style="enable-background:new 0 0 503.632 503.632;" xml:space="preserve" width="512" height="512">
<g>
	<path d="M250.996,187.643c-37.22,0-67.51,30.28-67.51,67.5c0,37.22,30.29,67.5,67.51,67.5s67.5-30.28,67.5-67.5   C318.496,217.923,288.216,187.643,250.996,187.643z M250.996,292.643c-20.68,0-37.51-16.82-37.51-37.5   c0-20.68,16.83-37.5,37.51-37.5c20.67,0,37.5,16.82,37.5,37.5C288.496,275.822,271.666,292.643,250.996,292.643z"/>
	<path d="M390.386,177.782c-25.23,0-45.76,20.53-45.76,45.771v30.2c0,51.18-41.63,92.81-92.8,92.81   c-51.18,0-92.82-41.63-92.82-92.81v-30.2c0-25.24-20.53-45.771-45.77-45.771c-25.23,0-45.75,20.53-45.75,45.771v29.64   c0,56.82,26.42,110.61,71.07,145.44v90c0,8.28,6.71,15,15,15h194.79c8.28,0,15-6.72,15-15v-89.13   c45.73-35.22,72.8-90.01,72.8-148.14v-27.81C436.146,198.313,415.626,177.782,390.386,177.782z M333.346,391.923v81.71h-164.79   v-82.52c0-4.84-2.35-9.39-6.29-12.21c-40.57-28.95-64.78-75.94-64.78-125.71v-29.64c0-8.7,7.06-15.771,15.75-15.771   c8.7,0,15.77,7.07,15.77,15.771v30.2c0,67.72,55.09,122.81,122.82,122.81c67.71,0,122.8-55.09,122.8-122.81v-30.2   c0-8.7,7.07-15.771,15.77-15.771c8.69,0,15.75,7.07,15.75,15.771v27.81c0,51.03-24.84,98.99-66.44,128.3   C335.716,382.473,333.346,387.043,333.346,391.923z"/>
	<path d="M192.716,112.632l-2.31,44.48c-0.558,10.95,10.428,18.735,20.52,14.71l40.89-16.25l40.89,16.25   c10.109,4.01,21.078-3.751,20.52-14.71l-2.31-44.48l27.6-33.53c6.871-8.318,2.93-21.036-7.52-23.97l-42.65-11.99l-24.01-36.41   c-5.909-8.98-19.136-8.973-25.04,0l-24.01,36.41l-42.65,11.99c-10.467,2.939-14.379,15.667-7.52,23.97L192.716,112.632z    M237.256,64.333l14.56-22.09l14.56,22.09c1.99,3.01,4.99,5.21,8.47,6.18l25.9,7.28l-16.69,20.27c-2.38,2.89-3.59,6.56-3.4,10.31   l1.4,26.94l-24.7-9.82c-3.541-1.413-7.537-1.414-11.08,0l-24.7,9.82l1.4-26.94c0.19-3.75-1.02-7.42-3.4-10.31l-16.69-20.27   l25.9-7.28C232.266,69.543,235.266,67.342,237.256,64.333z"/>
	<path d="M136.491,145.437c5.858,5.858,15.355,5.858,21.213,0c5.858-5.857,5.858-15.355,0-21.213l-56.409-56.409   c-5.857-5.857-15.355-5.857-21.213,0c-5.858,5.857-5.858,15.355,0,21.213L136.491,145.437z"/>
	<path d="M370.667,145.437l56.409-56.409c5.858-5.857,5.858-15.355,0-21.213c-5.857-5.857-15.355-5.857-21.213,0l-56.409,56.409   c-5.858,5.857-5.858,15.355,0,21.213C355.312,151.295,364.809,151.294,370.667,145.437z"/>
</g>















</svg>
