<?xml version="1.0"?>
<svg xmlns="http://www.w3.org/2000/svg" viewBox="0 0 512 512" width="512" height="512"><g id="_OUTLINE" data-name="/ OUTLINE"><path d="M470.58838,148.40918,456.291,155.59082A221.24467,221.24467,0,0,1,479.84692,248H448v16h31.844A223.9519,223.9519,0,0,1,264,479.84424V448H248v31.84424a222.24381,222.24381,0,0,1-144.62463-59.90576l22.28137-22.28125-11.31348-11.31446L92.06152,408.62451A222.24506,222.24506,0,0,1,32.156,264H64V248H32.156A222.24506,222.24506,0,0,1,92.06152,103.37549l22.28174,22.28174,11.31348-11.31446L103.37537,92.06152A222.24381,222.24381,0,0,1,248,32.15576V64h16V32.147a223.40673,223.40673,0,0,1,61.51953,10.84815l4.96094-15.21094a239.90589,239.90589,0,1,0,140.10791,120.625Z"/><path d="M400,160a72,72,0,1,0-72-72A72.08124,72.08124,0,0,0,400,160Zm0-128a56,56,0,1,1-56,56A56.06322,56.06322,0,0,1,400,32Z"/><polygon points="408 91.313 408 48 392 48 392 84.687 370.343 106.343 381.657 117.657 408 91.313"/><path d="M370.55029,392H392a24,24,0,0,0,0-48h-2.3623l-34.31153-96.07324A24.05158,24.05158,0,0,0,332.72461,232h-14.0957A24.00361,24.00361,0,0,0,296,200H241.88867a7.95642,7.95642,0,0,1-7.15576-4.42285L216.94434,160l1.46777-2.93555a33.3874,33.3874,0,0,0,1.8291-25.6455l-3.29785-9.91114a33.63565,33.63565,0,0,0-47.03369-19.40625l-.61231.30567a32.82848,32.82848,0,0,0-15.4624,42.29882l10.04773,23.36622C163.349,168.03711,162.8158,168,162.27344,168h-3.3877a28.20325,28.20325,0,0,0-27.98535,31.70117L144,304.49805V368a24.02718,24.02718,0,0,0,24,24h1.6792a23.97594,23.97594,0,0,0,23.85351-21.34961l4.83692-43.5332A7.9919,7.9919,0,0,1,206.3208,320H259.165a7.95278,7.95278,0,0,1,7.80957,6.26465l10.43164,46.9414A23.85836,23.85836,0,0,0,300.835,392h1.98145a23.99984,23.99984,0,0,0,23.935-25.76172L323.42041,323.54l25.124,54.03711A23.97316,23.97316,0,0,0,370.55029,392ZM392,360a8,8,0,0,1,0,16H370.55029a7.99081,7.99081,0,0,1-7.353-4.84863L358.01318,360ZM232.97021,218.34375l3.05811-3.05859A24.23471,24.23471,0,0,0,241.88867,216H296a8,8,0,0,1,0,16H238.62744a8,8,0,0,1-5.65723-13.65625ZM220.42236,202.7334a24.44691,24.44691,0,0,0,2.09034,3.44043l-.856.85547A24,24,0,0,0,238.62744,248h.72778l-19.19995,24H205.72656a8.1258,8.1258,0,0,1-2.15454-.28906,7.952,7.952,0,0,1-5.7522-6.49512l-11.16308-72.55859,19.15161-19.15186ZM176.4502,116.71875l.6123-.30566a17.86754,17.86754,0,0,1,7.99268-1.89161,17.58448,17.58448,0,0,1,16.70605,12.03614l3.29932,9.915a17.49315,17.49315,0,0,1-.959,13.43554l-2.67627,5.35254L183.49866,173.1875,168.5332,138.38574A16.81624,16.81624,0,0,1,176.4502,116.71875ZM308.67139,373.45117A7.91835,7.91835,0,0,1,302.81641,376H300.835a7.95278,7.95278,0,0,1-7.80957-6.26465L282.59375,322.794A23.85836,23.85836,0,0,0,259.165,304H206.3208a23.97594,23.97594,0,0,0-23.85351,21.34961l-4.83692,43.5332A7.9919,7.9919,0,0,1,169.6792,376H168a8.00917,8.00917,0,0,1-8-8V303.502L146.77686,197.7168A12.20294,12.20294,0,0,1,158.88574,184h3.3877a7.95782,7.95782,0,0,1,7.90625,6.7793l11.82617,76.87011A23.87072,23.87072,0,0,0,205.72656,288h91.47315a8.03834,8.03834,0,0,1,7.97558,7.37793l5.6211,72.05273A7.91754,7.91754,0,0,1,308.67139,373.45117ZM301.794,272H240.64478l19.2-24h72.87988a8.01807,8.01807,0,0,1,7.53418,5.30859L372.64819,344h-22.073l-27.01807-58.11816A24.08322,24.08322,0,0,0,301.794,272Z"/></g></svg>
