<?xml version="1.0" encoding="UTF-8"?>
<svg xmlns="http://www.w3.org/2000/svg" id="outline" viewBox="0 0 512 512" width="512" height="512"><path d="M208,291.314v14.052a30.681,30.681,0,0,0,24,29.9v11.788L222.111,352H208a32.036,32.036,0,0,0-32,32V488a8,8,0,0,0,8,8H304a8,8,0,0,0,8-8V411.313l29.657-29.656a8.055,8.055,0,0,0,.731-.866l.012.009,48-64a8,8,0,0,0-.743-10.457L326.235,242.92A43.16,43.16,0,0,0,328,230.7V200a8,8,0,0,0-11.578-7.155l-15.046,7.523a24.721,24.721,0,0,1-24.71-1.538A40.531,40.531,0,0,0,254.11,192H230.138A46.19,46.19,0,0,0,184,238.138v3.334a61.983,61.983,0,0,0,18.273,44.115Zm16,14.052V259.313l9.17-9.169A102.9,102.9,0,0,0,284.845,264H288v41.366A14.65,14.65,0,0,1,273.366,320H238.634A14.65,14.65,0,0,1,224,305.366Zm80,0V291.314L324.687,312l-18.344,18.343L286.42,350.266l-6.42-3.21V335.268A30.681,30.681,0,0,0,304,305.366ZM248,352V336h16v16a8,8,0,0,0,4.422,7.155l10.9,5.448A16.023,16.023,0,0,1,264,376H248a16.023,16.023,0,0,1-15.318-11.4l10.9-5.448A8,8,0,0,0,248,352Zm-56,88h16v40H192Zm106.343-37.657A8,8,0,0,0,296,408v72H224V400H208v24H192V384a16.019,16.019,0,0,1,16-16h9.013A32.054,32.054,0,0,0,248,392h16a32.046,32.046,0,0,0,31.81-28.5l14.6-14.6,15.515,25.858Zm75.094-89.593-36.7,48.931L322.074,337.24l19.583-19.583a8,8,0,0,0,0-11.314l-37.225-37.225a42.98,42.98,0,0,0,14.019-11.354ZM200,238.138A30.172,30.172,0,0,1,230.138,208H254.11a24.574,24.574,0,0,1,13.681,4.143,40.753,40.753,0,0,0,40.741,2.535L312,212.944V230.7a27.056,27.056,0,0,1-9.519,20.621A7.981,7.981,0,0,0,296,248H284.845a86.994,86.994,0,0,1-48.407-14.656,8,8,0,0,0-10.095,1l-16,16A8,8,0,0,0,208,256v11.523a46.051,46.051,0,0,1-8-26.051Z"/><path d="M235.241,156.952l13.9,23.164a8,8,0,0,0,13.72,0l13.9-23.164a72,72,0,1,0-41.518,0ZM256,32a56,56,0,0,1,13.609,110.327,8,8,0,0,0-4.922,3.646L256,160.451l-8.687-14.478a8,8,0,0,0-4.922-3.646A56,56,0,0,1,256,32Z"/><path d="M416,56a79.993,79.993,0,0,0-61.3,131.39l-2.661,27.849a8,8,0,0,0,11.04,8.146l27.6-11.5A80,80,0,1,0,416,56Zm0,144a63.725,63.725,0,0,1-22.712-4.162,8,8,0,0,0-5.917.094l-18.139,7.556,1.722-18.016a8,8,0,0,0-2.074-6.176A63.991,63.991,0,1,1,416,200Z"/><path d="M96,248a79.394,79.394,0,0,0,29.084-5.469l28.006,9.5a8,8,0,0,0,10.465-8.873l-4.306-26.2A79.986,79.986,0,1,0,96,248Zm0-144a63.98,63.98,0,0,1,48.687,105.513,8,8,0,0,0-1.81,6.491L145.6,232.6l-18.227-6.185a8,8,0,0,0-5.775.246A64,64,0,1,1,96,104Z"/><rect x="80" y="208" width="16" height="16"/><path d="M85.171,142.143A20.836,20.836,0,0,1,100,136a12,12,0,0,1,0,24,20.023,20.023,0,0,0-20,20v12H96V180a4,4,0,0,1,4-4,28,28,0,0,0,0-56,36.734,36.734,0,0,0-26.143,10.829l-7.514,7.514,11.314,11.314Z"/><path d="M440,104a8,8,0,0,0-8-8H384a8,8,0,0,0-8,8v64a8,8,0,0,0,8,8h48a7.981,7.981,0,0,0,2.63-.451l8.373,6.7L453,169.753l-13-10.4Zm-48,56V112h32v34.555l-11-8.8L403,150.247,415.194,160Z"/><rect x="248" y="48" width="16" height="16"/><path d="M272,120h-8V88a8,8,0,0,0-8-8H240V96h8v24h-8v16h32Z"/></svg>
