<svg xmlns="http://www.w3.org/2000/svg" xml:space="preserve" width="800" height="800" viewBox="0 0 25.925 25.925"><path d="M1.843 12.962c0 4.401 2.557 8.205 6.267 10.008L2.805 8.437a11.088 11.088 0 0 0-.962 4.525zm18.626-.562c0-1.374-.493-2.326-.917-3.066-.563-.917-1.092-1.691-1.092-2.608 0-1.021.775-1.973 1.867-1.973.049 0 .096.006.145.008a11.08 11.08 0 0 0-7.509-2.919 11.104 11.104 0 0 0-9.291 5.013c.261.008.507.013.716.013 1.163 0 2.963-.142 2.963-.142.599-.035.67.846.071.917 0 0-.603.07-1.272.105l4.049 12.045 2.434-7.298-1.732-4.747a20.74 20.74 0 0 1-1.167-.105c-.6-.036-.529-.953.07-.917 0 0 1.836.142 2.928.142 1.163 0 2.964-.142 2.964-.142.6-.035.67.846.071.917 0 0-.604.07-1.272.105l4.018 11.953 1.11-3.706c.564-1.445.846-2.642.846-3.595zm-7.311 1.535-3.337 9.694a11.121 11.121 0 0 0 6.835-.177 1.229 1.229 0 0 1-.08-.153l-3.418-9.364zm9.562-6.308c.049.354.075.734.075 1.144 0 1.128-.212 2.396-.846 3.982l-3.396 9.82a11.114 11.114 0 0 0 5.529-9.611c0-1.934-.494-3.752-1.362-5.335z" style="fill:#030104"/><path d="M0 12.962c0 7.147 5.815 12.963 12.962 12.963 7.149 0 12.963-5.816 12.963-12.963S20.111 0 12.963 0 0 5.814 0 12.962zm.594 0C.594 6.143 6.142.594 12.962.594s12.369 5.549 12.369 12.368S19.782 25.33 12.963 25.33.594 19.781.594 12.962z" style="fill:#030104"/></svg>